<mxfile host="65bd71144e">
    <diagram id="sb5mAMkGDgd809-x11a-" name="Page-1">
        <mxGraphModel dx="967" dy="800" grid="0" gridSize="10" guides="1" tooltips="1" connect="1" arrows="1" fold="1" page="1" pageScale="1" pageWidth="2339" pageHeight="3300" math="0" shadow="0">
            <root>
                <mxCell id="0"/>
                <mxCell id="1" parent="0"/>
                <mxCell id="2" value="VPC" style="points=[[0,0],[0.25,0],[0.5,0],[0.75,0],[1,0],[1,0.25],[1,0.5],[1,0.75],[1,1],[0.75,1],[0.5,1],[0.25,1],[0,1],[0,0.75],[0,0.5],[0,0.25]];outlineConnect=0;html=1;whiteSpace=wrap;fontSize=12;fontStyle=0;container=1;pointerEvents=0;collapsible=0;recursiveResize=0;shape=mxgraph.aws4.group;grIcon=mxgraph.aws4.group_vpc;verticalAlign=top;align=left;spacingLeft=30;dashed=0;strokeColor=#FF6666;" parent="1" vertex="1">
                    <mxGeometry x="404" y="121" width="738" height="400" as="geometry"/>
                </mxCell>
                <mxCell id="26" value="Public subnet" style="points=[[0,0],[0.25,0],[0.5,0],[0.75,0],[1,0],[1,0.25],[1,0.5],[1,0.75],[1,1],[0.75,1],[0.5,1],[0.25,1],[0,1],[0,0.75],[0,0.5],[0,0.25]];outlineConnect=0;gradientColor=none;html=1;whiteSpace=wrap;fontSize=12;fontStyle=0;container=1;pointerEvents=0;collapsible=0;recursiveResize=0;shape=mxgraph.aws4.group;grIcon=mxgraph.aws4.group_security_group;grStroke=0;strokeColor=#248814;fillColor=#E9F3E6;verticalAlign=top;align=left;spacingLeft=30;fontColor=#248814;dashed=0;" parent="2" vertex="1">
                    <mxGeometry x="87" y="75" width="250" height="250" as="geometry"/>
                </mxCell>
                <mxCell id="42" value="" style="rounded=1;whiteSpace=wrap;html=1;dashed=1;" parent="26" vertex="1">
                    <mxGeometry x="44" y="35" width="155" height="200" as="geometry"/>
                </mxCell>
                <mxCell id="18" value="SoftEther VPN Server" style="shape=image;verticalLabelPosition=bottom;labelBackgroundColor=#ffffff;verticalAlign=top;imageAspect=0;image=data:image/png,iVBORw0KGgoAAAANSUhEUgAAAOsAAADuCAYAAADYx/BmAAAgAElEQVR4Aey99X+c17U97P/l+/50b5luGZLSbZu2t5RCmBmahpMmhaRNUgpDE7NlBhlkGSTZomHSgKRBwYA0ghmxZVrvZ+19zsxIkRxyEruJ89k5D55nZvSsszadfVacPn0aH8ryvwEA+X1OnTqFxXLy5EnUyokTJ2Sf7fHjx2Fbbh8/Pi/HdJv7xzF/fF7kxMnjOHXyOIBTfNyS/06eOonp+XmUjh1DbmoG6fIUEuOTCBZLCI2U0DVSrgj3Q8USwsUSUqUpZMpTKEzPoHRsDnPHT/AbLfmM6kH+Hqdw6vRpnDp9Sr+/aavvih6v7i//G354zdn5bVZ8+EO+/ofkS8vfZTE47T4Bym2CUeUkThw/geMnjmtrgTg/j3krx47hmJET88eBk/MACNCTpp3H3PE5FKam0D06jo6BInb15vBaqA9/cyfwwNEe3HYwgmsaQvhlvR8/3u7FD7e58a1Nbnx7k+t18q1NTjn2o+0e/GSHF5fsDuCa/SHcfjiCR9t68C9PGmvCA9iXLMCZGxFQj83N4eQpgnmpf6f5o3w4sL+Pv8GHYF3ixycQlwPrYia17GlBeWxeQTk3N4fZuVnMzE1Le2p+Djh9DMA8cPKYHO8bL8GdLWJr9yCedidxT3MUl+8N4HtbPfjKhk58dk0HPr26A59Y1V6Rj61qw8dWtuNjq9rx0VXtus39JaUDH13ZLvLxVe2wwv4+uaodn1rdjs+t6cDXNjjww20eXNUQxANHu/G8L4P6eB7+oXEMT8/i5GkOKIv+nT5pWPdDhn2vCO8DDVb7+llg2nYxWAlQgpJtRY2dPy6sadnyGME5OysyMzOD2ZkZYH4WODUNzE9hYrqMxMgojmTyeC2Qxv0tUfyyPoALNrrwubWd+KQB5cdXduAjBNiqNnx8VRs+ubodn17Tjs+u7cD/rKN04vPrO/GFtyCfX98h9/Dez63rkL4+taYdn1htQd+Gj6xsxUdXtuETqzoEyJ9b044LNzrxmz1+PHi0G6vDA2gbHMHAxDSOn3w9+75XL+wH+TkfOLASoLV/cKva1gLVsmdVzVUbVOzMY/Oizs4dU3ASmJTJ6SlMTk/g1NwUcGIKp+YmMFwah2+wgLquDB44EhP19Wt1LmFLshzZkUKm+9SaDgHtF9Y78MX1jrcExrcC3DNeSzCvdchnsZ/PsvEnV7fhaxs6cfEuHx5q7camWBahYhnlY9QWav9Zxv1QZa59z87G9gcOrPZHsyBla8Fpty1ILYtaFZeqLWVmdlYAOjU1hYnJKcxPTwHHJnFqdhzD40V0ZnJ42ZfErQcj+O4WjwJgNRmrAx9b1YGPr27HZ9d14AvrKW+NJd/r68nin11LFm6TgYWfnWz/mTXt+NZmF2460IWX/Rm486Mozy8C7uucUh8C2L5/b6f9QIHVApQ/lAWmBaoFKFth0HllUKq5Vr2dnp4GAVqenMTERAmnZkrAbBml0ij8/Tms8qdx28EwvrXZjc+Iaqt2Jdnpc2s78MX1ne8fa77jQYFsr4xPW5ragKrN7fjUqnZ8vc4hwH0t2IfgUAnzi1Tlt/NyfnjPwsHtPxasVjGzAK1tLUBtawFqQWoZlCClikuATk5NojxRxvREGZgp4fjkCBKFPPZ2Z/D7IzF8f5sPn13nVDtwpdqDtA9fz4RLHTu32fX136H6efkdaW/TkUUAf3p1u3ih72mJYWdvHoOTM/ZPIa2GhOiU+tAx9VYHo/9YsFr2XAxSy6iWSa2KSwYVD64BqLDo5CQmJyZRKk1gpjwGTBcxOTaEroFBvOpL4Mp9QXy5zmNe1jZRb/nyKoNWX+gzvez/Gec68MUNneL8otNKnGMr2/H5tR1ipz/nTaNruCzeY0UuGeOUCQUt9CG81Rf4g3T9fyRYawFqwUkWtQC1TEqgWoASnNNTquZOTE6gVC5hdHwcU6VRnJ4YwfhIAR2pDJ7q7MFPdgXw2XUOCYWQUT6z9j+LLd/5ANIhYScJLTFMtLoN39nskvhu2+DoAhX5dCUEtFDl+yCB8M1+1/MerBypa79sLVBr1VwCdDkWFTV3YhLl8gTKpTLGx8YxOTaCk+UCxos5HI1n8MfWbnxvWwCfWevAx1Z2CFD/R2xQMuiHYF0O4J8XNbnKtozp3tMcQ1NfEXMnakJAS8S7a/+uH26fxnkPVv4RCVDbWga1ba1HV5xFTFSYncHU9JTYohMTExgfH8fI2Kg4io5PjODYWA6F3AA6Ehn8qTWG72714TNrnGKXfXJNO76wjuGVD5Ka+86+qzULGC9Wtm3Dl9d34p7mCA5lhjF/spp0wQSMD+3ZpbWM8xqstSy6WN21zqLlbFGy6NjYOMZHxzBTHsHxyQIK2T50Rnqx3d+Lx9q68f3tAXxqjUOSFJjt8yGDvjPQWvb99Fr1JH98ZTu+st6BB1q64cyN1eRG82VdqDF9yKznIbNagNYyqWXRWlu0FqTiLGLSwuQkxkvKouPjRcxPFjExlkc0kcIuZxT/aorgrsYw/q8+gC9scOG/V2qywvuWpPAfzN5fWu/AZ9aYbK2VrbhwowNPOOLoGZuoeI9P4aSkOn4IVGXa84pZLVBta21StksxqcZFGXJRh9HY2BimSiOYKxeQy/ejLRLHvw+H8HB9AHc1RHD1/ii+u90rwf9Prj47LGLZ5MN2id9zg3qRmfpIR93HV3XgJ9u9WNs1ILOLLGr59/4QsOcJs1pw2taC1DKpBap4dudmMT2tsVFrj46Nj2B2ooip8Rx6Mhns9vbi6YMR3L8tgAf2hXFfSw9+tpsqL+OFbZJHy5H/7ABsofOJebpVdXrhubfzvOXzhGufswRQzkHWZmbUR1a24bOr23HzgS60D45avOI0PgTsOc+sFqBsa0EqQJ0/rnm6kkQ/BzIpVV0mL4yXSpgsjWGuXERxOAtPbxpbXb148kAYD+3qwuN7w/hHWxw3NUXwxTon/uu1NkkBPKuOo3VLgYRJ9Rak2i4NOHvNUn3oMd4n9244U3K/JvFXB4jl+3s7g8XZvIe/PScryIyi19pxQZ0DT3tSGJ6Zq4D2g+yAOifBWgvQxSC1LCoxUkmmn9Mso8kplMsm7FIaweR4HtncIDq709jQGcdfG6P48/4onj4UxQvNMTzZ3otL94ckkYGzW7604Wy9xBZkHfiC9GlbphpqumGl3dCJL25wiJDJv7TBAcvoX1rfiS+t03tk24SJeK9cy+tNf19mH9zm/dJfJ75gtgVM9ruxtZ/JMqs9Z/fPgZZ/C3qOOfvoE6vacHVDCO2DIzWAPfGBVIvPObASnMs5jwhQ6ziiystUwInJSUlgoONoojSCqfEhDGSzaI2msLYzgX819eCZ5l68dLQH/27uxkutPXisoxc/2uXHR8imzNl9By+sZckqyxlwChAVHATRlwWMTnx5gwtfXu/ElygbnHL8Kxsc+Mp6p8oGJ75i5MvrXdVtXivX63Xc/qo5z74JWD3PZ7FfXk9A6318Fr8nPwuBLIOEneFjvv9CFf1sDV5vpx8d8OjYY141VeNvbXLglUAfZiux2Q/e7J73HawcLmudB5ZVqfJS1aVYkFqgEqTMNpqcmMBYaQzl0hDKYwWksgM4Esugzp3Cy+0JvNqexOqOOFa292LV0V78u70XD7f24ptbPPjv19pE5SIjvbEqV8OWtdfz5TeMRiAoMxpwCGAINhe+IqDS7a9ucOCrG1z4ap0TX61zgVPmvrrBKe3X6pz4+kYXvrbRJe3XN7GtHvua2f7GRie4Lddt4vW83/Zh+qwj6Nm3iv0cHACs2MGCYFfwKvMr+y7+XfQ3sIPTG/9mi+9/e/v8XT+zVgH7mdWMzcaQLE1VWLb23flP335fwWqBadvFNmkFpHM680VSAqenUZooKUjHixgfzSMxOID2nn5s9aWxxplGnTuNjZ401juTWNOZwIaOOF7rjOOeIz34Up1TGPXNvWy1IFXbT5mpqnLyhRf2sszIlqxHUBKQGxwKpI0OAR6BRbB9Y6PLiILxGxvdul9nAFpXe51uf32jo3IvQaz9aF8E+TfqbJ9VsAvA7SDAwWGj+WzC1A75rJaxhaHXO2VmkIBXWFhVav297O/x9oD35n7zxX2bQWJdp9iy1IZ+Xe9DS/9wBbBWG/sQrO9iGpgFKdtaJqVdasujSGmU2RlxHtG7S7u0NF7E2GgO6VwWjsQgdocGsNU3gF2BDHb4M9jqywhYN7lS2OJM4lVnErc3RfE/65iF1IYvVhw8i1+MGkeNeVGt6qg2JVnTqplkSrdhryqrfV3AZhnRga8LUJz4BsEnAHThgo1uXFDnlioR39jEfRcuqLOtExdscEiVBh4nIC/Y5MQ3Nml7gezrtRfWOcUJ8406glj7o1OGz6n0X+fGN0R4Ty3AdfAQJq8wfK0moKq0DEZi/1Jtr2HeGtNhaQfZ63/btwfWaj98Pmf4fOS1dnxrkwvrIgOVRIoPQhLF+8KstSBdANTjJ6Tan6q7WiKF6i4T68fL4xgfH8HoSB79hSwCmSwOdWexL5pDY2QQDeEB7An1Y2eAYE1jqzeNnZ40XnUncf3BMD65Rr2M1QSHxSyh+6rWkjkpxq60tqKosGQmgtMhLKVqKtnRMBxBJwxngEHgyDkFoABsoxMXbnLgwk1sdfubdnuzS459c7MbF252GnHhQh5fJN8k0Dc7Ktdx/8JNnZC+NjrkuReYVlnYgQtkwCCglX0vqPNUBhFRp0UFd8ogoyq0fl9rB/P3UftXVecqUGt/z9rtKtjeGVi1T5oanDjxXwyxrevA311JzB5n4TmaU1qR8T+VYd8TsOoPubBa4GKV13p5CVTm7lYSGsoTKI2PYmQkh8FCFtGBHDpSQ2iKD+FIPI+W3iwOxQaxPzKIfV0D2BXMoN6fQUOgH6950riqsQufMFUalvT4kiEqThfjaRVwOsSBY20+tSetyqqMJ6xXpwDgS29BeuFGFwhKApHAIYi+udkpwuoK35JtF761hdts3brN/a1ukW9vceM7W9z49lY3uF0rcnyLG9+U+8w56ceFb29R+eYWp/T9zc322S58c5NbPgtrK8lnJEtThIlVjdbvQKAbtdzYz7StreNLbHCxfY0JYDzPn6+zwHw3wGr7Vj8BQzx0PH1qVQcePBLD2KypUlFTPvU/DbTvCljJlot/qOXYtBaknOwtdukU7dIyRsmkowUUCjkk8kPwDwzD0TcCZ2YYnak8jiZyaOnN43B3Fgcig9jT1Y99oX40hvrwqieFK/aHpIzKp1Zbjy8THfRF+ryEO8gONY6hGrtTnT9UFSnWFiRbUq0ke+qLri89X+4ahiMYBYgeqRrx7S0eAzaPAJP736FsZevGd7a68d2tHnx3K7d53I3/5bEtteLCd7dQeMxlrrX3efCdbQpu2x9Brv3z2QvlW1v4OTzyGWUQsSy/sdOwsWoFohGQgSuqPdnY2OBij6s3mw4r690WjcSElL6w4d0FLZn6o6ta8bGVbbj1YBj9k+p4YizW1jte/B6ez/vvCliX+kEsWGsZVYB6TOeUiod3WlVemUs6MoT8UA79wwX0DI0glC8hmB2Ff6AIT98QHOkCWpN5YdemnhwORAdxIDKAlsggVnnTuGRfEB9d1YFPr1EwWhVMHUQaj9TwhtpmX13vxNc2qGpIm6/qwCEwjT240YlvbnSJqErqNmC0zGhYbqsL397qxXe2evFdyhYForRbPPjfLQSjabe48L88ttWD722pka1ufI+yZTmx1/I6e79b+670Y0DPgYCfQYDOz+KVz6dsbRiegwuZerMbZGP5flTNxZ5WFf9Cqvdie+vgZT3X/N2Eden1Fi84zQcHvlCnYSL7279bLSsy0vF0XUNI6h9XVeLXk8ZS7+b5cuysg1WMBxOOsQBlax1IBOgCNuWUNVYHZF2j8iRGRosoFAaRG86jb2QcvSMT6CmWESuMoStbFHb19A/BmRlCezKPo/E8DvdkcTg2iNbuQaz1Z3B5A4FqkvBteEVsLbWzNC5Jr60bX9ug9pllUPWq0hlEkJIxXeLsUZvSoSqsYU3LkNIaJvzONoKBQCQIVQg4AlTAuNUr4CLAKN/n/jYvvi/ikfZ72z34/navyA92eCEi+x78YLtXRM/r9Swp8/1t3PbgexR5hlf7FtAT2PwMLm23siU7G6YmC1u2JwtvNcxL4G5R9V1sbOPsUgATuFSVrbrM31HDRgQuB0L1krs0UaM2fVNMj6pa+05B/MUNHVJO579fbcMVewNIl3UywKnKdLuF4cHzBZyLP+dZB6t9wGKg1oL1GNl0Vkt5Tk+zQuAExsbHMDxUQGEoj8LYGAbL0+grTSM1Uka8WEJsaByR3CgCg0X4+otwZYbQkSqgNZ7Dkd4cHPECNgb7cEWDUX3XdOjobjyYNixhwyoEKeOUNoRSsdvEjlPnD21Neh3JNiJiD+rLTBVTVFfDlJYByZLf2+LF97cQiG78YJvHCMHnwfcJvu0+AeBFOz24aKcXF+00+zt8uGiH7v9wp27/cIcX3JZWznnxwx0e2b9oh0evt/fx/A4ffmD6I8j5PAKb2xcR8AS1DBI6WOjn5UDCgcWo3ea7EcAVW1lsYg/o+OJvYu1edZ5Zp5obX99IUe84HXHCtBa8xjdgC699waZj1niW3x5wOySbixMByLDXNgSlvjGJg4D9T1GJzxpY38iJVMumc5JsbyoFlssYKg4hWxjA8NgIRmemMTIzh1x5Gv3jE0iPKli7h8YQzhOsIwJWd98wOlI5tCZy8KeHsCM8gCsbQhVG/XKdUXUroRaThMDEgk3V8AbByhdObE/jmaUXVp0/tDm9YvPxxaVNqSqrspQwlWWurTXsaNhPgCcAsgDz4Ic7vfgRZUdVeOzHZv/HO30Lzv94uw8/2uHHD3cQsApae7/cs9NTuVf79Mj9+hyC2go/A4UDg09BbAYOZfVaxlfgimYgGoOxsbfob8HfhjY57V3xWBvwirkgbKs2r/WU0/6nU0o9ypomKWmRkkG1RApkbeLJW9i2DPvR19pxU2OXrO/D91LziZee0G3J5XxozzpY+aUtqy5kU11WwjqRqPaSTXP5PArDBZRnJjB14rhMjSpOziBXnsRAaQKZ0TKSxRJ6hscRyY8haMBKZm1P5RDsG8L+WBY3HQxLnu8n13RqoJ8peCZBwaq6wqISVlHVTdnBeGwNc9DxouqtV1RD2np09tB+ZEuwKmt68YOtZE2jplZAaYGpIPvRDrY+EIQ/Zmtlpxf/t8MnwnOyzVa2vdqa/Z/s9IHyf7xnp7eyLcdMH3Kf9Kn9/pgDgDyTAwEHAPM5dvhlWxnbMLuo2j6jYlPVVvYVddrYv2Jnk3lFZVbnFX8ncVZZO1dsXHW2WcZVs0J9AZqtpfatOKSYgGHi2RVG5f5bAOjCa1msjimKXGKkTcrCjs/pJIDzAYxv9BnPGlgtQPlAC1I7ha02TVAKY09MoFgsClAZPz1++gTmT5/A5LE5jM/OYnhqGrmJSQyWlFkTtF0FrKMICViHRQ0ODwwLs97ZFMWn1zrAOajq4NDgvqTg2RQ9hlLoKBJb1G1imQ4TTnHj25sNSI1DyL6cZBeqs2JjEpi0D7dT3VSxKmmFKS1IBHR+Acz/7fQL+H6y04+f7FLg/XQXt/1g+9NdPiO6/7NdPvy83o+fLZDFx3xyXu/3g/f8rNKfXwDNfhXofL5+lloAk5m5/6OdC9mX342qtFWhybzy/QW4lnV14KLnmo60b22likzGpY3LeK+qyhIK4m9O23aThodsiqXYtZIBpr4EDaGpLfuO0ho3aEydlSh+3xbD8VNaNuaNwHCun3/HYLUgZUuQWqDWqr1kUylKxqT7UgmFQgFDQ0Nit4qaglOYPjGHyfk5jM3OoDg1g3x5GoOlSaTHuEaMMms0PyZg9fQPI5odgbdvGL9v68Hn1ztkjRZ6dGknMc3PJinUhlqESTdVAUrvp3USqQ1K9tSXkc4gse0IUGPz/cDYigSogrPKVlV2VFb8yU4vfrrTJ/JzAyKC6ecCRAs8AsxnjhGcuv0LC1Y558cveF+9H7+o15b96TH2UysWtHrsZzu9CuJ6fY4dGGTQMKwtIN5h2Fi0AKrn+r1Uba7axeLU2qa/i3izTbiJAxrtd7VxLdvShGBstyYbSzzJ1inFpBLmSeskBg3/0Hts8q3Jrm/bEaXlYJmt9pnV7Xjel+ZrJv/OdUCe6fOddbBaNrV5vVbtZarg6Ogo8oW8FCiTurGSLHYa86eOY/r4nCy/QLAKs5anBKyZ0QkkiiV0G2alGhzOjiKWG8E/XQlxaHAEZfICR2wBqYzgmt6ncVAz2ptkBOs0EYDaUAq9tcbxIjbcdmUWsgxfWgGnsKZVL334yQ6KshYBQDAQkCI7lfkIsp/XB0QIQoLMgq6yz+P1flxsznGb113MYwakct4c531cc4bX87wFr/TNYxbMlYFB+9fPop+HgwSZ92e7AgLon5L1RaiS+0UtJ+Na+5jfn3Ywf4uKzbvdZ34zDS9ZB5XGeqv2LQfFCze5q04pCQFVE0uoAXGigXqQdQYRs8eEad+2SszUUS0+zuJse5N5i9fX5QCcCSDn0rm3DdY3YlRbj7dW7SWjTs9MV340eulO4hTmTs5j6vgcJo7NYWxmGsOT08iVJjAwPokMmZU2a2Ec4fwIurKjSBXGsT7UJ2EOrrr2FTIpASrJ7Jq0wHgg6/ow/U6cRWKL6gskoRUJnbiMParOITKoqLd8KY1q+KPttfYmGUiZk8CkSisAJXMZhtO2yoS/2BXAxfVBXFzPNqCgrPdL8Wuus3rxbh73yf6v6n341W4/frnbj1/t9uHXe9guJT78cre9Vu/lPZSLeb2APCCr1HGlOj7DDgC/kIHDMPMub5XpF6jRPvluagerPU2wiu1rWVc82WrfXrRdbXfauGrXU0W29i3NC/7uXvk70Cl1gU2+ENCq/0CTLci06kGmTSupocabb5NZFtqoZw7/MDWSRdf/a2UrLtrqQXSkJO/e+eodPmtgrWVUAlXTBacqau/IyIjEV/lrcd1t+cFwCidOn8TsiXlMz8+hfGwOIzPTGCJYy5PoH58Ub3AvmbUwjq7cGPqHyzjYm8Nv9gTAzCSGZJj2R0cG7aMKk25iooKGXGwMURMRjMOoouaacEqNDSp2nXho+aLWgJNqLV9qo46q2kqmVOaqMJuAUAFKkFggEUQE36/rrQTwa+7vDsj34YLHl9T78ZvdflyyJyALIEvL7SXkUt4n9wblftmWY+xTRcBfr8Dl838pg4OCWgYQw8L87KoBsNXvqDawDki0r2n/qp1rgasaB9lWQlD0NDM8xIFws4ntMpZrPcomdVJTIKki699LJyzYMJqaMTRp6H+QaYeVkM+ZwbkUkJlRxRpP/72yDTc2BjF9XNMSz8dyp28LrJZVF9uo1pFkgcoCZfm8VXsJUQ1On6ITiknXOI1jp+ZFBaZzqTQ7h5HpaQxNTGOQYB2bRGqkhN7hMUQL4+gvliWD6fZDYVmZjaOtzlghm5r0v80OTfXbQm8us4gITtqhLnxvs01MsE4iG8ukDeqBeFCN51a8sxXHj9qYP9+lNiDtTlVFa9VVAkIZ81e7A8qMwn4+AZ8CMIhL9qhcujeIS/YGYVtu89xlPLaPxwO4ZG9gybZ6jn3wOu3nUvbNbXkG72WfBHRQgM/P8GsydgXIAfxKgEx2JsNTreYgE1SbWGxerw5OVO/rjTPMOMyqnm3auDXA3aEDoDimtnj1t5e/gcam6SegQ0/j18yh7tQJBuKIcskMIzKthnwc+Mo6Jlao5/jzbyOFkYD9+KpOWTz6OW9K3kNITafzK1niLYN1MVAXO5JsNhKZVNTe6araa/V/gpVAPYGTmD15TFRgsio9wSOTdC7RXp1A31gZSeNcSg6XkB4ex9+dcXEgfW6NyS4SdVfjfTZ5wTqNmF5HdYxhF00E0AQBywKMOUpYRRws6mQhe1hHjDJoQGxCAahRL1WlNcAkWwpTkiUVCMKQuxU0l+5R0BA4IgTivgAu2xfEZfsCsi37ewO4jCLHg7h8b1X0OM8Hcdkec520Cm45z3OmDwtmAX4N+PUzBBTMAuCgsroBMVVvDjSqmqvta1V3dYwZB5mxy4Vtybg7/KIiM6xkVWXrLZfEDGZn1aRTcvC0Dimr/ZBtL6AzSv6eVjVmXrLas+rld8h8ZAn3nGGa42KGpTr8hfVOfGRVu6zy7sqZEjHv4vRP+66fzfZtgXU5jy8ZlY6k4eFhASrVYfvv9KmFQWnaqsdOqmPJeoFHpmcwNDGFbIkq8AQykr00DiZE5McmsDXaL3HNz6zRKV6M5X2TCQ2bHRLvU5CSUenVdeL7BCrVMYZbmOUjtigZQL25P2Y4g04i41gR7628iMbDSieOOHjU3uSLq/ZkVc0kW1H9FMa0gDSsKWy5129A5Mdl+ygBXC4S1LYhiEsbgrisIaTS2IVLG0K4sqELV+wL4fK9Xbh8n5WQ2WYbwhV7u+Sey/eHpJ6UHDN928GAz+NzCWA7SHDbApkt2fk3e4KqfgtwvcZWVm1BnFjGkfXznapV/Iz2rrF/qS7T+60xYo0lV5jW2LYX0WG3jQ4pbzVbStRj44jayrAP85IZYlOTxs78oT+CsfKvrHerE8qwrIKQQHyjCQM83yFrykoO8f4gpo7Py6t5PqnDbxqsllHZEqy1jGptVAtUxlBpw9p/HF1OWbCCcw5PClBnjh/D5PwxlOZmMTozK46l/IR6gftGJ5AcKSM2PI7c+AS8/cO4piGEz63R8AxzVTkaaxqgSWCoJC6oZ/cHWzXswnQ+m/0jqpvEQJlcoGodXzZhDvHGKpOKp3WXvqyq1lrVVu3LSyvMqWqrqJ9kxRqGIztesS+IK/aGBHhMhSQIVUK4qoHSJSmSVzYEJQOL7VX7Qrh6X3CR8JgVngvhqn28NoirKvey/xCukLarM30AACAASURBVGfYbfNsAT63OUjoZyYTE7i0/2k3/2oPv6Pat2LD8veR30o93z/e7sWPRHz4ITOrRFT91fitqsM/FqZVZxwHRE3IqCaPMJGEnndNdVQnHwdYqx5rnFan7kmO9kaPOA85h1jzjtVzbCdlLGbS5fZp/7KmE5elXBfpN6/nQhI5m0x4tvt6U2C1ALU2KoFKIUi5CvgU1y4tl5EvFED1l9fzH9VdO3KJnSoOpeOYO3kM08dnMXVcgSoe4KkZFCamkS1PCKtqTvC42Kx9IyU85egVhwM9hBx9vyXzNU0C+jbrNNJEdQ29mHzYSmqfR7OFDJMyVCEhlpo4JV9Qq/bREUMWZQkRqrdic+4mQwVlRo+1K+WFJ3MZ1iSjCUD3hXDlPgtEAseAsCGEqxuCUrHv6v0hXLNAgri2IYRrGgKm5b7KNQ1BOS7t/pptOR/CNY3sqwtXN4ZwdWMX2DdFBwQDXAvUvQH8uqEKTjrBGJP9yU6POMsIXrL6DY1h3HQgjN82xXB3MyWK3zVHcMuBCK7dT9anbave4ou2eUGR7CfJh9Y85P+Vv40H/0uAbnOb/GidkCB/J5ngoFP9JOQjWVGcQMB0RiZTUDW2YR6dsshZPiwWZ6s82mSKMyVSkIW1qJ0u3XHRVjcyE5Pynp5tUL1b/b0hWC2jWqCSMRlDFaBK4TItAVoYKmB0bBSnxddrgaq26Ukug3DqBOZPnRAbdfqEYdRjsxibnRanUkHU3ynxAGdGxiURgrHV4fEJ7O7Oivr7P+s7JEOGdg5DARqCMXYps2sYJzXhFw29cNSnqsvYKJMUjIOkJv5IVe7iXUH8sj4onlKGRKztyZf2Etp2e0Jqb9aokgQpGUpUVaqkImRNBUaFGStgDOKa/UFc29iFaxtDKvu7cG1FwriuMVyzr+eu2x/Gdfu7KsLrF+6HcS3vk3vZsn/ey2coaK/cr5+LajDDRD/ZoWouryEIH+vsxQu+FNZ1DaC+J4vm9BDaB4oI5MfQNTSGnpESEqMlxKUtIzo0LuecgyNoSg9jV28e68MDeNGXwROOBB4+2o07DnOFgy6x5/n7E5j8ezF9U7OedJK9qr6cFM8sMp2zW8mKEieUSayoo9efoLX2rBNfsTnHnJtcpyVnvriupjTPEjFaOptYGoax+X+4koZdzw9H0+vASnDWjgy1rKqMWgXq5NSUlAEdIlDHx3BSoHpa0rsYkqEcP3Ucx04dw+zJecwcn8PUPOOpsxgX1XcGw9PTKExOaS4w46rMBR4ZR09xDINjZYRzo7jtUFhibrRddFK1prpJzq4ZmSUN0IQQrL1ElZehF3EaMUlBPJoMsxgxai9ZVJxEYn9q2KTWMUSbjuotbU0ypwWpqrVkUFVJWd+WDHft/rAwJlmR+9cZABFkCtQuOSagawzj+v1hXH9AwXo99xvDwmpkthsOREWuPxCRa25ojOCGxii4z23eJ/eY1oKfn4WLPf+6PoCf7fThN3v8uP1QBE86U1gXHsDenizcA0XEi+PIcplLru4+O6NVOuZmMDkzg/I0ZRpjU1MYnZzCqGlLU9NynNdMy6p8s5iancH49BSGmCY6zskX4/DnR9DWN4S9vTnUhftkQHi8sxf3NEfl+zGsxLDPd7dpqqLYqhvp1ddcYskrZnULmV+r3n47n5bn7OweW4JV5tAKgy5nw+pxamcfXaVrxvaMlg27LnzvazFwrmy/Dqz2g1lGtWCttVFnZ3R5Cqq+nNI2Mj6CuVPHRWZOzGPmxDHMnJwTYRohY1u0TcvHZlGaU6/v6MwMipPTKJSp+k5iYHwC/aMTovZyShxZNTc2gVWBjMRLv7TBZaoraEI9p3RJSiDVr+2aXWMD97STmIWjnl2TzmfY1NqidJrQPququeolvXRPl2FRDZ9cTjZtIIPWqLQEJ9XMhhCu3UfGNCCtsJphv0ZlRQVgpAKqGw6EceMBAjGCGw5GcOOBCG48GMFNpr3hEPfDuPFQWI7zHOUGHuP2oQhukHNhmcDA49LXgbAw+y93qaf6xsYw/tIZx5buLLyFcQzNzFaYZI5/i6lJjExNIl8uY6BURv94Cf3jttXtPjnGbRXuLz5mzw2USshyFtXkBEZpGs1MYXJuGlOzUyjPEuyTKJQnkBkrIVIYg6u/iAPJPDZG+vGsJ4nfH+0WtftXuwLiPWYcljbrVze6hEX5DrBg3dc5z3iDxmU5g+qrG+l8MhlQpj7y0narqVC5vhNcuvNjq9rwN1fC/CZctu7cZtg3BKv1/Irqe8xUv2c50HIJxeE8hseKmDg+j8njCkZ6dpmNNDV/TBLzBaASQ1WVl1PgitMzGJ6YhjqTTKbSaKlm7ipZtQRn37DYXCyMzdkdOkVN517SeSTzNE0KnDqONBWQXklmF4njyNikkq4nNimzf9RZpHZoAEwusDFO8Z5Sxd2rHtfLG0Kgt5XqLR05tDfFPmzsUhZtCIlaSpXTqqfXN4YEmDc2khUjIgQnAXgTQblICL6bDkVxM48fjuDGw2yjuInHZdvsLzrH+yjXNHaJg4hOIk5qeNnfhyP9o+ifmJGEzgpCazbKc7NIDI8iMzYu4GNbkfGa7drjb3m7hL4xglufwQGBmWnDXBN3agpTM1OYmZnGxPQURib4HnCQHoVjYBgNiRzWhvrwl85emT3DwZUqNOcgf7nOCc6F/fwaluvRkq8M8TDlVEM8ZjZP7YT3BSqxMiwXw7pomxv9E6YO8TkeynkdWM/EqLaQ2eTEJIrFAvIjQxiZZfL9LMZmZsT+HJ+dhgr31ctLFmWyQ3FKs5MIUmYoMVG/b4wzaybERu0tMkzD1MIx9BVLeM6TwgWb3ZLzKzNftrjxfU7slmlpTGhwVxLqReWVWS02md2k0kn4RbOJJJvH2KRqi5rYp4RcNMRyeUNAvbP7ukS9pWNIGFRsQMugVHUJUqO6Uo2lykr2O6BgVGBWmfDGw2EB3s2HIqDcciiKW0x766EoVCK47XAUtx2O4LZDUdx2KIJbuS3C41HZv/VwVPq4bG9ItAMmiTzvT+No/yiKs1X2rGBz0UvIhICTp0+gb2wcyZGxKkjfMhjfGajTY9VnE6i5chkjUxOY4HTJ2UlMTk+hUCpLUoxzYBh7erN40ZfC/c0xGZzIvF9ZR+A6NElmXadZlYAsaytU6MSAxUxLhxPLwXB5jrVd54dneFmw2vCMVX8lPMOyoEzIHxtGvjiEHNXYSfXiDk9ytgwBqYn4w7ad1IwkenpzdCIRpOUp9HOu6tgEUhKiKYEphawGwQnm/cUS2tIFiSWyPCYLhLESA0ugiMfRpAYSoJrUoLNbKqmANoVO0v5srq3GRgnSy5jhUwlf+EFVl/YnhUxKG1Q8tnQIVVRcArNqa15/oEvsRVVhLWuqWirMadiSjEmWvKWJQFMAEny3E4BNBGJYtu9oiuD2pog4Zu44HMXtIhHwOJ01PMfax2RoZiDRK/ykI4HGdAFD04sByvDY8jYYz/HfyPQU4oZd0+8xUCssvuxzS+gfKyFXKmNkUoE7TSKY4gBfgj83gvreQTztTuKWg2GZusjJAATup9d04LOsvcUlS+qWX6X+8+scstQkB+OZSjnTczeU84ZgtSmEkpk0MYXxsSJyxTwy41MYKBF8EwLAXHlKMo/YZsmcBGd5CrnSpCQ5kEUHTLIDY6isAMHsJDoieoZLUmOJU+C6ciOID43hRW9KSoow7YzJDcqmOutDpqhVcndNvq5Jh7Px0ovrQ5JCRzalc0Vya/eqV1cTAvwVRxHBSZuU8U0bSrma4RE6h/arh5aeWoJV7U3LnqalOno4rIxJ9iNTCjANSwpbRhWMBJ8FZVMUdzbFcIe0EVFh72zqxu1yrBt3NMVwZ1MP7mzuEeZm8sXth6JYEx5AdIR1hhR0lkGtv+GNWsa5aaBNHZtDkmAdHUd6dOxdEQvKs9F/apRMPIZ8uYTx6QlRo0cnOCtrFEczBfzbn8GdhyJSuoYZS59a3YlPrqKdSm+xTmpfHN756Mo2yS/vzGpW0xv9du/n+QpYl1J/K7FUU9CsND6CQrEgKmtydBLpkTL6RsvoH6O9wfioZh6xwoNuM7+X58sye4YATdP9X6QQpJqdRJDS68vpb/HCGDrSBQk70A4RJ5KEYzhB2o0fySRqOpC8EoLQhAZm02giOm0b5ugSpGQgMilzZSupdpJRZBxGBCnjngQpnUXiIKKKa0Iq4pmlaqvMaVVbVqVQ9qQ6GsUtop5aYCprkjmFKQWICjwFZQy/bSYICdSoxDDvao7hrqYo7mqmxLRtieF3zd3C7PweDxyJYXc8j8J0NSuMIFUGXZ5Fl365FOT01PeNMpY9+q4A9WwAdLk+CNz06Dj6x8ZRnChjamYSY1N0UI7hSKaAf7mSkuxBdfjTDNWs5gychZUumdXEJP+PrWzHvzznfhhHwFoLVMZRbSyVrMr5qFJ5sDSG4kge3YUiosPKiGRFAo/J9gRharQkjMkfkSEY7vMcExwSJnWQ6q4w6RCT87WuUtegFkLzD4wgkR/D2lBGYqaMq3HupKQJ1qQI0oGkqYE2LdALTv2i0HmkSQw+TQE0SfGX7iWTarBfMnzo0SVQJebZhWsPVOOT14mDqOqlpVfWqrYCTtqSYmdW7UmqqKLKHrYMqWAkOzKp4LcVMCoof2dByUSDlijuJjhNe29LDDcdoNPIJx7Sg5lhTBs1TVm0VlV7ex5M7ecU8qUJJIZHoC//u8OuywHubB6Xzz82JsCdnZkCGTeYK0rI6Pr9IZkvK8XeV7dL6qFdQuXz6zol5krnYTUFsfb3PXe2V9QCtdZOtUDl8hWl8hjGRgvozg4jkB1DND+KWIGsqOxIhuwd5uwYtT0JSDqLpB2mg0ArPXQXFKBkUlYqZGnR4MAI/P0sgjaM0GAR7r4hWSmMQXJmv7ACYCUkY+oNSQkTenl3MV6qIBVGpfOoXhMZLqXKu4+2KT27JuXPpPaJulthUgUpPbnXm7gl7UIJoxCkIuqtpVPotsMxcfTcTlvT2JnKkt2gCku1VoAp4IzhrhYLRgXk3S3doNzT0mNabnfj7iPduO9Ir6i5TNa/vyWGfckC5hakbb5VBl3+RdPcldMoTtFuHVmSWanCnk1AvWd9jYxhYHwc5akJTE9Pond4FBvDA7hqXxdop3KxZi7BYeOyjLmyikjXsM53XVobWf63fK+uF7ASpAQtGVUcSsfmwQWhOFGcq4iXx4fQm8vDmRkB2Y/qaig7KhUbWMSM4IuxLYwJiAlkKR1aGJVjkfyoqLldOd4zIqAMEKQDI/D2s2g3ayrlEc0WUR8blJS/C7e4DEg195TlR7SygU705qRuCcfITBhVeRmKUZU3ZFomzjPnVj27wqTiNGLYRUFKG5W2KIFKTy4dRkyxYxjlxqYIbj5MFrUMShU3Kg4fq8be2ayqLNnTsiXb37XEDBijAsZ7WmK4t6Ub9x7pNm0P7uO2gJSAjeHyfX4JU+zszWN6vja3+uyBtPbFot3KVM/eoYXMej6qxUsNBFSJaY+PT05gdmYSsaERPO1JijOKZUs/sbpNS5iubsMnV7VhR4+tJvH+A7P272S3K8y6IJ5qFyqmG700jL58Hu3JIbgyRXj7ivANsNh2EQQcgUt2ZCGzruyIVM0PEpDZIkLS6jleFxhUgLLuLxPzWUPJnWZ1/SF0pPPw9w3haWdcGJUTxSV2atiUQNU6RGYuKdMD6zXz6De7fTJfk6EMmV0icVLr4TWOI5tdZOxSiYlKhhABGhUmpaqroRXaoZZB6RgKq1PIOIR+29SNu5q6xfasAFTAGFOWbOkR5rz3SI8A8z6CtKUbbAlQkaMx3H80hodamQjAzxjAK8HMgsQFzat+d4DKF4D/xmdn0DtUFLuVIH2/ZWnQLbSp7WDyhp911H6fMaRHRjExVQZrVB+I52QCBQvsfUJYth0fea0V/3TZua5vz7SwoHq32gqzklHFoXRMi28zlXByYhxDRa3N25LIw5HOw5UpwJMZFnWVy1gI6PqHpZYvVdlAP4twD8PXR0AS2CPwDhThHTDg7BuSe50Z7Y9r1rQn8nClCmjuzUsog1XtZa6pmXalyQ06M8ayqS1rcgnV3sqc0YDM95R0QJOjy1kpTHBXJqVnV5MYJC4qMVFNVmdm0OscRQac1jFENlUHkDqBLHuqWtuNe45QYsqWLTEDzhjuP6LAvP9INx442o37j/bg4bZeaS/b68cDR2PwDWnaGwF06vSJygSId+sPr2A9jYm5WfQMDSNZHHnTshgk9t7Fx8/mPp/xdvtLjvDeMSSLo8iPl4Rlg7lhyYv+9FrWaWoToZOPNYb579383d9u3yvIqNZWtWEaqZtULmOyVIQ7lcX+mAKWa8t0UFJ5dKbzcKTycKYLcPUV4BIAD4tK6+mj7cntIbgzPFeAk5LW+3h/eyqPtmQOrfG8VNT3pgvY2jWAX+4OSmlLTrnSKWxaZkSKi5k6RlKfSNiUnl7apsqozD6i8+iKBqbdBWXWCcEp+bii7mouraq6mt4nbEpVt4ZJJbRSYVF1EBGkv2u2dicZVNVa2p6i3i4BzgcIztYe3N/agweP9uCh1jgeauvFo+1xsW2v2hvEyq5+KWsjb0ilkgbZ9N1jVPuy8JlTc7Pozg8hPlxE4n0SC3b7fLtv28XHuW/PvZU2URxBvFhEqjiC6emyqP93N8VkPaT/75WjYD74qEkqsb/RudSuqHp/j8lMGtqpTHyYmRxF72AO9V2DONydQ3Mvl6ngQlBZWb2tNZFHWyIn680QeJ2pgoI4VUBnOofOdKFyjMW425MqrKBP4XKN7K+5NwsuLNURz+M5Z1KWf+B6LbV5vVLbyNimWs2AcVOGYwxIxdOrCQ2cnkbPnqQE0sNrZ6k0dklCgdqjUdx00IRdjD0qoZbDjIHSq6sAvbMpIgD9XUtEvLV3HzHqrVFp6bW9j6wpEoWA82g3HjraIyAlMB9s78FDbXEpmfpIey/+2BHHjY1dsupZZ27UYvSMSQzv1gvDh5dmphHNFdA7NIx4jRAQ3LdAWa59M9csd689bp/Lfbtd29rrzlbLgSk+VBTNMZgtyDvy/145KlVF0uVzd9rcCqv+qveXC0RNYXqyhOJIQRYo5qriXKHtUDSLw92DAiwus0gRwMULOBonQypLChjNPheNIqh5/oisScP7FPgE6OFYTtZW5ZKN7P/hI92S70tWlZIquxiSYdxUQzKMnV5i5pRaNmX2EVn0SiY1yFxQzToim1bsUs7LpD0qjqNq8gLT9+jVVSZlyEVBasMslknJovTY3kMblDZnS1QAep+xOx8kQFt7RbV9uLUXv29TeaStFyKtcfyhPY4/tsclpvtoWzfyUzZeSgZ9f9QugpUzaaLZ/JIgqQXMf+T28DAmJ8fQ2JuVek8svtc9ZmfhnHtOJmFWJunPSkXCKYyXS5ieKMIR78cmbz/2hfvR0DUgixXv57KK0UEcjA7gcIzgVVZs4hxISm9WQEzbk6Bs6cmhmUL27M7J9YdiWRw0/dgVy5uig9gZ6hfm4+RlW9aTYRkW77JT2CreXk5VI5tKmqDOhiGb2ulnYpfaqWbGLpXcXHEgMbuIziOm+RGomkVUCbnUxD1pi95r1Fx1DpE91f58QNizV9Tah9vUBn2U4GzvwaNtcTxCaY/L9p/aE/hjewJX7AmKN/JEpUL8mdMC3y1Gtf0SrEyqDw/m0FsY+sBJT2EIAyNFFEZHcU9LVFIVO7Oq7djf6FxqhVnJqkwnnJiYFPU3k8tigzuFbb6MrCS+O9SnCxV3KXAbwoMg0BojA2gU4CkzEoQHCcbYIA52E5QKTLmG10cHwXv3h7XlSuV7Q/1oCg9irS8ltienu0n81NTbtUkOl+yxYRmqv5oqqCEZTbTXmTCafXTd/lA1DMPpY5IOSLvUZhlZVdewqWQQMdQSw91HlEVtmMV6b+kEUqHtSRalaktwkj17lEHb4mKP/qE9IUz6p/Y4Hu9I4LEOAjWA1V19FbX3/X4JtCAskBsvITqY/8AB1Q5OPfkhlEtj2BllHWoPWvrP3bTDFdapNM2JxuUypspDOBTJYKUjhe3+DHZQAn3YGUyjPpiBApcgG8A+rjTeNSDqckPYtgQit23L6waEncnSe7v6Bfi7QxnUB/uwK5CRlcpfcMZx8Z4gfrjdCy2MrWVVqPqy3pHm8yqjalUGU5FBcnhNBQaZxN1VnYpGtVfSAWNm9oomMtzR3K1ZRZLep3YpWZSJCdZZdK+xRem9pTzUWgWpALSdAKUoe1LFJXuSRf/cHhd5rDOJvziSuIKOpNC5A1QOFPzHEuvp4ghitFkLlKXZlSrwcufejePLqdx81nLnao/b62y73OePm+9bGGO8P48r9wbR0l+U3+b9HkyXer6AVZMfJnBscgzd/YN4pT2OOlcaW7wZbPZlsM2bwTafAW8gjV0ifagP9mN3sM9IP3aH+gXEbPeEuN9nWgVmfSAj4NwZ4ACQkcGA7L070I8n2nvFTqUHmHWQWLlB1F7m9pqUQaq+dnZMJenezCvVxAZO6rbzRcOa0GBmrzBWqokMmpf7WwGqenfFHq3EQtVhVHEWkUWNHUr7U1RdsUVphybw57Y4/tym7EkGfazDsGlnHE+50lJL6SV/5pxhVL4EOuvmNI6dmEdPtoBYLo+eJaSbx/IKZLYL5UznCugpLL7e7r9+QNBnDFX67130LIKu8uza7UXXVa6pOc57l5W8nksXhxHPF/DbQxG0ncMJ/Su4qDFDNeWJcUyUhlDvS+L5o3FscCZR50yhzp3CJncamz1pbPH1Yas3g60EsD+N7T6Ksu9OfwYE4U6ysIhhZT9BmRaG5rUEJ4V9cDCgbPOmJQf2p1x3ZScnhmvFeqkgKHNNWU6lOs9U7dMuiZ+Kt9cmN5jqCjfIDBg7zUwdSBXnEW3SpteDVJIWjlDVjVbCLIyFVpxEZvtRsT/JnGTQBB6jEKSdKo874njMkcDf3SnJRvpTe4/McBEmew/CMUuNyLXH6M1ithr/0RMc6hsEQdmdyy0rsewS53jMir3X7mdz6Mmyz7wMBBwMrNQeq92255dv+RmW7nP5e/T6Mz2nO08ToIBkvoCHWqJwDY3Lb1P7m50r2yt06tskjk2PIdY/gOeae7CyPYHVnQms7UxirTOJdc4UNrgI3DQ2utLY5KFksMmr7CugEwCmsc3XZwDZp4CsASWvs/dudKdA2eROoc6Vwr3NMVkk6Rf1Xvym3oZmaJ9qYTLap1fYSg0yx1TDMlIyhequdSRxcveCKWmaDkhWpZdXPbyawGBVXvXudgtIH2RMtK1HQi2PtpNJ1VlEFqWKSyF7Uv7MtjMBApTyl84E/uJI4G+uFB5t7cWtB8LnZtzOTK3Ljo0hlO5Hz2AO3W9bsm/iXnsN2yxifFY2p+2i58q5Rcf42WJyn+2n5vNmzTH2l83WiNnnveZZ7Hsp6c3mEM/m8Fh7D2Lj53DoRli1PIG5ySL2+uP428FurGxLYGVHHKsI2o4E1nQmsMaRwDpHEuudSWFdAa8rLYAjiAXIHjJwRph4ozuDjR5l5o087yLgkyoyAOhAQAbngHDn4ajk/nIdmEt3myR8W0FQJoR31ZRUMVlILCLGHF4pk6L2qYZjaqenaWI90wLpQKLKqyBlMoOqvAy9PHi0V5IWxGkkYFWgKkjjeKydYhk0iccJzM64tH/tTOIJRxJPOlX+6U5Jzd+jA+em/UPnErOk4oM5RPoG0D2QPesSG8gi1j8oZhVNq8ozuE0wDlDe2nN7lrmex3sHsujpH6wR7vN4Ts71cnuR8DwlNZiFLzmAJx1xlOa5Fg7DNu9+UspbZewVE5OTmJkaRyabxTNNMTzbFMPLR3vx77ZevNrWi9faewW4BO9qK51xAe9ah7LvOieBnFIwC6ATWCeAVIBze60jiTUUAr8zgVUcDDriWNcex2sdCamWwGrvsi6LFMquhmZY/0hqH9lpbEy8N0XHODtGc3qtE2lhYgNtU00LjEmcVMBqkxgEpExa0Bgpwy5W7f1jWwJ/ohiHkbBpp6q4BCoB+ldnEk8YgD7pTOBvzgT+6VEt4S+OuJkcfu7F66jnlWdmEExkEO0fFFBF+wawnBB0tee4X3vM7r9RW+mjX58VO8MzK9f2Dcizavu25+RYzaDAfRkYFrRZdPefSQbRn81iXySJFwN0AsqyaedmuiHjqvNTRTR1JfGHvWG80NKNF5q78WJLD14+0qvAbY3j1dZevEbwtsWxsp2sq7LasC/V5jUdZGKC2rSdcazuTGJVB8GZUKZuT4iazX4oa9rieKmtF7ccCktMVRdW8uMKE0MlUK9pMHNNpSiZ1jsim958UGfH6NQ1DcswwYEzYGijMkVwMZtKxhHDMPTuMnmhtWqXUuWlqC2axONtCTxOVdeREHm8k6ou2TOFp1yUJP5m5O+upNShfcabksR8X8X2ObdGaFPWGf3DRfjj6QUgtCB4Jy0Bs9T9yx1f6trFx85075nOLe5nuf1QKi1OqIn548xOOSeBShZeUS6NY2Qki1dbY/jz/gieaY7hWSPPt3Tj+ZYYXmzuxstHCN4evELWbVXWfbUtLuxLBn613bBwW0JAqGDUY7yOQOd1vJfyCuVID/59pBvPtxKsEVzMgtr0+LJGr0nEv7ohoFUETfVA1stlyiCrNRCwtx5igkOX1DO6o7k2AylSM5mbU9GYGqgpgZKnW3Ee9eCRVvXykk3FcWQcRgSn2KOdcfzVQSZN4ElnGsqiSfzdmcTf3Sr/cCfwL08Kf2zvAe+zdY7eqqrzbl5vvcBzJ46hK5lBVyqDSKYPYUr6LUrtfZl+hN+M9PUjkulHpG/x9fwMek5ae505JveY+3hvrSz33DPdY+8Pm+f4elMYn7SZS+fW4Fr7PqyYnxxDMJkRVn3qYBT/OBTFPw5H8XRTVNTiZ5q78VxzN55vjoHgarRH3AAAIABJREFUtaz70pEevHTEgpgMHMcrRwnmHrzS2oOXW3sEjNx/mWKuf7GFrN2NF1p6hMVfau7Gs0d6JWGBy1XI6mmmeBkLWTHZQcqtyORwnRSuaq9WCJTiYzKFjWxqp61xDintU5NkL0Clp1fTAmmXVkMwvRKCqaq7tEvJplV7lEz6pEvt0aecCQiLupP4hzsF2qf/dFP9TeI5n9YA2tI9KB5F/q/2x37/t9ULnBsdhScaRyTVJ4AlaN+8pKvXGsCHU30Iv+U+2M9iWfpzsG/pP73o86Yz6BLpQxfPVSQjg4+cexOfKxBPS5Hyc+/vtZDlVxynY8nXi7t3BEGwPnkggqcORvD3Q2EB7j8FuDE83RSrsC4BTPZ9rjkqgHuuOSYgfsG2R2Jy/PlmBTfZmddwn8Anez/Twv668VxTFE+36HILrDXERHxbXVCLl2mhMnp9bzwY1cLXUlZFGdXWObpDgGqqMnCqWksP7iNYGY45EoPm75qsI+NAYjogkxkWsynB+hdHCk8QpLRJXfTwJgWkf/ck8A9PAv90J0XIpk97Mnjam8aL/jRuPxiG85xKWasyBV/GE6dOIJhMwxdPShtKprGc8Do5l0rrtamlr+2y172JloNCKJlaRtIIpVIyGNR+psX923221BBqr3399nLP0uO+3gQi6f5KOOv9H1AXArT286wojw7hpZYI7t3hx1/3h/FEYwRPHiBoo3jqQBR/I3APRvF3w7gE778oTRE83RzD0y0EchTPNEdVfRZQE8w94qwiMHndMwQlt5ticj/7+cfhCP55KIJ/MqTSFMUlZrW1avEyVrTXavPW43sjy3oyt/eQZiPRNl0QlrFZSDLJO4YHWnrwoEmyV+cR1d4E/rDAecTwiwnB0Hkknt0UnnLSJiWTMm5KkBqAupP4l5sgTeMZbwbPetPgIr3P+1LibY6fk+5/ZdXs6Ag6Ij3wp1LwvUnxJ1MIGKnd5jHu22PBmuvs9cu3SQSSVeG9FOkrlZbn1fZd24+9NpDUQaT23Ou2UykElpAgn5FKwxnrQSpfUE3ofZpQUQvIM22vSPQP4JF6Px6qD+FP+7rw2L4QHm8I4S8GuE80hvHEAQKYjBsW8AqAD0VUZWZ7mBIzbVjUaALw73JNrHrdoSr4/3ZQB4OnDmif9zRHcJkU1q5NyNfSnzcdIKNq9Xm1UW0Svqq+rApo83ol8f4IJ3hr0j1DMja54fcmh/dPbUnJPBLnEZMZCFTapZ0JYVOClPJ3ZwL/oLorTJrAvwhSAlRAmhaQPuNJ4VlvAs/5qAanhcFTZV1A+kw//Ht9jm8jM5a8PXF4uxMIxFPwJ5Lwx88kCfjivDZ5RtE+Egi+wXWL+7HPXnw8kDCfjZ/vjJICr11WOBgsOu+v9M1npNAZiaFYtvbq8qz2Xv+9lnreitZIHLdt8eCRPUE8uieAR/eE8Me9XfjT3pACd38Ij+/vwl8bu/CEZd7GKJ5qJPuGTUvghfGUAJrbEbNtjhmW5jXK3BFp/9oYETZ/cn8X7m+O4iouVyizZ7gUhS7WpOmDXPclipsPx2SmDFVfZVTr8Y1KlQYClbNjOL/UTvYmUB81IH20wqaadcQQDIHK/N0nHKry0sNbBWlSbFGWqVR1l0yaxrOeFJ7zJvEsAerP4AVfRlTgl4N9Mn2ue4w1fTUKsNSP/p4fMy7gVC6PjlAUgd6ESk8CASN+u23PLWr9vQlUpCcBXi9irvP3xkGp9F1zfe2x6nYSgV4r5vNU+tJnvQ7ENYOBn4OIXJ+sfq7Fz5SBhoMNr+WgVG35XbzdvfD1JDB/wi6sfI6DdasrhmvqvHioPoDf7w7gEQPYR/aE8Ic9QfxBwBvCn/YG8RiZt8Eybxf+0hASsFF9/isBbcAs22TkRh4j0Hk+jL/sD8o9f2kggwelrz+x3RPCw4ejuP5QBFfJZHHaqbp4kyzOxGUmDsekcNkddCZJ3d3uSmiGM2U00YFAjYojiaqvTXCgt5fzSdWJRKAmNRxj4qVPEqiuJJ4SlZeOI3UYWQ+vsClB6k3hGW8Sz3gTeN6XxAv+NF4MEKh9eCmQwerwAO48HEHr4Lkwc8Paqqr+cpW3jlAE7lgPvD298FC6TSv78cq+sG9Pr7Iwmdhcy3Zp4TV6XfW8PVbbap++3tpjS2/7euJYUrr1OJ/D89KaY4uv93Zr34uP8/k81tkVRXxAnYFcqvQ9H0TfYphoxUstYVy3wYP7dgZw/64gHtwVwMP1ATxM4O4O4pHdyrZkXIL3jwRvBcBUnVX+bFRoAvrPBoiP7Q3hz2TpfSH8mdftJWuH8Ie9XfiDtGTzIP5QH8QjXG6iKSqFrLQ+ksZQxfNr559KNftqDJV1dm1GEqeyVRhVJn8zZqpJDpJwz1TBSg4vQzIJZVOCVGxTqrtGJAyjoRgyqbCpMCnV3QyeJ5sSpIEMXg704d9BSgZrugakhOj6yLnjDdYg/2l0JdJoD4aFTdzdPfB098C23BaQdffKeQFxrAcekV54YipeAp1irmPLa2r3K8di2tficwv2l+hvwfma51Sey35N3/zctc+v3V62H9tnTxxtgTCKpTFVgt4icN4PYK94bF8AN2z04p4d/ooIcHcG8MCuIB6qD1bA+3sL3t0hPErZQyHguvAowSdMzH0FNAH56F7dJ0PzONVtsrYdCB7eHcTDO/x4tDGM25tjuLqhSxZ4splJkvBwyKYPKlCZlaQ2qkkdFBs1hgdbu8WZpKEZnb6msdNkNVVQcnhNeqCwqXp5rfOIXl5VeVNim9J5xESHZ31pZVJ/Rlj0pUAfqPb+O9gv8mqwD6tD/Xjel8bDrT2YNfV+348/avWZqo0PDA+hxROAJ9oNTzS2QNyRGDxGvDGe74abEjuDRAmSbgNmC+qlW/aloK89z757KsLztfu6vfAa/Tw6yFT6M4NO7eBCkMr+gpb38bi5v7sXneGogP5kpRDAecCs92334aY6L+7a5sfdlB1+3LsjIN7he3cGcN9OP+6XlsyrAH5QABzEQ7uVhQliqtAP7fYLI+t+0Gxbpg7i9/UBPFTvB+9/cFdQBoP7dgVw3/YAHtwTFAByBW+yqcZSzWTxShw1KstMaOV6reIgjHo0ioeYOiiqL0FqgGpnxpBRxYnEfF4mNhi1V2Km1strHUhUdWmXEqS0SVN43p+SVb25sjeZ9BWCVBi1H68G+kCgruxSsG6O5WTR4j1J9TC+PzmmrJCoVfqmZqfR6gnCEYjAFYrCFbIttxdJVxSuMwmvl/MRuLoicJttt2zzWFSOcZ/nVcI123rM2RWG3hOFKxyFOxyBawlxh2NyXp7J6/g8ud48JxKDKxKDOxyFJ8w2Vmm5XRU+w4pe0+z2IZPL6Wh2jnuB7eC74taNHtyy0YO7tvrwO8o2P363XeWe7QHcs92Hu3cEcM9Ogtgv6rJlXttaED+wUwHI9v6a7Qd2+mGP3b8jKH3IgLCTgwKfoQPEfc1ck5QrpenMGVvZQQuYMeHBzJqxcdSK6sv6uzZ1UGfJcCK4pA2amTEEayUkw7ipTW6gp3eBAyklC/vSecRlFF/wU91NC5tWVd5+vBbox8pQv4B0VVe/LBa1NjyAuuggXvKncefhMMpz6rjQ9Wjeu5G7kj2FU/CEu3HUFYQ7FIMzGH1T4gpGYYX36HYMriBFAe42rb2u2uo1Tg4OlXttH2+1jUGfwwEmArcMNOxX93nMyWM1+zoYVc/bfWcXr+XzI3AEutDhDWL2mK6+Z8Fwrrcrrl3nwi2bXLhjiwd3bvHhzq1e/HYLxacAJni3EcQ+3L1dmde29+zwCYCpQlfZmOp09bgFYkXNZh8cDHZof7/jYLDdh7s2e3H/gQhub4ni+gO62BPrJBGokpkkFe9NdXspXMaK9px7SvWX+b0EKVvWOzIzZDo0JMMkBwUq7dOESRNkWIbJDQk87aHKm8EzniSe9iTEyyvOI38fXqTaG8wYu7QPrwX7RVaF+kCQru7qx9owZQBrI31YE85gZ08WDx2NSUKFHbrf/ReBDiVmTJ0C/+O/3kw/mjo9NaAxLzZf7jcpzmAEFALPbuu+vvxyLMBrFIjOgBkQAmcGph04LKDtfqUfM7Docxc+m9c4eD5Ue7x2Wz9z7efV/hXczQ4PetO6JisdS+dyPnDte7PiirVO3LzJhVs3uXHbFjdu3+zFHZt9uHOzF3du8eLOrT4B7m+3KnjvIogteK3qbAAtajTBR2Bv80orQN8eULaW44bBpT8/tF8/7qjz4N7dQdzd2i1hGk0jZFK+rh/DAsy1Sfn3SRzVqr42fTCOP0oivs43lbmmkuSgqq/ETl2piiNJ4qbi4U3Lws3PepLi8SWjMhuJK4iLyiu2aR9eI5MKSPuwumugwqZrIwRrH9aHB7CBEsliZ7wg5UY3RAcUr5yWBuuhfTdYVleUs+pvfqSIQ21OdPqC6PSH4KAEXi+dSxxb6jqy0dJi+7TnuV+7bc8v1fK6pY7bY7Yf0/oX7QfCcAa64AyG37R0+rtw1O3D9Jyy6qnzwLFkAbvi0jVO3FDnxs0bPbh1U1Vu2+LC7Vs8YHsHAbzFJ+1vCWRh3hoG3uIFQSxsTDAbEYY2TK3nzQDAQUBE+2T/txp2v68lhtuaorhNyrDY8qAEKkUdSpKQb2bOsOTKI23dwqyi+rLECguVVeaaJvCUpA2SUVOS5CBOJDqSjKf3OQnLJMQ2fYH2qTiR6DxK498hdSBR5VU2HRCvL9dIXWOYdF24H+sjBOkgNkSzqItlsa03hy09WSmHuv11a6i8O6C1QJ2cmcbhDheOOL2i7rX7Amj3vjOh2khZ2I9f9jt8QbT7eD4AbttrZdtnjvH42xQONgvu9dvPYp7LfnlM+ue1i4XnQjJoHWxzIJIwyzueJ7ZqBayXrHLgug1u3LjRjZs2enDzRi9u2uTBLQTuZjdus6y72aPgZbvZi9s3E2jcprirTLyF2x6VLR7csdkt1wngN/vkeiZh8H7ee5uIW55103oX7m0MC7tyEjknpLO6gzCqpBGaXF9xJrGaA6sJ1jiT2lT9fdyhk8OfYNqg9fjKDBnN6RVvL4HqYeyUmUd0IpFNM3gxmKl4eV8J9uPVoAFpmCrvANayEmOEbT8I0g0EaTSLDbEcNnZnsal7EJu7B6TdnShgSyyLG/aHsK4mnCM27Kmzz66k8PkTx3HU5cOhdifavAG0efxo8/rRyvYsCvtrdS/q06vPev1zzOd4J8+332VRHwsHj0XP4eepuf6Iy4umDhemZ2dE27EgOF/aFb9c2YFr1rtw/QYjdW7cWOcR8N640WMA7MHNm9y4xchtm9yiNt+6WQF982YnbiOwN7tw2yYnbq2VzS7cakWYm/fqYHDLJi9u3sS++Rw3rl/rwu07fLi/rUdW/2aWkpRhkaQHBSoLa2t2EhlVgcqEB0nGp61qZszQRtVEfDqTkpo2yOR7OpNsOIYeX+NIEjb1Z0CAatxU7VNlU42hromQTdU2XW+AWhfNYmMsi00xglSBSkblzBsCdU8ijx29OcllZo7xzInjqhabwmXv/EVRlmannDbt8Aaxv6UNbW4fWl3eJeWoy4NW1/Lnl7vvDY+7l3hezTF+psrnOsPns8856vLiTCLXsR8rHt2mmls5ZrYJ2n0tbehJpfX3P+dmRL3x4L3i4tfaceU6J65Z78S16x24br0T129wK3jrXLiBrEsAb6yyL4FFFiYDC9A2UY12VwDNY2RmC0SCnNuWvXmv7e+GjW7cUOcRVfy69S5cu86B+w5HcffRHnA5RbJqNTvJxFLNXFSNp1qg2oJl6vUV1bcmdVDjp3QgaVhG8nn99PhmxOPLDCQmNjBu+mpgACuDdCD1YU2ILEqAkkn7jE1KNh0UdXeTsOmAsClBujWWxdbuLLb1DGJ7b1akIVVAY3oID0pN4ihCxdpFqKxj6I3/WMsB2759gWg39hw6gqNOD4443G8gNdc4PXLPUafbtB4ccbpF2NdC4TVnkjd7/eLrlt4/wu+yjHDQOUKx511e2ReAy+eugr2pzYnmDheOHWfZlnNt6uKb+9uv+PWqDlyy2oGr1jlwNWW9Q4B7jQHudRucsHKDZd8NLgHXDQRznRvXE8jCyApiy8gCyA0Eo7muzoXrZQAgi7Nfl+mbrW5fubIDt+8K4MGOXjBBXzOUdE0ZmerWSvW3xqHUnpQavZU8X6mHpHm+llFrp7Mxr1fEy3TBFF4wYRmyKVVeVXtV5WVGkqq9qvKuj6jauzE6KEy6sXsQm3oGhUW3dg8KSLf2KEB3xrPYFc+J7IznsTdZAGsycWYO17qhzTt/sroGK1Xjaojnzdm0NkTDly/SG0d9YzOaOl1o7nQtaJs6nbJfbavXLL6+udMt9zc73Gh28Do3WrjNfmVf75V986zlt819lc9U/RzSF/uT5/BZ5nkOfR6f+U6FfbIPDlx7DhxBf07XX31/Yt9vDpDLDcg8vuKK1R345WuduGKNE1euVRHgrq0B7zoHrl2v7KsMbAC8XkF2bZ0B3no3ruWx9bpP1VpBWG2v3eCEiDC5a0G/V6934oo1nbhyjUOqHd7XpgtB1ZZioUOJaYS0V20s9c/GmcSEBybkS7kVqr4SQ60mOzDRQZLwJa+XjNqHlwMZSWoQRrX2KcMx9PaK2ttnbNNBrI/mVOUVkA5gM5m0OyfqLsG6ozeLnZR4Hrt689gVL4B26+5EHrsTWexN5HC0fxh7EwU8cEQnHTSbCvDKjrWAfYPR35QT5X3xVAa7GptxuN2Bwx0OaZs6nGhqd4KtHOc5Izx+WKR6rHKO99UIj9v92m177L1oyYgyAMnnqm7LcZ7rcFU+Y7P57JUBxOESbaPT49ef+DxlVQHrTes78JOXO3DZ6k5cLuLA5WscuGKdQ9TjK9Y6BMQEMMF89TorDlzD7fWUKhtfYxiaLYHNc3KeqrZcr/vs76p1Tly1VkUGinVO8Hm/eqUdN+3w4fedSan4UJucbwua/aE9CS5PoeVA1VaVWCprI5lyK0wh1BkzOp2NifjP+pRNmdtrVd9XAgMCWKq96kRStXdtl3p56eldHx0UB1KtXUqgisorAM1iV4JMSpASnJScyN5EHvsSeTQkC2hIDuFwXxEduVG81tWPu5oi+FNHL5w5zVHVN0oLcVeZ9vWjsn3zEpk+7Nh3CI1HOnCo3YFDbZ0VOVizfbitE1ZqryEAa/ffzDb7qVzX3imDAPct4Gu37bE32x4y/dnr7XPsvm0XX2ePL24PHG3H7oPNKE3qTKgzMde5fm7FA1sd+N4L7fjNqk5cutKBy1Y5cPmqTgXvGgcuX22EAKaspZCBCV4C2iGAs2C7aq0LV62tOSZg1P0r1ilz8/7Lee8aJy5f0ymDw+WrnRBZ5cClr3Xi16+2457DUTzYqXNTdV5qj6wtw6ludCgxMV/U30rSgwEqi5dJwoPm+ZJRn+O0NnEmaWiGeb1UeZVR+0xYph9rugaxJtonNmpduB91kUHQiSQOpJ5+bBa1t2qX7ogPYqeou8qk9QLSPPYmstiXyGFfsoB9qSHsTw1jf5oyhIZ0Ho3pPNqzRbQOFiW18a7DEant5MyyyLQubyGAXBQHrFV9UwP92Lr3ABqa23CgtQN8MQ+0tuPA0Q40sq05drC1A1bkGp6Ta8w9S25Xr5F72zorfRxs0/7kGebeBf3zfBvv1z6q56qfY+Gxdumb30H6rnmW9vH6vir3t3XI4MHBSUWffaitA9v3HEBPQlc0p/p7viRALDVwrHhqjxMXPteG36zqwK9XdQpoL1npAEM6lMsIXCNXCHBrGHiVAo0qtIDaAI+qLNmZTM175PwaJy5b3WHA78TlMig4cCkHCREH+FwOGJeuduLnL7bi6k0ePOKIa6WHmiqEVH8rNXxlPmrcVBw0RcxsRQeWXPFmpIoD83yrziSdJfNqgDaq5vWuCjHJYVBipxKSYXID2VSASpVXvb1qm9J5lKsBqTLpnngeexI5UXMJ0obUMBoI1MwQGtPqZDqQGcJBSnoIh9Jk2SG486NoGyxKLvI9zVGpR3woM4wZMxnAsi3/gPZfMt2HbfX7sfdAMw40t6GxuRUHmo+iUaQVjS1GmlvlHM9b2c9reL65FdzeLy23a4XHa6V6f23fvOaAfVZLK/a3tOJAS5sIr+O+vd5us7Xbi6+x1y44fqSt0oec576RA/ZczbHGljYcPNqOHfsO4ki7szL4MQ69FAjOl2Mr1hx24oJn2/CrlR0qq9pBp9OvV3bgNxQ6oFYSxB0KYALZgOoSAbFT2PhSMmIFeArAy1ZRveZxBSGv1+scOiisYqvbZHY+41cr+fx2aX/6Uhvu2BfCH51JTSWkvWqq4j/erqmElalunObGyg4C1ASeZtkVSchn2RVNyNc8X5s6qEC1qq8wqoRl+lHHHF8yaiwn8dJNPf3YQpXXeHoZihE27aXaq3bpnnhOmLQhQVW3KEAlizZm8jiQLogQoIfTw/j/uXsP6KquLGlYM9PZ3e52ztkYMDbGieCME7bBYBtjwDhgGxxIJuecJaISEso555yzUEARRYQESEIC5QCI6Kl/1T73SA+a7ulvZr75p79e6/S9L9338FLd2rt27X2STiiQppw8g+T6M0hoOIOUxlYcbulEbnO7eI651w6bE7wqTqG266zGqBxZfvANjkRUXDLik9IRl5iG2MQ0xCWmqpWUhjhjxfN5vsfkuWvP9Ws86pWG+MTU/mvz+n9rxSalIi45DfFJXOnqmMjP83tTB75XPza9lulvMl6PT+Y1+Dt4XX6ev2PgWup70uQ71fca36m/2/gd/G8TEpmAnv7w9z/QAK6LYP43Atgs8dBhfGSfgU8csjDNOQvTnQ3QuhCwhzBdGFeBl8yr2ZfgUucE9ADo9Hv0cYbLIbkOj3wfr8mbwXSDxT/ncwJS/b3Gb3DOxmT7DExzzsbazCpsyTkm2ymqBnLmqEfVNHxjEr6eOsgh22r8Cset0Pigxq2I4UHqqAqsZFWXI/Xi7/Vg6CulGQVUYVTWTlk3rW5AQBVLMk2g0hsiOSnB2owIyU2bEHnsFGKYkzLUNWFSsiiXMCgBKiBtQUp9C1K5GlqR2tBmrFbZwYyN64VnOlDS0oHQo43Cshz2tif/OJIbO1FcVYOIoBAkx8QiPikFkUmpiJBjCqKSUhGdlCrHyMRURCWmIjoxVd7D1/6jxWv9rfdEJ6dd85rp45jkNPlefrd8f2IKoriSrl/G9eU19fv4G7ki5TOpiEkyrpWcCn5HdFIaeH35Dj7mOZ8zvotH9Vh9Tn/eJygCdfWG//efAIj/yM3BrLy0ED96ZOJdm0x85pSFqY6ZmOqYhanO2ZjmlKUWQUsQ9wNZMR9ZcLprFqb9naVf51Gxt/oszRi8HsHINdWJ35cN1n2n6t/hlIWJ1mn41i8fW/KM5nHmqzJ4+6hqIJeB20YXDQUl6UethSXFJJnqUCuN4hSUHPobxevF56uM+FR96+FRfkK8vT7lDfCpbITUT6vrBaAEa1A1VV6WY5oReqwZ4aLyMuRVeamEu8xJT5xGvMGmCcKiikmFRRtakdjYitTGVqTVtyGtoRUZDa3IamhBdmMrMht5bEPmqRZkNp4R0Fa0dyOrsQVOJSew5VANViQUYWN0LvZHpSMwKgEJMdFIio1BTFw8IuKTEBafhHBZiQhP0Of/wDEh2ficfq9+nCjPRyQkg0uubRxNn9PfGxafiLC4RITGJiI0LkGdxyUgNC4R+rX+I58zXfz9cerfwOvpa8r3mnx3RGIyIhJT5PfIOX+bPJcsNyb3oFBk5xf0RyP/CBD+Gd5j1ny0GDtCMvDSvgx85piNKQ5ZmOKo1meOGQJegphAEjARSHLOY+bA885kZgPQJkeCUoGeoCRrqhsAQcnnpzrwBpEtN4jPHDP7v/tTxyx86pCFTw5mYrxVGuZFFmPn4TrZnJiiEodv63EspvVUglXCX/H7Mk+tUyUaw5nkYLS2SVsb66gmjOpTbriRaBesbkCQqL1NCDYBarjkpWeETQnUmFrmpS2Sk8YfbxYmZU5KNk0+0YLUky1IYZjbQHAqgLLemtmgAJl16gyyTrUh+1Q7suXYJo8zT7Uiq6lVznNPt+FIeyeOtHUgubENbkdbYFHUgE3pldgcm4e9EenwiEhAVGQM4qKikBAVjfioKMRGxSIyOg5hsfEIi01ASGwCQm+wQmLjr3uNYLvxe69/ntcMiYlXKzZePsfHwdFxsvpfM96jn+fx+tfkc8b7+D03ep3Pmf4GU7BHxCfDOzgc4XGJuNLf/P+P1az/KcDaUF0C/8R0jLVMx0f2mQKOyQ5ZmOyQCTk6ZkKAQyAZQCZ4P3NUSwONjPwZwSvPK3Ym+LiEqY33TzEAyc/zpvCpgwIov4vg5OJ3f2yfgY8PZuCTg+mYYJ2KD23TsTy5Ehb5x2WnNtZUOdNXddLQRshh23QonZDmcS0o2RXXyfgVB+1OMpxJUqIpV4ISrYMqR1Whr+SotAxWnjKA2mTUTRnynhYRScJeEZGYlzLcPT0gGp1oAZmUoW5KQ4swaFpDCzIaWoQlCc6sUy3IPtUiRwFlU5uA81BTK7KbW5HT3I5DzW041NyOnOYO47wNBWc6UNHehfL2LmQ0d8LrWAt2FzdK7XlTfCG2RWVjV2QGLMOS4RiWAK/wWARFRCEyMhIxERGIjYxAVGQUwqJiEBIdixADVNeCSAFNPxcUFdsPPtPn+DxXYGSMHPXj64/Xv87H1z/Hz9zo2qbX4uumj+U8Wn2OIPYJiYCHfwi4JQz/pwHILS71+T/z0ayirBQF+RmY6ZKO160y8NHBDHxsPwAWnn9igJgsR1BNccgWkClw8VyBjscpBjt/Ku/JwqcHB0Co3sfH2Zh8UIGS1/xEwGl8p32G5NAf2afjIzt9noFx+1Mlr96QfRS7D9dhl5GrKlFJG/Q5zGygTCOCkrS5GXmQDvBDAAAgAElEQVSqYXrg+BVtyFctbapbRlkH65UTqbJJQl9dN+0XkpibSn56RsowtBGKwsuQ93iLsGlSA/PRtv5Qlyyadeq0lGqERQWYbcgmMJsIzDZjtYvAlHu6HXnNal1z3jzwem5zB4paCNxuVHZ049DpToSeaBfWta9oxv6SRpjn1WFLRhU2JpVgU2w+tkdkYm9YChzCEuATFoPw0AjEhIUhJiwcUWGRCImIRmBUTP8iGEwfB8rjAYDK48gYBJiuiGj4c4VHyfILiwSXb1iEHPm8X7h6Tr+mj/ozPAYY15BjRLR8BwHO7xKwR6kbhDqPhX94NJw8fHH8/7E81fTmYlZWXoYTpdmwCE7BC3sIEK5MTLLP6F8EDR9TiCKIFJgz5TEZ8KOD+jmDDR3IiAS9eszPKdCrxzxXz2Vgknyfuu4k+3RMtEvDRLtMTLTjeTo+PJCOCQfSMOFAOsbuTsRU90PYlncM+wpOqAHcMtdXDd8W36+Y9I0pD4Vq6qA25kubm7iT2DlDCyHb2tR0B18a8SkmVSvbYFB1E0Kkfnq63+TAsoyovXWslZ5GrOSmDHmNvNRg0mTmpRLqso5KBm1FtoS7DGtVeEv2JGvmNpE5CcwO5DW3GccBsObzeQ1efTSAzOepHvOzZNwj7V3CugRwaVsnDp/pQFpTB6Lq2+FX2w7HqjOwLG3EzrxabEmrxMb4QmyJyoZFWArsQ+PhHRqJ0NBQRIUGIyI0FKHhkQgkUCIIkmg514AKiIhCgAFE/7BI+IdGwC80Er4h4fDpX2HwCgqFV1AIvIPC4GmcewaGyLlnEI9qqfeFwis4FD7BYfAOCYdvKFeEMCbP5Xv4XcYKIKhlRcLO1ROFpaUGo/4iE/ZN/9D/Xzg3q6yqRGVxARJTUvCBTQresiJAMmRNPJCBiXZcBE4GJh7MwESC2C4dk+wIOC6Gzwaw7QhaA/D2aQa4CUQD/GRK+azpddT1PiQw7TLAI4GpVhrG26biA1se0/CedQpetUjEl775MC88Lt0z7KLhIG49HZ/qL51KB4rqjfBXDTUTzy+N+ZKnNkqLmziTJE9lDfWk1FLFlcQc9WizlGfE5FDL0JeM2qRqp8KmFJJYLyWbnkGK5KZK4U1vaBOBSAGUIa/KR7OaWsAwl0yqQNYuNVayaP7pDhCYrLkWnO7A4TPtAjYCjqugpdNYCpj5xvOH+d7T7TjcD2ACXoE9n8+faUdhSztKWztRxry3tQv5pzuR1NCOwONtcKpuwb7SJuzIq8Pm1DJsjM3HtvB0WAbHwy0oEsGBwYgKCEJoYDACg0LgFxwOv5AIOQYEhcMvKBy+QWHwDQyFT2AovAND4B0QAi//IHj5BcKTyzcQXj6B8PQJhId3gFo89wmQ5e4TIK958X1+QfDUi9fwD+6/pk9giHwHv0u+NyQc/qHhsD3ohpSMLAEqTSO/XL2Kq1evCmAZAuulAWsaIuvn/hmOZtXV1SgsKkJ1fjLWeMfjmd3pBkBSBCDjDxAo6ZjAdYBAJsulCbAExPYZ+JDLANpEvkfYMR0ThSkVSxKEE/k5eV0xJq/F6/O6BKRaqfK97xOkNqn4wDoV79kQqGl41zoNb1ul4mWLBMwMOAyLQrqSjsNSbIXGhHzO9OXspOKTahxL/0AzVaahgZ79qJ5iym+Etyi/VH9ZS1WsGny00TDh0+xAoNKNRLugEfpqRj1xBsknTyOl/kx/GSa9vhVZjWTQFslBqewyJ80+rUPdtn6mFHAK2NoEoAUCrA4UtjDE7ZQwt7ilA1xFrSrsZejL1/ge9T71PJm14DRBzxsAWbodeafbQHEqt4m5byuymhXLHzrF39CBwjNtKDrTiYIznchu6kR0fRs8a1pgVdaM7fknsDGjUoE3LA3WgdHw9A9BkK8fQn18EOAbAB+CMiAYnv7B8CDAfAPh7hsIN+8AuHn5wdXTF67uPnD18JGjs5sXnF294OzmDWdXbzi5esq5E59384aLmw+c3X3g4ukHF37Gw1eu4+7lD3dv/35ge/gGwtM/SEBsfdBFcm/t+rp0+RKuXLkqAhNFJoL2euCaAvOfKZ81O3bsGEpKSlGSn4Gw2GiM3Z+C1y3T8L4NQZIKguZ9mzR8YJOGCTapGM9lmyogE6DZpmKCMJ8C8we26Rh/wFi2afLaBL5fPsPPqfd/aDzHa/O7ZBGYstIwziZdADrOOg3vWKfiHesUYyXj9b1JGLUjDt8EFWBP0XFxJtmISV+ZHziSRXy/pWryIMexKPXXaBw3umf6bYTSh6oshMHVyvDAsSwRNVpMIqMy9G1BHEszx+lCahWgUu3VtVKWYbIbyZ7MURnutuFQUxtymoxw9bQKaQmmw0boWiBAHABmSUsnSlo7UdrahdKWLmHEUuO5/udbu+V1Ppb3C4AJXoN9BbjqOzTL8iiilZEny+8ToYvKdCsyeJNpIiu34XAzy0dtiDnRBq9jrdhf1owteSewPqUcGyMPwTwwHo4+IfD18EGguzt83Dzg5uwOF2d3OLt6wsnFE06uXnCU5QFHVw84urjjoLObWk5usHd0hZ2jC+wd3WDv5IqDTq6w5/NObnBwcYejq6csAtrJTYFagOzuDXdPP3h6B8DSxhGePkG4eEXtVn7xwkVcunQZly+rRbDqdSPQ/rMxrlltbS3KysqQm5+H0owYrHCNwlO7szDOJhXv2pDNUjGOywAvWc4UXGQ/AbUBOIJav/6eDUNrBXb1XIq8l++XZVyX3yHfw++zITAVQN+2SsHbVsl4yyoFb1omX7Ne3ZOIkTvi8G1wIfaXqO4ZlmlsZSsLY/i2YSdU9dSTqi+Vyq/OVWl8oI1QmsWV6UH5fJugSjR0JTUj2mBU1lCp/NKJlHzitLiPWJIhWDMazojSm93EMgz/8FsMJZcMx7BU5aMMWzWDapYsbulCSataAtLWLhxp60YZj1ztHShr65DSzZG2LpS18XW+1im5qf5MSUs3ilq7UGywMtmW4TFDbJUTd4CCFVVmClsELEtGPGY2DEQHomKLms3n1b8nuaEVIXVtcKxqgXlRIzZwM+qYfGwJjMeBwGj4h8QgKDAMHl6+cHB2xQG7g7Cxtoa15X5Y7t8Hy/37YWltDStbO1gdsDfWQVgdOAgrW/XY2s4BNnaOsLV3hO1BJxxwcMYBRyfYG6A+6EzAu8LZ3RN7LG3h4OKBrh6l/J49fxZ9fedx4cIFXLxI0F6SpcFqetRMS4a9HrCmrPu/7dzs+PHjqKysREFhEfIzUhEVGYy39ydi5F4CNRlvW6fIUsxGEKnFkFSWTTre5ZLHKmQlGwrQbdLAc4Kdj/Vn37FJw9sMaa1T+68t30NgWhrLiuA0QLo/GWON9ca+ZLyxLwlv7E/GGIt4vLA9HjODCrCv+DgcSglaNZFQiUra/KCAypY3zyMn4Wv4fqn+0vPLzhl6fkO1jVAshPT5npLQV5xJUkM9jcTjreJE6g996wlUFV6qkozBqAJOFYZK7tjcLrklc8/i1g6UyOoU9iRQBXxtXSg3VpmUZzpF7S1v70B5R6eUa8rbeOyEHNs6UcbHrd0GeLv7Qc/rF7UyXGaY244CgtbIZZkvM28m6w+AtkVqvzRrpDS0issq+aQSz5TifRpJJ1vAfJzRRFjdGbgcbYVFSRM25R0Hu6D2ZNXAPacGEXlViMgqgU9CDpzDk2HvFw4bVx/stT0Ii917sW3rFmzdtFGOO3dawHz3XljstcSufVxW2Gtpgz2WNthnZYv9NgdgaW0PK5uDsLF1gN1BZ+ww3wdLGzs0tzTj6r9fRmdXJ3p7etHb24Nz587J6uvruwa4mm151CyrjzoU1keC9H9jXmtWX18P5q3FxcXIyMxGfnIYdnoEY5hFuoTEYw3wkNneskwVlnvLikeuZLxFMJMBCTw5KnBrkGsQ8vgW32NJESsZb1ql4C0DjOqogDl2f5ICpqUCKEH5xv4kvL4vGa/tTcLre5Px2r4kdb4vGaPNE/HM1lh87ncYewqPw7msUdxJrKvSpO9aqseFKgMEG8i5vYWov1XaSsiG8UaE1ygbId1JVH6j6fOlfZDeXkNMSmIN1SRH1bVTxajqj//Q6XbkkE0lf1SCkWLTdhXiGkx6pLVbWFIBj0ouwcljN6rae1DR0YPK9l5j9aCyg+c88nn1Guut14BX2Jhhco8BXBViU2SiEKVYVglQuVLHNSKBxnZkN7Ugo/GMlJwYLfDfKYA90SpdQgRtTF2rdBLF1DaBzQZJJ9skrz9YVo9teXXYlF2LrdncuKsBQRWtiK/uRGRlK/yLT8EjpwbOSYWwC0vFfq8w7LJ3xbbdlti4cTPWrV6FDWvXYNOWzdhuboGdu/Zi5+69MN+7DxZ798NinyX2WNlg49adMN+9H7UnatF38TzOnDmDtrY2dLS3o7OzE93d3ejp6cHZs2dlEbwELtmWyxS0ZFsNWM22GrD6+L8JtGanTp0C89YjZUeQk5OD5OQEpEb64nObSAyzyMBb+xWLETRktzd5NIDEI0H810cDePJaCsYaYaz+PK+hVgresCQYU4Qp+4/7kvH6PgLTWAJUBdbX9iTj1b1Jsl7Zk4RX9iZjpHkChm+Kwcfu2dhZUAe3ikaZ5+skuSpn+TbKZAaaHzw54Ez7fjVYjTxV+lCNPJUN4nQn0evLdjaqvon9glKruJHoRFLmBmVo0DVTlR+2Gcpuu9gGKRCRQXXISiYtb+1ERZsqt1QaACVIqzq6wZ3oCMqqji5UdapV2dGFys7Ogdfau1HN9xPY7d0GC3fJNRkqc3yMDq/JsgUt7VLiEYZt0oBtRxbFp36jhrJAptWr8hMBS09zgnQNnZbaMtv9WGtmvy7TBeb2vKFxUU23LjqOjdk1Mjt5R3oVnHNrEVZUj8jSRgSUNMPnSCt8SlvhcfgUnDKqYRN1CLs9wrHN2hkbtppjzcqVWL10EdatWolNm7dg6/ad2GZugZVr1mPrdnOUV5ajvasNx08ex6nGU2hqasLp06fR0tKC1tZWtN8AuOfPnxfQ6jDZFLg6RNbAJVD10qHw/wbQmvEf2h8KFxQgLT0D6XHh8PR1x5hdiXh+dxre2Jco4JHwkyFo/yKoGJaq0FRYcV8SxvY/N/Caeo8Rwhqf52cFlAYwXyNr7k0R9nxVzvk4Ga/uSRZQvrI3CS/vScJLuxNNVgLG7E7Ai+bxeHJDFN61S8emnBq4VzbKaFB3Y1o+2958jqiZvpxC6G/Sm8oJD2oEixKVxEbYb3xQHTOspdI+SOsga6iqPNOC7CbaBWluoNpLACglliISSzBUbIsNIYjgYS5KJq3gIosSkO1nFeg6ulHd2Yvqzi5Ud3XiaFeXrJpuHruNZXLe2YWjnT2olmuQjbnIvt2Q0LmV+S0B2w0tUhUStJLLqjyWTMvfzbqvsjsyh20RwYkhMWvGSQLYFiScULZKaf2rPSO+aHYbhdeoWjSnZNBDrVxezTJpwzy/VvasXc9Nt7Nq4H/4OMIKjsMvtw5uh+rglnsS7oVNcC9uhVNeE2yTK7A7OB1bHPywdtseLF+6Akvnz8PCOXOwYcMm5B/ORWPDSZSXlUtEWHOsBrW1dThx4gQYJZJ8NHDJuARuV1fXNWyrgavZlvmtZlxTttWA1Syrgfv/19GMYURDQwOOHj0qoXB2djbiE5OQEu6FrY5eGGKehjECIBV6ktUYjqqlwPSagE4Bj6BUAFRA5vsoBqnPGewoQDS9nmZLgpLvV6AU5hRwJuGlPUkYsztRgElwjt6VgFEW8RhtwWOCHEfuTMDQdZEYszcJS5PK4WJMHGQXjbtMI2QjOecnEaxGCCy+X9oJ1R+d6kdtQixZlWxyUtkIyS7J0imj/L3iSmo8oyyDrJ2KkqpUX6mVGmUYMppi1E4RjMpbOyRsHWDSLpAxqzsJxh7UdJ1FTXc3art6UNvVjbquHhzr4mN1zmNtp3r9mLyfn+kRgJOB5VoSIpNpmQMzr1VCFQHLG4eUfQhYbbKQspICLD3JIpA1npERNAQru4RYS2a+TjWcvbnCrrWqf5flLXWz47xkpapTC+DsZAKZKQc7oDZkVWNNWhXM06vhkVOL4Pw6eB+qhUvWUbhkHoVj5jEczK6FQ14T7A6fhlVGLczDsrHW3g8rtu5GfHwUaspyUZCbioLCPBQVF+HIkSMoLy9HdVU1ampqUFdXh5MnT6KxsVEYl3/f17Ntb2+vhMgatJptTQGrQWsKWA1affyfBq0Z7z68G/EfSVU4Pz8faWlpiI6MQqyfI2Zb+WKQeTZe2Zuiws89DEEJLg0w/dg47kvGq1z97zEAbYSu/c8zhDXCWAJUnROkiQLEl3Yn4KU9ijUFnAZACdLRuxIxyiIRo8wTJWcdbZGIkeaJGEng7kzE4LVReHprHL4JLYZdGV1J9PlyhpKaSMjRLNKfWtUkuar6Q1MN5DLhodakTHPitOpBJbuIjbBdhJhsbR9sohPJMDn056idEvpSSFJhL9lUiUfMS2kPrG7vFSYki5JBCby6zl4BaV13L+q6zqKuqxfHu8/ieDePxjmfk8XXCWiuXhzr7EVNZ69cS0JnCaHPoqK9xxCjVFhc2sL2uy5Vqz0zIDoxEuhXibWi3ahMHiI4nWR+qkwgLF0JWOvOSA8vR9iEHVMmEvb6UrCjE8yvqgEyXK6iESF8rqoRdiUnselQjYB2e1oVnA/VICC3Dl7Zx+CceRQOmTU4mFaNA8lVsEmrhu2heljmNGNf5gnYJpfDKfYQQhKTkZYSi8KsJBTlHpK/2aKiIhwpLRXgVlVV4VjNMYkYFds2XsO2zG1N2VbntRq0pkz790Lj/3GwMkxg2GAqNJFd4+LjERkaiCA3G0zaHYJBFpkCJIKJYSjDUZ6/zPP+x4oR+RrBp96j3veK8T4y5LVhbCJe2sWVIGvM7niMlmWAkgwqLJoguSkBOtI8HqPMEwScL+5MxAs74/HCjng8LysBL+5MwJMbozFobRTGO2dje/4x+NacQsjRZgEu/4iUAYKWQhUCkwGYgw2YHxSDqDY3mvJV54zYCMVCqFrZGD4yjKT5QLmPlGOIZRmCgmAto3uIYS9zUZ2TCki7hRU1axJ8BKoC6Fmc6D6Lkz3Xr3Py+okedazt7sHx7h4DuAR7L2q6elHVRZZVYbECrGJZlnv4u7gkhxXnlBLDtEJsWoNNN3zO0jl0kmo4c/gziDnRLPkrJ2IwGhHA1pwW11egobD7V9XLOBxGM9ytgKmICHuVjaLcE7ScA70trQpOWTXwO3QMblk1OJhxFHapVbBNqYZVSiUskyqwJ6kS2+KrsD7mKDZElWNXZB5cotMQFR+H7JRo5GUmIutQJnLz80HglpaWoqKiHEePVuPYsVoJkxlBmobJHR0dAlqKUhSkTEFL4GrQmua0N2La/ynQmvEuwzCBYYOuueYfzkdaaioio6IR5usBV7u9eN08QgBLxhuzy3TFy2MBsQA5AfIeMqPklibsuIvvjRfmHN1/HcWko4QtVTg7ele8Yk6DPQlQAae5AuILO3hM7Afn8zsS5FwBNgHPb4/Hi9tjMXxzFB5ZGY7Re5KwMKEcrtVNCK9lLyrv8qqjRrMq8yyVqzLEMzpptKgkzeKqB1X6T1lHNSyEEv4aZoeCZsNVRDFJgDqg9jIkVWKQyknJpoo9e3C8i4DrxfGecwLO+p7zOGkAtaH3HBp6z6rVcxb1vWdxsvcs5D0951DfcxbH9RJGJmDPqtC4SwlTwuIdvaI286bB2q0OiVlKYu1XRCd6jVmHpXHCaNdjj60WmzjVgumAAFbAqgbA8QbHkTbhR1U4zHnJFJr8uaqpvJ+SETkEK3cyoOVTfNkVjThYUi9MuyK1EmRahsPeWTVwSleAtU6pgmVKJfYnVmB3QgV2JZRhZ1wF1kdXYnlEhWwhuj8yA37RcUhNjEBeWiwOZWUgJycXhQUFKCktQRnz2yqCVrGtKWh1XquVZIL2RuGxKWC1cvw/BVL9PWa8q2h2ZZLOMk5JSQnIrgkJCQgMDkGgux2srPZg5M4YDDbPxBiLOIy2iBfG0zkj80ZZRi45ioBjyGrkk3yNYap8Tt5LQPIzDGn5GvNPI5wlKM3j1dqZgBe4dujjAIM+Z7Dpczvi8Nz2eDy3jSsOz22NxbPbuOLw7NZYPL4iDIPXRGCyew52FdchuI4+X8WkDNuoArOmKlMItaWQLiXdPC79qASrbnFTDiUd/rIDpj9PbW1XriIRd1gPVS1tVR29Stnt6lRs2slQl4zYi7qe3gFwCiB70djbKwA9dfYsuBp7jSPP9SJwhXkVyAn2OjItQ+NOFSIf7exWarKhGOv6rCjFRg57uMW0pKNskbqXlizLG5S4tCR3Jbu2SEsgZ0tF152WaIT//agM01TCaEVCYaOO7VulthihxZMNFKx306iiNvlS9k+bohNYn3UU3OvIPFWB1i29GgdSqmBFwCZXYl8iwVoOizgCthTbYkqwPrIcSyIqsCy0FNtCc+ASHo+46BBkJ4YjPS0JmVnZyMvLQ2FRoeS3FRUVos+Y5rbNzc2iJJuqyMxrNdNSiDI1WdwoNNaMq4H1f+Noxh/Fuwplb82u/AcdPnwY6cxdo6Lg5e8LX6f92LV7J57fEYsnLLIEsBR4CDbWOsl8mgH7ASrPEaA6v1SikPpcvISzLLu8aDAmw1dZOxIVOHcY4e32eGFLzZxy3K4A+vy2ODy/LQbPbovBiO2xAtYRW2Lx7OY4jNgUixGbYvDsphgMWR2OhxeHYJR5PObHHIE7ZyYZtVOyaniN4f/laBZjHIu0vDFXa6AKrGx5qlRD9bcFrFNq9ZfKL0NfrfxKaUYU306VnzKH7OrEse5u1HUSUL2o6x4IdcmQDb0E6Vk09Z5D81mu82g6dw7N5873ryY+J6+dQ5MAeYB563vO4UQPGZr57FnJZ491MY9lKagbVW1aKVaik+TT9Bm3slFgIH+laYLhvXia6XBqVOq31F5plDBcXEpoOiMjVhmVRBw7Izc+RivckYBGE7XvD6dvnJLNuzRY2U9MsLIWTgMLLaFc+wrqsCbrKFanVmJPaiVc0qrgkKrC4f0MhwnY+HLsjC3D9pgj2BJVis2RpVgfUYpFoZWYH1SGtcG5sA2JR2RkELLiQpGekoSMzEzk5uaggGxbUiK5LUVVDVrT8Ph6BZmgvT6f1QLU9cD9vwFSfU0z0r5mV95hqKRpZfjQoUNISEyQtil3Ty942Jpju/lWvLA9Go+bZ2MkwbSTDJgAKrFyzvyRrLhT5ZgUfoQZTUJYeSx5JsNXtcicKueMM47xeH5nPMiez22Pwws7YvG8AVBhT2FOgz15viUWBOkzm7hi8MzGaDyzIQrDTdbT66Lw4IIgPLYsFO87ZmBL7jEEn+TwMqV20qgfQ/FE6qrqj1KayI0Gcv7RMjxkTZLGeAVW9UfOP3Ya7pW3l+EvSzMUk1QdtKqrQ0QkCkJkVOalzDsJUgVUxZwEaPPZPgXO8+dw+vx5NPedx5nz5+Wcj+U5AliAq8B7SpjYYOjuc8LWdaIqd0MAS4ZlaaejB+Us7YhC3A1aFCmEadMEa8TicDKa4TObWmTMTIahhCc10Gp5RvzRHAQno1XrWMZhdMJxrDSWqF0JmGoEcOoGhabKJnBkjjdDYQ5PL2uAy5ETcC5VYD1YckI2BuPxYPFx7Mg9hpXp1diQUgmblCo4pFTCKrkSexPLsTuhDObxZQLYbdEl2BRZgo2RJVgXXozVoaVYEFyGnwLLsSIwDzZBcYiMCER6bBBSkuORkZGF3JxcIaO/B1qmhjo0JqHp0FgbLEyVYx0Wa3bVRw2y/66jGb9csyt/IO8wrLuSXQsLC5GRkYG42HgEBwfDyc0VbtY7sHPbJozeEo5Hd+YMAGtHggCLgFMAY7jK8FXllgxV5fH2BLEI8n0DACVzxgl7Mt8kOPXj57aRLQeWCm1VeCsA3azYUwC6QYOUQI3GM+sjMXx9FJ5aF4Wn1kTKenptBJ5YFob75gRg+JooTPfJg/WResRo9mhsk/KETCJk65uYA9qk7kiTflajmvIgLW6GS4k5H219YqwX66BSYFV55iyqWJbp7hLxR8JenY8aOegpzaJnz6GJ4Dx/HmcI0L7zaOE6fx6tfefQ0teHlr5zOMMloO2T9zad60Nz7zlh5PreXgE/c14RqgyVmYCl6ETA0v0kzicaJ9rodqLLiYaJTtWqd7pDAKvY1egealBGkOQGYzrjiRYBLP3S0XUtRihMVVilFQyHTUNhzl325ZaYRteTCoVPCrvqfmM2X7Bjip1UdoXHYV14Ahs5d4r5bHIl7Anc5ErsTqyARUI5zGMrsC2mGJujCNhSrI8sxprwEqwMKcLKkELMDzqC2QFlWO6XA5uASEQE+yElKgiJifFIS0+TVI8RJN17Uv6prhbdhoSlmZY5LYWo60UoHRoTtKb5rAYqj/9dINXXMSO9k+Zp0dK5KxNw1qzE4J+bi5SUFERFRcHP1w8OTi5w2rcT2zeuxOubvPCIeS5GMGxlCLojVoBGsHE9u51sSNASqJoZ1VGxZJyErwTjiG0x/aDU+eZzW3X+GYcRW7gY3sZixOYYPLvRBJgbBxiUbPr0+kg8vVYBdNiaSAxbE4FhqyPw1KoIDFsVjmErw/Hk8nA8NDcQ9/7gh+c3x2J2WBGcj55CgpQt2qQTJflks4S/DP/UtAdtgFAK8ICdsF1CYCmLtOoSDdVYlmdYmumR0opWe08YCm9DT6/ko80S6vbh9Pk+nOnrEyC29p1HW18f2vsuoq3vgjq/oI6tAl4FZAKaTNvUz7TMdRVg+T2qDMRaLeuxXZI38yaiarBsECC7qjY8dgD12xFPM3qgFbEN2Y0MhVV9mWNqGG0kSeeRikI4xJzWTBUK610JVGOEEppUbVuDlQPqCFbuGm8aCtsXH5f9h2TQnfQln5C9gSzya7EyswprUiqwN7kCNhSb4rMMc2MAACAASURBVCuwM74cO2JLsVXY9Ug/u64MLcaKkGIsCykEN/OeE3AE3/mVYYlPJg74BSM62BOJUcFITExCWno6cg7lCNMWG+GxrteyQmKaz5qWe0y9x/8Ry2qw/VePZrxD8IsZDvPHkF21q4n1KsrgFJsSExMRGhoGb29v2Ds4wGbXVpivW4QJ6+zxyI4sPLUjFc9vJeDUel7YUD82ZUaVXyq2jBEBiCKQAJRHWXES1j7LnHNzjFqboo3QlscoCXH7w9z1UWCI+/RasmcUCNCnVkf0g1QBNAJPrlAgHbo8HEOWhWHo0jA8sTAY937ri/u/98eYHXGYF1sCz+OnkcbG7dOtoo5y0BlVUXbS0FKo5iIp5VS1uqkQmDkglVa6h2j/ExVWSjSqFiriD8UkI/ylcCSMeI5h7gVhUQ1SArTjYh86L15Au7H4uOPiBXRcuID2C30CYDItP3O6z8hrJTTW6jFzWAJWiU1kV9Z1hV07eqQZXdkS2fGjzBLsiZVQWLpzVEeOjKI5xbxVtQMy2hhQhRkKt0jDA3cgYCjMMa1kVg6aC6hWijBDYVXCUR5tCYWPNIh3m4MBuMM8mZUjY7nFCXeh54iefTL/mUPwarEpuwbL06qwLakCVvHl2MVQOO4IthOsUaXYEFmKdRElWB1Gdi3G8uAiLA0qwpJAbgZegO8DjuBb/xKs8E6Fq68fEkI8ER8TjoSkRKQTtDkqp6XRgs0tVI+1wYKgJTY0y95IgNIse30e+9/FsmZUuciujMl1OGwqNjE8YFKemZmJ+Ph4yV+9PD1hZ2cPy107YL56Lqav3I7BW1MwaEe2UmIN0I0wjswxnxWWJAjVMmXJETqU3RgjghBFoeEbozF8QzSe3hiFpzdEKoBuipKwVrGnAVAjvGWYSwZ9iqufRSMwbEU4hi0nSMMwdHkohiwLwZCloRiyOASDF4Zi8M/BGLowBI/ODcAdX3jiwR/88RJBG10Kn5OnkdGiWs5KWii6KBVY1VXVHzX/uFVNVfWgSheMCVirxfDQrcozIgCpHJVCEkUkCkYMeyXc7TvXz6DtBOal8+i81GesC+i6rM7bL11A+6Xz6LhA5u1DK9lY8to+nDIEKCrGUuYxTBUE7DW5a3uvCoUN439xK40SqiGdzibVmUNzvxKaOIWRTQtp9e2SGgyAtVnyfOb7BKuqt6r9fuhmkvKNCE314slmEwXHvipmVaowhSWGwtwkzK6oXsJgDrwjWLnx9T69FUr+cWzPq8WK9Gqso9gUX449JkLTRiMUXh1ejFXCrkVYRsAGFmKxbN7NTbsP42u/I/jW+zA2e0bB18cNMUFuiI6JFqa9HrQkLJY0dWisGweYz+qGAWLHVIAyFZ/+O8NiM15YA5bhMGNz3j20UUKHw9rZFBsbi6CgILi7ucPG1hYW5jtgvnIufly8FC+s9cej23Lw9JZEjNgUJUIPgfcMWVGYkaGrXgZTkiWNkFaJQZFKGNoYjacpDpE1GdaSOdcxvI3EU2sN1jTC22GrwxWTGiEuAdrPostCMXRZKIYsCcGQxcEYvCgYgxcGY/DPQbKeWBCEQfOCMGhuIJ6YG4gHv/PFX6a44t6Z3hi5NRbfhxXDvbYJme2dKGY7WptyJ2lxiSNXNFiV71eXapQhnyEwjQrajcRckuEvFd0mCknMTxnWnjfC3gvnBYidly8ISHsuXUTP5QvoNlldly+g4xJfPy+s29Z3UfJZHRJTeCJrNxjiVX843MlwnKq0Zld6iFVPLOvC7IPlgHFVd1WuLK0Kc+IF50nRFEJlnG4m1ltNRSbFrMrcT6GJ9VZ/lm+q1P61oghX0BzBlkV2QzVKGDwgMp2UGc/MWa0OHzMBax325KtJlrvz6sAd7VdnV2NVigqFd8UcwbboUmFXCk1rCdawYqwMLRR2XRJUgMUBhVjof1g2/J7vl4/ZfoWY7lOGHz0ysM/DD2G+TogODUBMbJykfVmZWVLy0fksRVdqOUwRiY3rWVYLUDqXvRFgGQb/V1jWTMfbOhwmuzIcZmKt1WHWXukIyTXy1+joaAQE+MPV1RW2Ngew09wC29cswNL53+LdJfvx2KYUDNqShmc2RGK4ySLo+FiYcsNfh7KmwHyKOedaA5wMbVdHqrxTABqOp1aF40kBp8GeOsRleLssDIOXk0EJ0BAMXqRYdMjPBGkIBi8IxhPzg/CEAdLHfwrE4z/647Ef/PDo93549Ad/3P+1D/70kQtum+aOp1aG43PvPNiWNyC1vQsltAt2qC4XCkvsqJEQWCyFnSLgiAGikw4lZSFU6q9WfnvRzBD4XB9OUzTqByoZ8xw6Lp8XcPZcuoDeyxfVunIBvVfUec/lPgEwQdt++RzaGRb3qTCa4hNLPU2953FKzBNncbKbbid1w2DuyiYBmv+pVJe3t4tyXdrC3FWBlWUorQqzQYElHFGFG9nP2go2oifVU2hSIhMdTTSS6DCYc6sUWJvEMcbmfgKW5ghaPnW9lTshuB5pgLMx01kU4eITilkPHxM/8f7DDIVrBay78zh+tg47c+tgnlsrnT0r0quwJb4M5lLCYd7KMk4xVhOsIRqshVgSWKTAGpALgnWe72FwI++vfEowzasYy9yi4e7ujGg/N0RFRoiDLzUtFayIUIQ6cqQUYmM0QmMKUJpliRfTsJgsa+p+ul4t/s/mrsKspuxqGg7r/FWbJXiXYVxPwYlzaAMCAuDm5gYbWxvs3GWBTWuXY/38mZgxbwmeWemHhzcfwrCNiRi+PryfGZ8iO66LwnBjCSAllGUIa4hBBiApCqlFcEaIMERxSK0IDF0epsJbA6AqxA0RFiWDDhEGJUCD+wE6aF4gBs0NwuNzAvHYTwF47Ec/PPaDv4D0ke/98PAsPzz4nQ8e/Fate2Z44qYJjvjzJGc8NjcAHFuzKfsoIs+0o6inFzXdPTjR24uqzh5pAGcYrFRgdtAoYUcpwMxVrw2BKSyRDZlzCuAY2l7uA0HYS0BeuYBzVy7j/JULOH/1oqxz1wD2Ijovqdy2jeKTCFTn0Hz+nAhOEgr39Mj3qtqrunEQrKy7UhVmeYm/WbXTqflOFJm02k2RSeyHBCzz1noNViUy0Sccx5yV5ohalbPSuhl+tBnBNSpnpbWTYCWzelecAlsVmbO6ldXDtUzVV52KT4I9yNw5wabouOymwL10VRismHV3Htm1DuaHarEtpwacHb0p+xhWcIPthHJsiyjGpohSrKMqHFYiItOKEOatBGshFgUazOqfj7m+h8HNvrmp9yzvfEzxLMHXrlkwd/ZGiKcdQoK8EB4ZicQE5rNpyMvNk+oIRVeSF1mWvgSdy+oyj3ZA3QiwGrT/WYY14wUIVjKsaTjMeJw/gHcP/igWj5l0U3Di3SYpKUkA6+fnBxcXF9ja2MLc3AIbN2zAuoXf4afZM/DO3G0YtCYWj2w6hCfXxuCp1eFK/BFQUggy8ksBZxgknCVbrlLMOWxlBJ5aqZhTh7XMPZ8kOJeHGfknwckcNBRDFpJFGeaGYMgCFeo+sSAQTxgAFZAKQAlSAtQfBOgjsxVIH/rOT4H0Gx888LU37v/SC/d/4YUHvvDCPdPdcdP7B/G7d+1x9wwPPL82Et8FFMCp+hQyenpQaeSfNCqwlkoPMDtp6N3VIbCuqYqwRPXWKNEQZAqsfei8rMJehr7nrlxC39XLOP/LJVy4ehl9v1zC+asXcP7KJZwVxmV4fFFyWxGdJBzWddg+MVRoZZjuJjFidPWISaKS4XC/BdHoszUM/gPdOB3STaS8wgRrC9JlkkSbapszXF5k1rh+J5Pqb6WbiaNcGQYTrAFV9bK/rQLrSekr9pBaK8HaABeCtViFwQekfFMLK+4CePiE7LHLDccUWGsFrFsPHcO27BrZoYEN7yszj2JNYjm2hJdgQxhLOKVQqjDz1mIB7OKAAiz0z8cC/3zM8zuMOb6HwQ2/9eben3sW4RO3IixxioC7sy3CfJwRFh6OmNhYpKSk9pd6GGXqXJaKMQVZ6jzaTEGW/UfD4v8TljVjDG0KWN4RuHT+alrOoTqm669UiJOTkwWw/v7+imFtbLBr1y5s3LwZq5b+jKWzP8X072Zh9AIrPLomCY+tz8QwE4ZkeCkCEEspFIJEDAoTQYiKLQUhEYaWEZhhGLKUi/lnsICT4a0AdGEQJMRlePtzEJ6YH4hB81Ue+vjcQDw+J0BY9NEfA/CohLr+ePh7f2FRYdJvffEAATrTBw98NQDS+2d44v7PPXDvdHfcO80d90x1w91TXPGn9w/i316xxB/G2eGhWT54wzwBy+LLENDQgsPnz6JOGI5sqXJHOpXqDFZlHbTRqKs2G0zY1kexiKDrQ/elC2CYy5CXoCRYL/1yFZd/uSpHAvbc1YsCZJ3Lkl0pSLVdUHVYloAYCp8+S3dTL+rFgKFUYd442ANLsKqJE9ogoSZL0BzBfleOolE+YY5RbUXGqTMKrJwg0diOxP4eVzVJQ4XBapd3ApUWTvYJs+NJbZfJMFj1E3uWn4RHRb0YI2g7pMDUz6wlJ6XWqso3x2UrFG6JsufwMTBf5Q4M5jnHsI0r+xi2ZdVgc1aNbFq2is6n5EpsjCjC+tCia0UmsivzVr9C/Ox/WIHVj8yah++989Sm3x45+MojHx+7leJrpzRYOjgi2N0GgQH+iIiIEvutFqBIWhRfdS5LQmMuy/RRh8V/i2U15rT49I8CVsCqP6wZlvkr7wza3cQfoAUnKmPXA5Y12MDAQAGs3QE77Nm9B5s2b8bK1auwbO63mPfVJEz6dj5GLHDGI6tT8eiadDy5PFIx5DLNlOHG49B+UA5lzinCUCgGLw4VYUiBMwRDRCDSIW4gBhOgwqCBeGKOEeZKHmqw6A/+eGS2Px6ZZbDot74Gi/riga8VSAWoX3iCIL3vcw/cN93DAKkr7pniirs+dcHdn7jgro9dcOcnzrhlwkH86mVLmL2wHzeNc8DDP/hjnGUK1iRVIKixBSWXzqP+0kW0XWSOeRGdFy6IAkwTBFVg1kcZBlPRZSlGwHqZYFWsytD3wi+XBKiX//0XOV745TLO/aLBqsBNxbj9kgFW45qStxKsUipSZn/WXMn6BGsFSzgdasIEw2COmGHeTbFMgVUNV5PGdI57aTptgLVV9ttROatyMtGeSSdTv8Ak/a0KrCpfNXLWCtWm6KWNEVJnNQXrcdiVKGNEP1gPUxEmWMmsddidQ4FpAKzcVJv79W7MPCobba80rIrr6WYKLsKKUEMRlhJOIRb5F2KBgDVfmPVHn3x875WPWV65+NaTG4TnYqbbIUx2K8Fk53yss/OEr8N+BPq4IzgkFDExMUhJTkZWVpZUSVjmIcsy8qT4pMNiirRaLdY1WUauXNeLT/8wWHX8THbVDEuwkl1N81dTwYmA5V2FDifNsBSdCFgPD3fY29tj79692LZtG9auXYfFixbh5++mYub08Rj39XwMn+eAh1ck4ZFVqXhiaTiGClOGYMiiUAyhGLQoBE8Y4awIQj8rxhSALgiCCm2DDXCSQRU4H//REIoEpCZh7ix/PPydHx7+zhcPMBcVFvUWkN7/lZcR7nrivhkeuHeGO+6b5oZ7p7rjns/ccPdnrrj7Uxfc9Ykz7uD62Bl3THLC7R864vbxDrhtvBNu/cABfxhrC7Nn98JsxB78fqwtHpjpjbfME7EophQedc3Iu3AO9b9cROeVi7h49RIuXb0s7KnqpWThPrRJvnoRvZf6RFSSPPWXC7j4yxVcvnpVVt9VhsIX5bM9V/qMMPiC3BCYt1JgYs2VJgkqzmwIYPitclZldWSzOtvnlDlC56y61toODhCXiYycJdWkZjNp2yF3vhtgVgOshu1Qum9Yvqk1um9qCFKGwgyD2X3TIPOvRA2m5bC8UbbdpMBkyqwMg6V0c5gzoY9jf36dgHWX5Ky12Clg5bafNSBYN2XVyP696zOPYm1GDVZmVYm3eE1oMVYFF2FZSBGWBBVhcWCh1FsX+Odhvl8e5voW4AcBax5meeXgO89czPQwNgZ3zcZU1wKMdynGPPsQuNrvQ6C7IwI59DwqCkmJSVLOZJWEWo6uy5oaKXRN9h9h2H8EsGYarJpdNWB5B9AMq+uvN2JYhgMUnVJTU+WuExISIsYJRwcHWFlZYae5ueSxy1eswPx5P2HuVx9j5tQP8e6MHzFitiUeXRyLh5ZlYNCiGBXKGmIQFdvBBCZVW1FumXuq0HbQnEAMmhOEx4zw9rEfA5RIJEKRCnHJogxxH6JYJLmoLx6cSYB6G6GuN+77wlOtzz1xr7Com4S6AlKDSQlSMukdHznh9kmOuGMiQeqI2z5wwC3vO+AvXOMO4pZ37PCXtw7gz2Pt8NvRVjAbagGzoTvx61H7ccdHzhixNAwz3A7BIu8YYukbvnIJLbiCPlzBL7gK4BcAVwBcxZV/v4KzhpAk4PzlkuSrPO+j0HTlkjB172VVe2U9ljkvwcp6LcNgWhAJ1v6claE4lWlpUjcJg41ZUCUyClXZDlm6oRpMwApYOapUPMJnRA3m+FUyKw390ogukyPOyFwm5Q8mWE8hmDlrdZO0I2o1eEBgMgmDCVbuncvJlMxbi7hd5zFYCVhPKDVY56w5BCsFpmP9YN2YeQwbMmuwPrMGazKOYnVaJVZmVgtgV4UUYXkgnUw0RxRiUUABfvbPF0WYOetPPvn40TsPs7xz8Z1XnmJW91x8LZuD52C6aw7Gu5Tgy4OJsLaxhK+TFbx9fcQgFBcXL3/31HBIXBSfGBZTkNVq8fV5LEmQuKJGpAmSRx0S8/i3gHsNWDVgdTisBafrGdY0JNaiky7rxMXFiXHCx8cHzs7OsLW1xe7du7F1y1asXr0aixYtxpyfvsesGeMx45N3MO6zL/HcV5vw2Bw/PLgkHY8sSsLj84IxaG4AWPuUfHNOgKi3j2tx6AeWWQLwCENbikSzffHILH88NMsXDwlAGeL6Kgb9xmDQr73wgAhGHirMJYvqfHSqO+5mPkom1SCd7KJYlCD9yBG3f+ikmPQDR9zyPpcD/vLeQfzlHTv8+S07/PnNA/jzG7b48+u2+PNrtvjTq9b440uW+NWze2D26A6Y3b8VZk9a4Hdv2OK+Lz0xZn0UvvXOg1XRCQQ1nEZcSytyzl1AxWWgRSZh8v8I4Ku4+O+XBLxUghWIVajMGizLPDRIkJmVOcJQgw0nU73Rfne8hyFwrxgjaNQQNVjCYM5pUqNnpHRj9LeKKULAqiyHmcxZWbox5jIxZ5U66wk2orf0t8qxgV828zraJGqwAqsSmK5Vg9nXqja0di45CSdj/9wDYjnkBtgGWAuOy/YorLPuIbPmHDPAWiP79AqzZtZgY2YN1mVWY01GNValV4ifeEXmUaxOqcSKoCIsDSjA4sACwxxx2GDWfAEr81aC9VuvPMz0yMFMt1x85XIIX7gewnQ3bvydjQnOxbKj4Q4rG3jZW8DTyxPBISFgREmxlRGmKvEc6W/BYx57o/KOKWCvD4k1WG80oE3AqtlVHzW7Ev28CzDm1v5hKsQ6JCblMyQmYNnBQMAyAafTKTw8HBSe3N3dYWdnh/3792P79u1Yt24tli1bhnkL5mP27Fn4dtoEfPHh6xj/0ccYOXUphnxrhwfnReG+Bal4aG4UNGuyBqrqoASnn5F7EqBkT19ZLLc88I0Six4kg37phfsIUC6KRX+Vi1I0YrjrirumuOCuySoXvfNjZ9z5kQp37xCQOuK28Y64xWDTWwSk9viLBunYA7iZQH3NRoH0ZUvcNMYKfxhljd+NslRrtCV+/cI+xbgPbIXZg1thNswCv3/bHrd+4opHZzrg7fUOmO3igy3JaXCubkBy11UcvwJcAoHLRca9ICLUgDGiT+yHrSIu0XZIVmVHzjmc6mWfq7IcSp3VKCURrNVi6O9GWXu7lJw4VE1bDvW+ORyn2l+6kQ2eaTlsl5xVBCZjBz2xG9a19Hfe6AFq2hQxULoZmBghrXJl2m6oWuVU540hMBXWwlryVVVn5X5Gus5KU8R2YdZabDXEJQErWTVdgXVlWhWWpVaDgF2TXGm4mJQ5gsy6wC8P83wLjPINw2CKTLn4xlOB9WuXHHzhmoPpbodkw/Dp3NjbuQATHHKxzvIg3G13wMPDBQGBQYiMiBTA0uXHsNg0j72R8GSqFGuG1aDVYL0RuwpYNYr5Rv3mvwdYql1aJdZlHW2c4N2FyTfvNrzrsFvHy8tLWNbGxkZYdtvWrVi7Zi2WLl2KefPmY/as7/HN559ixqRXMWn8G3j9oy8wfPp6PPatC+77MQr3zknC/T9E4iGypwHMh4w66ED+6Q3JP/vVXE/czzB3hofKRad74B5D0SU4+xn0U2fJR+/82EkB9CNn3M5Qd4IDbp/AcNdJWFSY1Ah3//z2Adz85gHcbID05tdt8afXbPDHV6xw0xhL/H60JX4/istqAKwGaH+rwTvKEr96bi/MhljA7LGdMHvYHGaPrcftzy/FsAmL8ObcVfhs9z78HBKNfUV1SOy4gkZGyxIyX8W5Xy6hjcKSmPy1IUKVg7SDiXZDna8SrGxIr2FvaydNEb0o7yCrDoCVLX6FnMvUb4owhoDL9H5u/qya0JUpgsxKU4TyBmtTRAQnRsi0Q4NZJWelg6ledpSn3VDnrNLTeuQkODLWka1xVIKLlTdYHEyGuKQ3H2POKqYIqbMqNVjAmqly1nUEJsGaVokVaVVYnlqFJSlVWJFZhZWJFVjsdxiL/A+LOWK+v8pZWWv90csAq3cuvvE4hJluOZjpSrAewjRXMis3Ac/GdMdMTHQ+jHcdCrB4vzOc92+Bm7MDfHx9hZwYVXJ+GUmLeSyFWJKZqfCkbYokv+sZ1hSwGocamwRvP7OaIplv1PH03wqJNWB1HZZFYgKWcTvjd8bxzGNpTwwNDQXrsTRQUHyytLTEjh07sHHjRqxatQqLGRrPmYNvv/sOX34xHTM+HofJ74/GuPfexOgJMzD009V46EsH3P1dKO74Ph53zYrC/d8E4sGvFHsKSL8geyoGpZKrSi5Kzb33MyUWmYL0zskUjZiLOks+StGILHoHASosaoS7ZNF37XHLO/YS7gpI32DIewA3v26DmxnuvmyNm16ywk2jrfC70ZYwBWQ/s5qA9EbPEdy/ftEaZs/Yw2yYNX7z1BbcO2o+nv/wJ7z703JM32uN5TEpcDnWgsPngN5/VyHyhauXjDyVva/MU1WfK73Hqq6rZjWxxnrMGPcy0NdqbMVhjHlRY0rZn6sEJobCAxMjuBn0wMQIeoO5w7u2G3KLEdV1o8CqjPxsQKeLiT2t9eDeQpzF5MHSjdHTyiHszsbmYfYlzFdPwKaA9VUVBtMUwUVmvQash45JGLwlq1bKNlSD12XV9DMr2+pWpFZjaUoFFiZXgCrxqrgy/Ox9WEo382mM8FPGiB+9lRqsmJVqcC5m9ofBh/A5AeucLZuCf+aYgUmOuXj7YBHm7fOA495NcHE4AB8fP/k75987AUsdRwtP1wNWl3bIsKaA1QSpSVMDVmPzGrBqFOs3mwJWC068OO8KuqxDhiVgmVAzsaaXmHcU/lDeYdgPy/EwdDxRLdYsy1yWijFD4w0bNmDFypVYuHAhfvrpJ8yaNQszvvwCU6dMwpTxr2LS2y/inXfGYvR7U/DUhz/j0U8tcM/nnrj9qwjcPjMWd34dhnu+8Me9FIqEPd2VmjvVTUoudzPEZdllsrOUXBjm3vGxkwCVLHoHld0JDrjtfUfc+r4hHBkg/cvbdvjz23YGk9ri5tcNkL5mjT++YombXrLEH/4Ok94ImH//uf343aj9+LcXDsDsGQeYPWOL343YjPtG/YznJy3Cu0u24js3P1iWViK19yJOXyXdXhHhieUaloWUL1irwGrUC9vzaH2kUYNWSCrBasSLCn+Zrxa0dsqGWVpc4vYa/WBtJFi5r48aTSotchzVekIb+dkidwoRtarGygZ0zhDmFEmOfWXXDcUl7ofrXn4SbqYtcsVsQD9xTdcNt+4UI39+HcisyhusdrvfYTDr1uyj2GyISxsI1kwDrGnlWJlWiWVpVViaWoFFyZVYmFyJVVnVWB5RivneuVDM+jfA6p6DmRIGM2dVYJ3mlIXPHPVm4ZmY6JCNsQ6F+H6fFw5YrIfLQVt4eHlJJBkTQxNFihAWBVjNsNpAwTSSDKvNE8QU8cWQ+EbsekOw6id51IDlUSNe57C8uG6r08Z/WhNZY+IPYs2JtSeyLDt2yLK82/Cuw1yWNkVPT084OTmJALVnzx4F2vXrsXLlSixevBhz587F97O/x8yZX+Pz6Z9j6qcf4dMPXsfHb72Id98cjZfeHocR477A4AnL8ODH5rhrihNunxaIWz6Pwq2fh+P2qQG4c4oX7prsijs/cYHOQ28ng07kIkAVi972gQKpCEYMdd+1x1/ethfR6Npw1xo3v8pwl0xKkFqpcHfkX4e7fx+QRh57Hdv+drTx/Mj9+O0oBdrfjrTEvzxvA7Ph9jB72hq/fWo97h29DE9N3YE3NnpjUWwJQs9cQM2FX3D56iX0Xrog3TY071NU+qt+1k7ulN6LKg4bb+2Q+iqBSn+z6melCkwTf4cMTlPtcWq0S0Z9m9gNudeNUoK5oTS3GGmRLTU0s8retjKStBGBsvvBKfEFX9vPqnb2U/2squvGrvg4uAOgdVEdrAq4jmMfWZVgFV8wDRG1YjMUNTirBltYtjFKN+syjmJNWjWYr65MrcLytEosSakUsP6cVIEFKeVYnVGFJUGFmOeVi7l+BfjJT7mYvmPpRtTgQ/ja/RCuzVnJrFnCrFMcszHZMQuf2Kfjw4NZeMOhGDP3eMHGfA0cDljCzd1DSInlHZqGKDwx0mSpU7fc6Vrs9QyrAUu8adzxSDzyf9cwqylY9bkGrSlgNcuSxsmw2pqoSzuM0RkWk2X5I8myHFpFlmVfLHNZBzt1SAAAIABJREFUlngYGnt4eMDBwQHW1tYqn922rT88XrJkKebPn48ff/gR3377LWbM+AJTp07H5E8+wkfj38TEt1/A+68NxxuvvIhRr76F4W98hkHvzsGDH6zD3eN34baJjrjl0wD84T133PSeJ26fEo5bJ/nitgkeuHW8C27R+agGqJRfqOza4eaxdriZoe4bKh9V4S6Z1EqBdCSBpUGqQPufAejf+sxvR1njNyNt8KuRtviXF+xg9rwDzJ51gNnTTjAb6gyzR/bhXwetwwPvbMPYtW5YFJMPn4ZzqDl/BX2XL0opp7ZbWR9ZrmH3D2dAqQaEHtkRQKnA3eAudtzzVQz8xvQLjiXlnKl+q2EDm8/bZCQrx7owBJYZTFK24aQI05GkNEQ0G5Mi6As+JYPVCVYaIjhwnVZD1yOcFEGgqn5WO5kUUaf6WQtUjXUArCoMZtlmO62GDIMN9xLLNmTW1ZkUl6oUWCVnrZQwmMy6KLkCcxPLsDCtSmYWL/DLxxzvPAOsuZjdD9YczHTPEbB+SYHJ9RA+d8nGNOdsTBNmzcRkh2x8bM+NwdPwoX0WXrMvwsxd7rDZvhr2tpZwdXMXQmI0Se2GGo4GLDGha7HEy/WA1WWdGzHsPwxWjXRehEsD1lQpNs1jGRazB1CrxVTI+IMZy1MxZmjMuw9B6+vrK6oxQUsRiuExc9pNmzZjzZo1oh6rEHkOZs+ejZkzv8EXM77E1KlT8cknkzFxwnh8OG4sPhj7At55dRjeGPMUxox5Hs+/+hYeGToKQ9+ZjSe/sMQtY5bhlrct8Od3D+Dm91xw8/ve+NP7/vjTe4H447hA/PEdX9z0jg/++KY7/jTWBX983RF/etUeN71yAH942Ra/l5zUBr8bZY3fv2iF3420xG9GqRz1t6OsoBYf63Me+dgavxllg9+OtsVvRh/Ar0fb49ejHfCr0U74t1Eu+NdRLviXUa4wG+mKfx3pin8b6YRfjzqI3422xU1j9uHWVyxw99htePid9Xhy/Gq8OHk53vxyGT6YvQIffLMQH34xC5/OXYyPdzhiXmQB/BrO4VjfZfRe7JNRL2woUHOE6VlmtxBb/VSjPOursjlz/4R+ZeLnjKlMY1tIDonjdiEpjW1IbBgYmMZ8lTOruCcQWVV12xiGCGk8V1ZDNYPplOzex93m3TgpQso2alCaY7HRy9oPVpoiCFajl1XXWNlxIzXWGrEaKkOEqrESrKsyqwywKoFpWeoAsxKsPyeV4aeEcizJqMbK+DLM8cxTpRvDwUQX0zeeufjGTdVZRWByy8J0lyxMc85SYHXIwmSHLAHrJLs0TLLLwAd2mXjZvhDf7HSC1dZlOGBjCRdXV6mGRERECEFphmW0SYb9W4AlnjTDEmeaLHn8u2C9PofVHyTLMiTWYTG/QNdiTcNi1mOpFpvmsjRBm4bGGrRahCLTMjw+cOCAlHssLCywdetWrF+/XsQoln1+/vlnEaRmz5qFmTNnYsaMGZg2bSomT/4UkyZNwvgPP8C4997Cy0PvxgfjxmBHXhmmrFiBe279FR4bNhgPD38eDwx/FfcNfxd3P/sJ7nzha9z64o+4ZeRi/HnUGtw8ehP+NGYn/jBmH34/2lpA8xsCbIwbfjPGBb95icsDv3mZy9M46sfG8SUX/HaMM379kit+O8ZBgEqwMh/9/cjduGnkdvxx1Bb8ZdQa3DZqGe4cswj3vfwTHnl1Np544xs89fYMPPf+Zxg98TOMnTwV702fgokzp+HT2V/gsx9nYtq87zF1/lx8Nm8hPvt5OabMW4ops+bgk/lL8Ym5E5YkliHwVB9OnL+IjgvnZaxLBRvO2drHLTWMzZolBBZW7RzYw1WmG5JV1XA4XV9lvspd5URconlfQuAziDa20aAKrKdEBJrmq9VqJwTOX5LZweWNMjvYtfSktMdxwiG36mSNVXXcMAQ+YYC1VsJgbeLfoa2GwqzHsImsyq4bg1lXkllTq7AitUpyVh0GL0ouF7DOTSzHDwnlWJVZjaXhJfjeIxc/eOdjthdNEbn4jnZDhsGiBudgGuusLlmY7kSBKRtTHAnWTHxsn45JdumYaJeBD23T8N6BTLxsV4Bvtttj/+ZlsLbaLw0ufn7+CI8I72dY/u0TsGRY3Rt7I4a9HrCMdP8uWHUorI8arDyaApYXZh5rGhaTZfkj2I3ArgSdy9LhoQUo1qQYIlA11qAl07I+y5yWpgqqx3RC0VhBMWrz5s1Yt24dVqxYIbntggUL8OOPP4ooReB++eXXmPrZFIx/5Xl8tWwVtlafxec7D2DYsKF4dtSLGD5yBJ5+bgiGDX8YTz55LwYPvguDn7gHjz1xFx4ZdC8eevx+3P/4I7jv8cG45/FhuOuJZ3HHoBdwx6BRuG3w67ht0Ku4ddDruGXo+7hlyPu4dch43DaE5+Nwy5D3cMuQD3Dr0Am49Yk31fuHvIk7h76Gu4aOwb3DXsKDT43Ew0+PxKPDn8UTzz6LYSNH4KlRT2PEmBF44dVnMfrNF/DSu2Pw8nuv45UJb+HVSePx+kefYOzkaXhr2pd4d8ZMvPfVLHzw7Q+Y+P0cfPLDz/h07lJMXrgC05asxrRFyzDtx/mYumwjptoGYl12LaLPnEfjWdZfz0qzOUfPsK7KUs1AuaZTtcU1682WaYZoV5MNOSytniEwe1hPy1aPOgTmlph69pICq5obTDOEbjznFH7pY5Wmc+7q1yBgdeMoUhGX1EgX2gytC2uVGswpEfnMV49htyjBqpeVbXFsj2PXDfPVjVlHsTGTYK0WAK5KrxZDBMe/UFxakkKBiYpwORYklWNuYgV+iC/D3KQKrMmowhw2onvkSudNf51VHEzKFCGlG5dsAetnjpkDYLVLxyR7BdYJtun40CYF79hmYvSBIny/dT8sNy+RKNHF1UXSPc2wrMXqkJgMqwF7vdOJ4fD1gP0/Auv1oNV57I3CYipdprmsLvEQtLrMo/NZgpYiFMNj5rQ0S4eFhUmiTicUSz6abVn2IXAZJmvgrly1EkuXLsPCRYvw0+xv8N1nE7HQ3hNbai5g6sotGDH0Cbz69jt47b3xeOmdcRj1xli88OpreP6VVzDi5ZcwfNQYDB85Ek+/8ByGjngGQ4Y/icFPP4HBwx7HoKEP47Eh9+PRJ+7BI4/fjocfvxMPPXYnHn7kVjz4yK146GF1fODhv+DBh/+CB/TjR27HA4/cgQcfvgMPPno3Hh70AB4b8jAeGzYIjz89FI8/MwyDn3sWQ0eOxNCRozBs9MsY/tKreOa1N/Dsm2/hxbffx8hxH2LMBxPwysSP8cbH0/DmlM/x9udfY9wX3+GDr3/Ah7N/wkc/LMCnc5bg0/lLMXXRSsxYuhZfrNiAL5asxBfzl2D6Ogt86R6L3aVncKiDjQRnZU8c2R2dO8q1qg2q9ER+5qpKAebY1RZkyVRDGiFaZad3Va7RrEphSZkhOM5lYCI/JxuqifzcsNpPVGDdx6om8qthafUyN5jzl+yK62XXeutCNp2zdMMwWLGqOJdya2GRUyfi0vZDNdiWRbCqsg1z1rVk1vRKrEqvxMrUaqmxLk2txGJRghkCa7CWY058GWbFlmFRehVW8Nwtp98brE0RX7nkYIYLTRHKwSSlG6csTGEYfDALH9ul4yMBazoI1gk2qXjfJgWvH8jBGOtczNuwHfs3LZHd3p2dnK8BrM5hTVVi044d6kCMVjVgiS9i7b8EVs2wvBgXw2LNsjo0JmB1LkuW5Y/S+SxVY9ZmCVo6oGioIGgpRFFJY5GZSbpmW5Z9CFzmtiz9XAPcbVuxceVirFr4E9ZGZWF9RQ+mLViKt954BR9On4HxUz/HuE8+wzsffYK3PvwIr4//EK+9Px6vvvs+Xnr7/2PvvcKrPK9t4etzbv6rU/ZOdhL3Qm+m9947iCqEUEFIiCaKJBAIgQoSkkBCohf1gnpb6r2XpS4herOdYidxqhMy/mfM93uXlomdbTu2k5PYz7OywLHBSGt8c84xxhxzHsYTINNnYszU6Rg9aQpGTpyE4ZMmYej4CXh37BgMGTsW74wejbdGqYr45shReH34CLw2bAReHToCrw4bgdeG8jUMrw4bhleGDcUrQ4fhJ3wNGSHv/GdeHTESr40ciTfGjMHb48bj7XET8M74SRg6aSqGTZmGUTNmYdTsuRgzZwHGz1uCiYuWClinr1iHmWsI1q2YJ2B1xNIdzljm6IrVznux1nU/1u85hI37PbHRwxtbPH1g530KtgePwpZ/L/AinLObcfPBr9DzMfOKfyXh3toAQblGbt3IrVZ1d5a5S1w2Fy/w4w9RYlzUK5AtG7LAP0WO3LqhtqolGwJVXZMXoPaqy33xnVb6qgSlqRZYZy9RX41sIUCpr96T1ThJiGgaEJthkICVTLCeV7kax3m1X1pgr0rKNj0i2bAFpiHCWrbhvOpW0g2Xoi64FHbBqaAT9vkd4iF2v92CbTdqlINJ2uA6bLlei03X62BzvVpe66mzGmBdxTZYKms5lkVVYckFBdZ5rK4RpZgaWY/JYZXY5+2FEN+DCDt3XrpEEqpUQ1iQOMNayzramsgKq2NP2a1qwulrg/VvVVg9x/I30q2xrrLWrTHpa63NkoTShgoyx5qIYstAvYr2RTLI/IMy/0lY5JhbuH7tugHcKFw444fgID8Rxg83vQ9bt31Yt34dNrm4YYPDTqzf7oDV2+ywarMtlm3cjEXrN2DhWhssWLkO81asFgDPWLgMMxYuwdT5CzF57jxMmDUX782cjbGsxNNmSDUePXkaRk6aghGTJmPEhMkYNmEShoybgCFjx2Po2PHy/s5YgvA9vDXuPbw9dhzeGjsWb44ehzfHvIc3x/B9nAD1nfcm410CdeIUDJ8yHcOnE6hzBKjvzVuECQuWYOLi5Zi8bC2mr7TBzLWbMGfDVszbysrqiCX2BOsurN65D+tcD2DdnoOwOeCJDR7esD1yHHZep2F3PBDbjwfA7uBR2HmewpbodBytf4jCD2mW+BU6PvwIOgCOd3tEW2UKP+2FNEHIsvlPUWZJ4ldRLnk6HUKOKhOoJJaeI73vKVJ71MK5JBr2PEV811PEs/Xl+YzOx2D7y3n1SttjYYKjOa+2qHlVJJvP2AwHEEKgCrk0oGyGNayq3La5awVWVVmprx4s64OHuJe6sa+kVzRWVlbX4m7sLO4UsDoXdGJ7bgd2lXTDq7QHO2LqsP0WV+QaYHujFluu1WLTDbLBrKy1sOHMSrBStrlUhRXRlVgeXYllFyqwOLICiyLKseB8OeZFlGHuuWJMjGjE9JBCeB7Zj2A/T5yLiJDPKz+7WdnZUoxYmPh5p8zJbpN4YEHT63Xa5cQCyGL4tSrry2DVsyzRr1tj/gZ88cnAKmttpKAgzCcI/8MIWj5VyByz0uqZluwxnzy6RdbVlrOtAm4WUm4TuAlIv3ERl2NicLjlOTwqB+B+0BM73dyxy/M4nD2OwGHfQdjvOYBtu/fAdpc7trjsxgYHZ6y3d8IaO3us2mqHFZtssdRmExav24BF62wwf806zF25GnOWr8SspSsxY/EyTFu0BNMWLcbkBQsxaf5CTJy3AOPZVs+Zh3Gz5mLczFkC7DHTZmL09JkYNW0WRk2dgZFTZ2D4lGkYPmk6hk2eiqGTp0glVdV0OkZMn4WRM2Zj9Kx5GDtnPsbx115IoC7FpKWrMGWlqqqzbTZj7iY7zLfdgcV2Tljm4ILlTm4CVhJM6zi3HvDEpoNHseWID7Z5+cHumD/sTgTA4WQwHHyC4HDoBGz9I+GUXofLdz6Cmacnf/GRgJRSjdxmfapyk+VcBgFrIZU+VPdZ732gtFUB6lOo+6zPwWPKt3mXtUetxan40WdihJAkfh6lknSIh7jG3CUjykXCvRnqLdqq1lfvWswQwVw4rx8Y1Fdr7uAkzftSWftwrJIG/n4cKe9WZgiSS2W92FdCsPbAnfNqUbfMqc5FnXAu7IRjQRcc8zthm2fGwape7MtsxZarNcaKnAFWkW5qYEPpRggm1QYLWKOq1Mx6oQKL+CLJFFGGeefLMPtcKWaHFWFcZDPm+6fAx2MXAk+fwHmjwpKTYcfIQqSdTl8EWO1yIpb+LrD+LdDqtti60vI3JmhZaVnqP6891jMt2TL+AXSLTBaNjij2+5xti0tKUGwyoSonFTdy8rGv6QMcKOnFUZ659zmJwwGhOOQXhAMnTmPvsZNw9zqOXUeOYechLwGw4z4P7NizH3YEsKs7tuzcjY2OLrCxd8JaOwessd2BVVsUiJdt3IqlGzZj8XoF5AVr1mMuW+pVazF35VrMXrEGs5avxoylKzFt8XJMZeu6cAkmL1yCSQsWY+KCxRg/fxHGz12I9+YuEECOnT0fo2fPwahZczBm9gKMmTsfrKbjF3BOJUhXYPKy1Zi6Yi2mG+TSnI3bMG+LPRZuc8AS+51Y7uCKlc4kmPZh3e6DsNl3GBsPeGHTQW9skcqqwLr9RAB2+AbB0S8UzqfD4eR9CjuOnsa2yxnwaXyMovcZRs4K+zNU8kSIBKMpXZVJhooBNnzAFhPEh5IRTC+wrqpyPa5PzauJvTrYe3BWlarKFpjpEBKSxlMZKis4UtbiuBo3mA7BhIiz9AM3KDOEMu9TXx3ASXEu9cOnqg8+lXdwtLzf0gJTsjlQOjiv7pF5tRsuxd1wLuoywNoBh4JO2OW3w8HUgSPlvdgRQ8mGTHA9tsjMWotNorFWS1UlwbTmcjVWXqrGCrbBURVYGlWJxQRrRDnms6oaYJ0VVoIZYSUYHdGCVScu4rTHTgT6B+D8+QgZ5ZKTU4SboVmIn2uqJOwuWWGtTRN6F5ZF7xsBK0Grq6ueY3WF1aDlk4FtsZ5l+R+hQasrLV1QeqYlS0bJhy2yqrZdaGe1bWtFfVMDmhtq0FVXhptlDXCuf46DRR0IOR+NwLAo+EVdhW/4RZwIjYJ38Dl4BYTiyOmzcj3bw9cf+4+fwp5jvtjjfQJuR3yw6/BR7Dx4BI4HDsFh3yFs37MP21x3w9ZlNzYTxE67sMnRBet3OGLtdkes2b4Dq7bZY8XWbVi+eRuWbbbD0k22WLJxKxZt2IJF6zdj/jobzFu7HnPWrMfs1eswc9U6zFq5DtMJvuVrMHXZKkxeugKTlizHhMXLBKATFy/DpCUrMWXZGkxbuR7TVtvInKorqgKqIxbZOWHpDhescN6N1S57sNbtANYKG+yFDR6eQjBtPXICdt6nsd1HAdXB74wC66lz2BkQAWe/EDh7nYRd8FW4FpgR/+Bj2b5pef/nci2v7MnPJHKUQC168CF4TkRZC3nm0SCVeD7TalalvZAnMxjjQrAmdD+VkxlMM5QUfrbAEuNCeyFbYMUCR7Yw0fCuhKSpHVZlMZRNm3oj0bBuQMwQfjVq4VzZDNW8Ks4lssA08EsLTH1VVVUywbs5rxZ3ybxKndXZ1ClAdchvx448MzZlt2FfRS/2ZZmx8VK1pQ2mGWKTYeKn3XDt5SqsvlyFlRcrpQ0W2eZCJRZdILlUhnkRqg2eda4UBOvM0GJMCavA6PON2H7kJE4fckVA0BnZQuM2Gpdc6Opj8SFfoyUdFizi4OX59RsD61epsnxKaODqSquJKPbrWvLRc62utqS6e/v6ca+/C496W3Glth3bKh/Bs7gTV2JSEHUzAeExqQi7kYSQqwk4czkW/tE34X/hGk6dv4yT4RdxPPQCjoVEwDvoHDw1iE+dwSG/QOw/4Y+9Pn5wP3YSu72Pw81TA9kLTh6ecNh3GDv2HoL9Hg/Yue+DrdsebHF1x2aXPdjovBsbnN1g4+SKdQ67sNZ+J1Zvd8aq7Y5YYbcDy2x3YOlWeyzZsh2LKL9s3Ir5Nlswd/0WzF63GTPXbMKM1RsxY/UGzFizAbPWb8bsDVul7V2wZQcWbXXEom2OWLLDGcsddinJxmW/EEvr3A/BZq8XNpIJPnwUtp4nYOflB/ujgdhxPBA7TgbC0S8YjqfC4HwqHDtPn4dLQCRc/CPg4hMIB78w7EgsR3jXh2j44JfgnVlezit69L6hqbL9fS6OJZJKPKBMHzCv78nuqpG3dFvPqn2PQHKJxv0EiXAx0gw7HuF6+wMwgd/iWmp9KCwwkyEY5RLezIA0bTFkmuEAgmgxJFipsVarysqVOIsfWHZYe0CN9VA551Ut2XBeJQvcCVe2wYXdal41qRbYkWDNNWNLTju2F3TIsjp11s1XakD3EqvqhutVYuJnG8yqukYMEZRtKrEsmuRSORZHlhktcLlU1lnhBGspZoQWY3pIESaE12N8SAnc9rrBz3MfzgSfxYULUSJPkjwlkUp+ht0jO0lt/KeCoudXdqXfOFhppGB1ta62usrqd80aE7Qvz7QELVtkXW01g/z82XM8ePwIHz17gA8f30VkXS+2lAzgSEkX4jPyEZuWh6vpJlxJyUV0YjaiEjIQGZeG8FspCLuehNBrcQi+EovAS7cQGH0dpy9cxamISzh57iJOhEXDJywKRzWIA8NwxD8Mh08F49CpQHj4BWC/bwD2+bClPoXd3n7Y7XkSrkeOw+XIMTgf9obTQW84HvCC/QEv2O0/Aru9h2DrfhBbdntgs9s+bNy1BzYu7li/czfWOrlitaMrVu7YheXbd2KZnROWbHMUQC7Y6oB5m+0wd9N2kWgWcj7d5oSl212wjNXUyRWrnPdgjcs+rHPbDwJ1wz4vbJBZVbW/21gxj5JcCoD9CYL1DBxPhoj+t9MvXFrhXQEEbAR2BV3ALr+zcPIJhN2lNPg0PkHJ+79E03N1IoM3ak20FrL9lTMZtBU+l+R95VhSKYasqCLXSFVVV+No2lexoySWnlpuslJbpRGC9kLZsjFCvRk9ysrKBH4JSCOxZLTA1FZ1SJquqmyBRbKhI6nCcC2V9+NAWRf2G+Z9aqu7i/jqwa7CLnEwORV0wCG/AzvyO7A9zwy7vA5syGzFvooe7M1oxYboKmy+ocBqY7iXFLlUY7iXKrDiYiWWRlUIWBdFlGK+kEsEq6qqBOz0sGJMO0vAFmLU+SbMOhmPw2628PXxRkjIWVy6dFFSVShT6gV28jQc/8jfkMtht0kssAv9xsFKkP4t59PLgNUklK601nOt6LQff4Sf/+Ln+PCnP8Off/VTfPjhUwTV9GJbEQ3bPUgprkO6qQKxBVWIyS9HTE4pbmYW4XqGCVfTCnA5JReXknIQlZCFC3FpOBebivCbKVJ9Q28kIoQgvhSDwIsxCIy+gYALV3E68gpORVyG7/mLqp0Ou4DjZy/gaPB5HD0TjqMEM2di/1AcPH0WHn7B2O8XhP2+gdhzwh+7T5yG2/GTcD3mCxcvXzgfOQmnwz5wOHQU2w94wm6/J2z3HsaWvYex2f0gNuz2wHrXfVjrsgerd+7BSqfdWLHDDUvtXeTFSrrC2Q2rDZCucd2vZtS9R7Bh7xFsPHAMmw55Y8vhY7D1PIlt3v6w8wmAmlVZVQnUUKmqnFmd/cPh6n8eLoEEawRcz7DKnoPLMX/Yn7uF/RUDyHj0SzQ9+zkKH9Csz80adc8m5w4rqrIWcg2OlVXcSlJVn0n7m2gwwOpinHHikfdY2QITqMaWDSNcZFaVRXMF1PDGuyrGpeEuSCyRBdY5wTRC0A984jOSjWaBu0WuIbHEtTjRV4t7sLukB7uLu+FWyMqqWmDHgnawBebLTsDaKa3wdlMHDpd0S0oEdVXxBBtgFUPEJfqCqbEqJpjzKmWbRZEEq2qD55wnuVSCmWElmB5ajGl8nS3G5JBiDD/XgtWHA+Cz2w4n/fzEoUf/ABliWm814UQZk/Mrx0B2l+w0WcC+FbDqlli/v1xpP2+u1aDVLbIGLdtkghZ/+gQf/uKnOF7ZB4diblT0IrWqDcVVLUitaEFqaSOSi+uRVFyLhMJqxJmqEJtfjtjcUsRkl+BmdjGuZRTiano+Lqfm4VJyDi4m5yAqMRORCemIiL+NczGpOH8rBeE3khF2IxGhN+IRci0eIVfiEHw5FmdYlS/eQGDUNfhHXcOpyCvwO38FJ89dFlD7hEfjWGgUjp2NhHfIeXieOYfDgWE4GBCG/f6h2OcXAnffILidCIDrMX/sPHoKjt5+cPTyxY7Dx2F38Bi2eRzFlv1e2EQQuh/COlcPIZCERHLzwDr3w2J+2LDPExv3e2Ejmd9DPiLVbPPy/QxQHVhRTxlA9QvHTs6rBKn/OUhlDYyAW1AkXFld5T0SrqzEQdHYbepA3P2PUSuAVZZCmvUZ20L2N72fr2fgPRtVVZ8iUVbhdJC3YS3sVsb968YtVh2MpnZXHxqmfbbAqv1lVVVbNgSr0QJzJY5A1a4lSwtMPzDN+zRCULIhC9yDfdq1VEozRDfcinuws4hVtRPOZIELOrGjgJW1HXa57bDNa8fWnDbYZLXBo6IPrqmtWBNdJZKNNkOsu1IlLfDqi1WKXOLWzQVlNZQ2+LxqgWefL8GssGIhl6aFlQhYp4YQrEUYF1qJUcGl2OG2G0f3O+OU/2lhiJm7zfVRqhx083HphWqIdjixHeb8+p2AVYOW7wSqfrHK6pcmoqxb5N9Rq/3d72Rf8+nHv4BHKb/wvfCo6EdsTReqmzuR19CJrBozMqvNyKhsQXplG9IqWpBc2oiUkgYkl9QhsbAG8aZKxBVUIjavDDG5pbiVVYJbmcW4nlmEa+kmXEvLx9XUPFxOycPFlFxcTM5GdGIWohMI5gycT0jH+bjbOBerQM3qHH49CWHXEnH2WgKCr8ThzOU4BF2ORcClWzgdfROno27gZORV+J6/DJ9zl3A0/BK8wy7C82wkDp2JgEfQOez3D8Pe06FwP3UWbr5nsOtEIJx9/OF49BR2eJ2E/RFfbD14DJv2e8Nmnxds9nliA8HsQafSUQVSz5PY6nUS24+dhv3xIGw/Hgh7mVND4OQXCie/MDidUu2vS8A57PKPwC5pgSPgaoByYzHdAAAgAElEQVTULegCXM9cwO6QaLieCILjqXDsym3G1Tu/QOXjn8N0j60vgcpqSg/wM6TJGhw11cFsYM6pKg2CFZVh3k8spx05pwqpJIeT1aL54KyqIkcFqI3MBx6QyipbNpxVa4yqagCVLbAXzfuV3LIhWJVryaO0B/utJRsSS8VdwgITrDRDULLZkW/G9rx2bMvrgG1uO7YQrJltcCrshIepS3ZXqa9uuFprrMYpA/8qbtvQuSRgpXupHAtZVc9XGEwwqyrByqpaJGCdElKEicFFmHimAMPCmzDteCz2OW3AsaOeoPedBh964jXhRMWD8yvjkqz11+8UrLo9/u9A+6dP/4Q/chH3008lNOzexx/BrbBTdhMPlPcjsqYPje13Udh6B6amfpgaepDf2I3c+i7k1nUhp6YD2dVtyKpuRXplK9LKmqXyprD6ljYgqbgOiUU1BoirEJ9Xgbi8cnmxEt/KZjUulmp8I7MQ1zMKcS3ThOvpJlxPK8DV2wW4kpKHK6m5UqUvJuUIsKMSs3CBwI7PwLm4dITH3kbYrRScvZGEM9cSEXg1HoGX43D6Uiz8om/CN/I6jp+/gqPnL8Mr/BIOh0bBIyQSB4LOY2/gOez2D4PbqbNw8QuG84kg7KBm6umHrYd9seWIL2y9fIVIsjsWgG3HVdtr7xuIHb5n4HDyLBz9zsLZL8xSUXf6h2MXwRoQiV2Bg0AlYN3OXBh8BUfB9VQIdp4MxfqbRQhofgRGkNIHnNFPqYbXzZ8hRcDK9EIulz8RW2F81xO5cH7LOD5105BqrrUrA4RigB/K3mpE613jvON9nGu8BxXmrdpfFeat1uFOc9PGYIHFuE/XUnW/SjKUqkrjfh88uHBe2o0DshLXI8Z9zQLvMhktcH6nMa+asS3PjG257dia24YtuWSFzbDJasWh8m7JZGLry22b9bIapw38yhBBJli1wDRDWIFVk0usqpxXz5ZgCtvg4GJMPFOI8cHFGBraiFV7feC1yxY+J3xxJviMeODp0ONCC+dXGibYDlMJ0e3wdwpWglT/paurfmeF5f+vZ9o/v2AsJ+QY8c6CdniU9MrZ+lOVvajvfojK9vsoab2H4rZ7KDQPKOA2E7x9KGjqlld+Qxdy6juQU8vq247smnZVgavaFIgrmnG7rAkppQ3qVVKPlJI6aaWTCOaiatVSF1QiIb8K8QUV8opje51Xjpj8MsTklSImp0S12lnFEHBnFuJqhgmXOTPfzsfF1HxEJeciMjEb5+IJ4nSExqYh5FYKztxMRuD1RPhficfJyzHwjY6Bz4Xr8I64iiPnLuNQ2EUcOBuFfcEX4B4UAbfT4djpFwKH42ew/VgACNTtPoEGkRSEHSeppxKo4Rbm19mfcg0r6nlVVQlO3fbqymoNVv44JBordnshqaAIt+7+TMzxJQ8/FGKJ7W9Kn1osZ+I+zQ8EK6sqwao2a4yo0U513fyKIdWIrtp2H5Fyh5Xtr/IBi6ZqJBiy/T3ToNbh/Gr7rXZXjXW4aqZC6EXzbotkc6C8W4gl5QfmrKpYYJfCThCsrKpCLBV0wD7frFpgYYNbBaxbss1YmdYM97IeuGe0YVVUJdZfrcK6K9XCBIvNMFq1weJculAhko1lXqVkE16KmeHGvHq2GFPPFmNKSAkmkRUONmFCkAmjQ2owyj8PDg52OLJvlwTih4WG4fLly5b5VbfDWs6hlPmdg5WAtH4RrJafvzBO4r1gvhDkIrdjfgf2FPdKLuzB0l6Udj5CY+8TlHY+QFnHQ5R1PEBJ+32Utt1DSds9FBG8rQMobLuLopYBFBG8zX3Ib+5FQVMP8hu6kVPfjZy6duTVtCG7xoys6jZkVrcho7IN6RUt0kbfLldAHgSzqsopZY2QCl3GnzciSSp1PZKLa5FUVIukwmokmKpUy51fgZi8ctzKLcfN7DJczyzD1awiXEovRPTtAkSn5iEyJRfnE3MQnpCF0Lh0hMTcRuDNZPhfT4Tf5QScuBSH41G34B15E4fPX4NH2CXsPxuFPWci4ep/Ds6soL7BcDhxBg6+IRZ5xpkz6mnOqOfgQuaXcyrbX4KT/64VWFlVdwdHWSqre0g0lu8/gdM3kuT7wP/xr7sjS9vFDz+0shQSqEqmSeh+poAqmiozltSFuGud1FTpVtIL5vdxgceSyQBrAwT3VpkGwb3VeqYYMnLUSIRgkLfYC+9C5QP3iwniWAXBSgbY0FZFsuG8qpMhKNl0w6WkEzuLOrGzwAArZ9WCdtjntcM+pxO2OZRu2kS+2ZRlxpqMVmwr6IRHUZdUVK7FMc6Fks0qzqvRlUIwEawLtXNJz6vnSgxyqVTIJQKV86qA9QzBWogJQUWYEGDCO+GtmOsRin3bV8vlCi6mMICBlxlpqaX+qjd0aPgnO/wPB6sFqH/RoFVAbfngI9jnmrG3uAsnawdktSmh5S46Bp6irOcRynseoaz7Icq6HqKMwO18IAAubX+AUvN9eZWY76HYeBW23VHgbb6DwuY7KCB4m3uQzyrc2C0gzmvoQm59pwA5p7ZDgEwwsyKzMmdWtSKr2qx+XG1GZpUxK1e1Ir2qFRmVrQL29PJmpJY1yiullKSXqtaJRbWIK6xBrKkKt/IrcCOnDNeyS3AlsxiXMwpxMb0QUakmnEvOQXhSDkLjMxAck47AG7dx+kYyfK8mwOdyDLyjbsEz8joOnruKfaGX4X4mSsBIWYYzqrMQSQZQBazGjBqgmF9NJllaYauq6h4ShXWHT2N3SBT+IGMIofoX/AUvhNzzqe4Vg4SYH9j6ivmBlsInItMwX0kfSr7WYZj1jTU4sr+8bB6pDRBcg5NVODLAyrAvumq9Aip1VT9J3ScDrEK8tbbqVdGrUgwlGG2QWFJeYO6u0gusjBBi3Ke2SsnGIJa25bIF7hBiaUuOGZuz27AxqwXrs1qwOrMNB8p7JOZldVSlbNpIVTXMEFw4X0qgXig1zBBlmBtRhlnnSjArvAQzQhWxRCZ4SkixUVULMSG4COODCvEeq+uZcgwLKMdGR0cc2GmHo8eOISgoUPa4dTtMa632D5Md/qcCq36MMw7TNrsN7sU9AlSGXQVV34F54Bmq+hRQCVbLq/exAJjgLe96iPJOVXFZfUtZfQngtnsoNd9DifkuCOIi830Umu+iqHVAQFzYMgC+THw198HU0gtTc49qqQXMXcir7xJQszrzx+rVibz6TuTVdQrQc/le1wmCXWbn2k5kVhPoJMBakcbWu7wJyWWNSCpuREJRA+KK6hBTWI2b+ZW4nlOOa9lluJRVimgBbx7OJ+UiNCEHIXFZCIxJF+CevJqEE5fj4X0xFkcib8Ij/Br2hlyCW8AF0U/Z+rqcJkjVfEqJ5uXWd3BWjRJyiRV167Ez2HosGB9+9LF8O/gwfWGML598+in2lXRJfi9PPHJPlRU1oespRKbhnMpANLm7+kj8v8oAoZbLedWc7W9kyx1EyGVzdSGO2zV86faXOUs8jaFzlmgv1FWVS+ZeEoxGAwSrqpG3ZOVYoheYYOXuKoHqYtUCU66xp1yT3w5baYHbsDW7HVuyWrEhu0VIpmW3W7C7rAe701uxPLIMkrtEi2E0/cBVsnBOYmlxZKnMq3MjymXbZjZb4DBVVTmvTuO8GlJskEuFGM/qGmjC+CATxvkX4N3QZkw9FIVdm1fioIcHTpw4ISkp1nIO7Yj0x9Ms8U8AVlZU9ezmp6P5fVbUdrgVdeJoJS1kfTKHFHc9QcvAM5T1PkJ57yNU9D4eBKtVpdUAlqqrKy+rbxcr730Ud91DaedDlLJ1lgpMAA9W4OJ2AvmuALmwbQBFrXcFxGypSWgVtrAy96OwpR+mln6p0qbmfkV0kexq6kNhU7+03my/Wb1ZxfOaepBb343cug5k17Yjs6Yd6dVtuF3ZitSKVqRUtCCxrAHxxbWIK65FTGENrudX4kpuKS5lFSMqvRCRKYU4l1yAs4nZCIpLR0BsGk7dSMGJq4k4eikOnlG34BFxA3tDL2P3mSghkSxaqlXbOwjSC3ALVsQS2+AdfmFY6XESnfceGEDV3Q4Bqzqep5/8FjsLOsTTmzHwviyV0/wghJIAVXl/ma2kF8tVeDcNEPflULICKtlf41CysQanokbvIqDWyFkSUkmvwvWJD5ifCVZVMsCMG1UbNspeyKwlPtg5q7IFpq7KeZX2Qo5TyghBuUYRS7bS/rZKC7yRYM1qxfqMVqxIa8F2EpoFHVgVVSGVdQ23bGQtjlWVFkP6gcswnxbD82WYI5INmWCClSwwCaYS0VcnkQlmC3ymCOMDTRgXWIix/gUYHViCdwMrsNbeCXscN+LQkSNyH4rRRtqOyI0ztsM0S/wTgHWQdGJe7dbsNuwy9UgKHb8p3D+83HAP3fc+QGXvE1T0PRagEqzWLw3S8pdBbICbf7+s56G8KrofobyLL1biByjrui9AVnPwA6nErMZSkVmV2zkXq9mYYC75zOu+tNoEvOVF8qv9Por5rh8EnKHb7knllhm6qQ/5jT3Iqe9CVm0nMmrakVbdhtSqVqRUtiC5ogmJpfWIL65DTFEtrhVU4WpOBS5llSE6vQQRqSaEpeQjJDEHQXEZ8L91GydvpODYtUR4XozBocgb2B9+BXtCouAaGIGdgedlXlUzK2dUBVLKNZxZCerFe3xQUN9iqag8AjA4pgwClrdwnPLa5ThyYs8TC1B5yVwOJHdwqVzJNGqxnDLNQ0S03pOKam3Wp/9XMoGpqRqkkn/tHfjLOUeVBsH0QuYCMw3CWxIMyf5qHzCDvFUaxN6SXriXUN7rEnuhm4lVVSVDEKg07tvnU65ph21Ou3zWpAXOMWNjlpJu1me0YE16M9Zmt2F/cRc2Xa2RGXWVVFUmQyh9dTElG/EDVxibNsoIQTPEjLNFAtSpFrAOtsDjA4swLqAIY08rwL57tgmTDkbBcdMyuLvvlkNuPJvKhBQGLzBhgrvd1F7/gWBVT23WVP7V9sHH2JZjxk5Tp/J4lvVgb2k3jpT1oqrvKRoHnqGy78nnvqxBa/1jC4B1y8yKrH9s9a6rcDlBTEALgB8ImKUidz9AqVGZ5d3y4/soIdD5z3fcHwR3x32p3AL2Drbi6ucEPQHMObqo7S5M5jswtQ2goLlfgJvd2IXsum5k1nQio7odt6vMSK1sQVJ5ExJKGxFTVI+bphpcy6/E5ZxyRGeWIeJ2EcJTCnA2KRdn4rNwOiYNfgTt1QR4XYzDoYgb2G9UWlZUTTApqcaQbIKjsGTfcVzKyJPvBf/nLxYOwZoQZHVV3y+a8/cWdckNVra+Oq2QGzWDQH2A6NZHItNEMrJF/L/3EEYDBCNbDAOEOJX0Zo3R/p7UF+Lkjo3arpH216KrqgVz+oDFBFHciz2MGyUDLLMqW2BW1S6DAW6XeXU7qyrBSrmGlTXbjE1SVVuwPsOMtZmtWJPZgqW3m7GHe67xTVgaUT64v8qAtAvlaiXufJk4l+ha4qwqriU6l7RkE1IklXVicAHGU7YJLMJ7rKz+RRhz2oQx/gUYFVCEdwMrscrOAW7bbODhcVAyx3huhmYJa7LpHwhW9SHgB6P7Z78Ev4h8+nG7ny4UulG4d3it6T667n2Aiv7HnwvUlwFsDdaXf/xX4CVgWXmtgKt/rEks/lyD+fPeS3seqn+/+xHKOCsbQFfvD1HWbYDeaMlLjZachBiBXtxxD6zWbLlNrXeQ39yHvIZe5Nb3IKu2Gxk13Uiv6UB6pRkpFc1IKGtETEkDbhbV43pBDS7nVuBiZjki04sVaBPzEByfDf/YdPjeTIXPlUR4X4zHkchb2B92Be7B0cIEi80w6AL2hERjpYcffC7FWQHVGqAv/1i1wy/wAkcrexFQewfJvc8lVlRcShIrapgfWpX3l0DlVg2T9s/JJXPjfo1OgbA6i0FSiVGjKmZ0QJjfEwzwZkWlYV8MEINVlT7gvWSAi3st0S1chWNHNmiCUAwwN2zoWFLaqpJrNLFE9xLBui6zBWsyW7EotQUujC9Na8Hi8FIDrBVq2dy6BY4ow5wILdko8/600FLLvDrpTDEmnDEZYDXhPWmBCwWoo08XYLRfLt4JbsKUPaFwWLdIone9vb0RGBgo2zlxcXESccTq+g8A6+AcxE8HM225+UA3yb7SXglk5i7inlI+OXtQ0fMUzQPPUfnfgLWq/+kXgpmg1aB+GcDWPycw9c8/78f67/Fdv6RSsyXv0W25/jWs342Hgszan31AsDUvZeUmeKV1vquA26KAm9vYh+yGPmTX9SKjphNp1WakVLYiqawZ8aWNuFVUjxsFNbiSW4logjatBOGpBQhNzkVIQjYC4jLgdzMVx68mwTs6DocjbkqlJYPMOdXG0x87AyPw2z/8QcBq3fb+rR/zH77z0a/hWtApBn22v1fb1DaNStdXDqXINhXYrRbLrSyFzXdVEJqY9Y2IUQupNOhWYuvLjCW6lTyNWVUFeKvYFou10CCVXIt74FzcqUz7dCsZpn2ywCwIdnlariFYO7ApiyxwK9ZltmJdRotU1tUZrVic2gQ7Uyf25LRj8fkyLItmhIuRtxRZikWGF5jG/dnnipW+yi0b8QOXiGQzlfrqGc6qhcICjw8qwLhA1QKPCTBh9Ol8jDyVixH+pRjma8LKDTZwtF2P/fv3S3Z2aGioZI/RO0wp5x8AVj6p1dOZR5V2mTpkwOd2xB6ZPRRZwKp6vv4uzHefSxuswfZNvWtQ8p2/pvXP/9aP9T+rwarfKwzS64v+3fLPgFkDWYFc/xplxiwtVbfjvhBdrLYFLf3Ia+5DTkMvsup7kVHbhfRqM25XtSC5vAVxpY24WVQnlfZqbiUuZZfjQnoxzt02ITQpD2cSshAQmyHtsYD2Yhw8I27B0e8cNnoH4vEHH341oMosq76HVzseSiIDo1suyZz6ANFiJ1RV9XwLqylPYRCoTCxkAsSAcQ7jLgKN9pdzKhlgMr9+VYxsGcwDPlqpNF4hlSS8m2twmlRS5zF0IBqrKiuqzlkSUolyDa2FuR2qquaQVDJLC0y5hjbD9RltWJfRLFV1dTrb4CbYUDo0daq8pQvlWHqhCoskwoX7qxWYd47EktECc8vGIJXIBFNjpWuJYJUWWCQbzqkmjJUWuBCsrKNO5WLUyXy8HdSEqY7esF89F65ubhK7GxAQIFIOkz4ZafQPASs/Gb/84x/gUdItXyjGQpK9cy/pNGIje+Ba3InMjkdou/dMSKXKvsHq+PcCVqrwF1Ri/n8awP/d76OByf82/eOv+q5/D/57JMGkQluDVmbcuzC19SO/pQ+5Tf3Ia7yDnPo+ZNayRW4XUiqpvBlxpU2q0prqcDWvChezShGZVmRU2jwEs9LGpkulPRIdC7uT59DSN2AA9bNk0t+qqmTvNTv8i9//Xry4ES0PcLV9MKybB5FVnpKKaQln+ytAvYtQ2aghocStGrK/dxBQO4DTRrYS85Wop/pU9+NYZT+OVqgDybwMR1uhihlVnAYZYAnwLqKu2gMXkWs6sdPYWVVgbcd2tr/GrErTPuWazZktigHONGNdRivWZjZjdUYLVqa3YFlaC5ZntIIpEzTzL43gOlwVFl5QxJJKhSjFbCZDSCoEW18l15BYEn01uFBYYGqr4wMKjRbYJIDlzDr6VAFGnsoXsA49XYmRh+OwbvVSONnbScwupRxdXXly5jsFq/4Gf/rnP+NEdR/4BHMWep3sHSn3LuxmAl1hF3wqelHb9wx1d764vdUf9P8X3wlO/nd/pn3vVwRaRd8jVAqrzZn3ITjnUnYiC11ovoOC1n7kN/cjt7FfKm1mHWdbgrYNiQJaq/Y4pxIXszjTErQmhCXnISg+E25nr8HU3C5AFeHsJeb3b4PVYIaNDiml7xn2FndKvlKUMadKRaWWympK44Ok6w8yv9YX4TijnhaZph8nawYrKgHLbCVvaX95IJn+X+uqSqmGD3qVsbSTC+ambiEpmQ3M1lfAahgg7HJo2DeqKlMhslphw/ZXSCUSS61Yld4sYF2e1oz5txuxu6QTtjH1WBheJl5gbtgouUbtrjJvybIORxY4lEAtwuRgowUOVsTS+MBCjAsoFBZ4jL+qqqMJ1FMFGOVbgBEncvH2qSrM2eSEbWsWyK0nXliks4lGfxolvjOwaqDy08GoyZW3myW0ik9A+jZJCMjeYXE3dpg6EVE/APPd941Z85urqt8WsDXo+P5lXy//t+hfg39fS1RacpJWmfpwByUhzrUELedaBdqcul4hpKTSVrYiwbrSFtThSm4FojNLcSGjGF6XkpFUWmcAVVXJ/w6cX/T/8xfhxXUa6COaH4DHpc43D1gOSw06lO4KAyxJhbQT1t+XUxj+tSoITXKVxPygEiA0UNVxZBUxKppqOfOVurHX4DfYjbkVd4tUw3wlxrYQqJxV9RqczKq5HYa1kPZCzQC3YX1mG9ZyVs1ow5qMNtFYqbMuS2vEnJQGST90SGzE3LOlsmFDbXUeW+CIckNbLRawzjAYYOVaIliVcZ8WQwL1vSCClQxwITivjjmVB4J1pF8+Rp7Iw4jjOXgnoAHjdwZi/dJpsN9hL9WVZ1FZXckMf8tgHSSTaFfjXwndT7AqrVkcJFxVcipQOa6k2Rm9Qdqda0qJbffRYQHr50s2L3/Y/7V+PthR6HmY0pKqtA9QQhbZfE/kn4LWPuQ39SOnsR/Z9QRtD9Jq2oWISixvQmyJqrQ3C2txJtGEq7kVljaWD9EvAuJ///dZk+XCs7TAHGtogDivzzVaWQklA5gGfQuhxJiWO5DA7pp+mVVlTq1UmioTIMj+MgGCV+HYAssJR3EqGcvluqoSrEaH5lzYLUClCULW4PLNsq8qDDClGrqWss3YQGuhkEqKWFqT0YLVdCylt2A5W+C0JsxJaoQTHwCpzZh1tkRMELJhI0Atw6xwEku0F3K7phhTQ41ZNaRIEUsEahAthjRCmDDmNFlgEksmjCJY/QqkBR5xPBfDfXIw9GQJhhy6jcXLl2KrzRqprrz1xNk1Kirq2warFtKVNlf+6EOsTWsRfctetvU7ZBGY2uouHgpi8lxRt+hleV2P0XL3i7XVfy1g/vXDqKr/sy3y4Cz8SIwd5ZSCyCCTiNKVlkSUzLQELWfaLoM9bkFiRQsu5VLqqcInv/u9PDil2/mK7e/LANYdE51nboUdiBY99aEk6oc1KTJJNmok9YExLffkbCOthHINTgegVQ/gmF4qF5lGJ0AomYZSHtUBxosqp5JK2ddV1dXUhZ2mbrVcnmdUVkNT5azKOXWzaKvt2JjdChsBK0klzqotWJXRghUEqjGv0nI4J7FRsplc0lswO7RkMBTNKsFwJoklzqoCVMUCi2PpjEmxwIGqstIIocE6RtrffIzyK8BI33wMP54jYB1+LAdv+FZjmo0jNi6dKSdPDxw4IDZEBtp/K5WVXlL1TX2BF39RT16eGtyc2YZ1mW3iySQ7R0eJQ0G7tC0ELJ+K9oVd8CzrQ3nvE9T/i86rf++DRoBryEci+3CmFYcVjRYGEcX2uKEf2XV94EybVN6CS3k1eGbl+X0ZeF/n5xqsv/vTpzhR04fAugGEN/P6m/L7EqghRkUNNIB6us5Ye7MCqk8lb9bodH2V/qC8v0pz5ymMwSNTvWpONZxK4v8tVEB1ymMKRLvkK4mtUNxKND+0YjMN+1msqmx/1axKoK7JbMPKNAOsaU1Ymt6ERbebMTuhAVvyzHDNNGNuaLGxt8r2lwywan85r8qS+VkFVNmwCS4y5BraCwvFXqiAqvTVMZxTDWJJqior6/FsDPPOxpt+9RjrcApr5k/GNtttcHPbLZcU6Wr6VsD6MlA//v0f4GrqwIq0JvmCMaCK7NwODdaCDjhxObiwC/YFHThZ2YfavqeoMQiXv/fD/a/47+tKy1lWDBxdNGXo9pjssTHTNqkqe6uoFf1Pv5pE82XBq11N0W2P5IIb0x+48kYbIWdURSbdf6miqlR9X2NO1UClndCTx5DF/MBqqgglau9ifrD4f1XCPrsxgpX+X7WvqsDKjS1WVF1VVfvbbpBKqmgIUGkvJAOcpl7L0pqwJK0Ji1KaMSuhHhvzzHDLbsO8sFLMMxL3ZxuhaGItZEUVycbYsJFECGXaFxY4qAhjAwblGgJ1tG6BT+RjhE8eRvjkgFV1qFc23j1eiqF7Y7BgwVxsWL8aTk5OcvL01KlT3w5Y+bRVFVWtVp2q6ceSlEZszG7D1txWidHgDMGdQj4FydgxcY6AtcvvQGBNPxrvPEP192C1mDmsHzifT0QZ8yzZYzFY3ENR+x2ZaRMrOtA08ERaX/7PlwXhl/vntG0UEk26m/p4M62ERuKDlmfkCDJn1AH4GTMqgSoSjaWiKuMDXUoW7y+vwRn6O72/jBaVuzUWS6F6yPOzw0wlvQInTiWpqmZsZguc0y62QptMzqqDYKVUsyq9RYglMsCL05ux5HYLFic3YnZiA9bmmOGWa8bcc6WSXCircEyDCC+zzKo07NMAwVC0yTTsy6xaiAmBBRgXRKmGpJKaVzmrjvLLk1l15PF8aX8J1mFHczDEMwtDvHPxlpcJU5etw5olM7B9u52cOPXx8fmWwPqCM6qaU5l0tyipAevS1XbD5pxWbM1R8Y9sU/gFJmtHwDoUdGFrfgdCagfQLOtwfz3LWX9o/11/bA1W/TWwVNpegvaR+JW5qJBR34eKLm7RqO/HlwOgHmO+3LtuhbmIQW8u5Rr6fUkmCetLxlfIpLs4XU3jg96k4eqbbn2NikqDvhgf1I4q0wr1QrmSadRGjVgKGS0qe6oqB1gnFrJrY64SveacVZkLvFmcSsoAwVGMs6qSaghUtWmzlEA1quoiA6wrM81wy2vHvHCexSjDHO6sWtIL9XZNsSW6ZRKBKts1RbK3OjawSEglEktjxARBYikfo3w/W1WHeedgqGcWhh7JxBvHazDOxgrUccYAACAASURBVB0rZo/F5i1b5Baxp6fnNw1WzSwq5rftg19g9e1mLL/dLLmsnBfIxHGzhkbqbZIuZ5ZNCAFsXie25rYjuPYOmgaegySL/jB+//7FXwtr8GrQkkEuaHsge7u///SPUlW/DaBqwz9/g/6Pfi3OImF85T6NEc7NLRreVWXoWc0AfKu1PNMHhnWLldAw6P9VRS2l97dX3G27SzqMG6s9QkTqdH2qCg585bXBPqdNXErs3LbkqsKwRTTVZthkG1XVYoBoVe3v7RYsS2/GUlbW1GYsTG7CgpRGzExsxKqsNrjmarAOApVp+2KC0Loql8xlDc6wFhqzKrdrhAH2z8dYtsDCACtdlfPqiONZGMGq6pWNIV6ZGHokA2/41GCE3SksnDEG69eth8MOB2mFv5WZld+4j/7we7gUdGBhShNWZ7TJUL85q1XAquaHNsNUrTybqn3pwNZcM/yr+9Fw5/n3M+sXbBl90YOL20n6/yvtfoT8tof46DdMh/ymW9+/rrj8PR7+6tcyswbUDSCw7p5ie5lMSCuhhUxiPIsGa79aeaPpQdL0tUOpD5pQ2qMdSnS4cUe1hLGinbJQTo6DsaKUafj54Vg1OKeaDfbXjM2ZrTKrSvubQanGqqpKC9wspNJiaX85rzZhfnIjZiQ0YmUmwWrGXGl9iwer6lkSS2pnVbmV1M6qqqoErMmyCjdogjDkGlZVAWouhh8jsWS0wEcyMeRwJt7yLsU7uy5j1swpWL1iGXgkfM+ePd9sZdXtEL9xwQ0DmJvUKHQ4v0j0X27IbJEvmtohbJM0CD4B+QXm9j7JJSbN+VT0oab/GWq/r6wW8GkQft67VFPDjindSP8T5LTdx6Of/1KAyu3+b6eqDv66/I0e/PrXMmv6G+cu5EK5AVKevaCOeszQUSnTyG6qxLPo0DMrLVXmVLXYQeODmlNZURWhRPXAMZ/tbwd4BsOBSYV57cJ5SFqh0f6yk6P/d4PR+ir2t1U0VZJK1FQ1qbQ4hVW1AQtTGjEvuQkzEhqwPLMFbnkdAlLGi3K5nAYIzqkEq3iAWVXFA8xAtEEGmB5gzquj/ZWuOpKzqmGCoK5qmVW9slRVPZyFdw9l4u0jeXhj721MmrsQyxfOxubNm+HquuubAytHIi3TMAWPPT83FxhAxW0GUuXrM5XFi2tJYqSmR5NtS54yWPPJaJvfLlGSJT1P0DDwxa3f531ov/971GYfI9/8AJ1PfvadAZUPAv51/5efgLm9zE0SHZVtb5VaIFexLKqifhaoakZlPAu1VFVRqaUSqPSLd2O33Kuh8aFHmF9ZfSNY81RFpfynMoDV+psOQNuSbZBKslWjSCXuqir/r5pTV6Q1Q4il1GYsSm6yAHVuSiOmJ9RjRWYr3HLbMeusCu7mZTilqyqgUqqZIm4lrsExtkXlLOmdVSZC6FlVgOqbj5HHDQaYxBJnVa8sDPXMxJBDWXjXIwvveGTgtYMmjFtkgyUzx2O9jY2wwt9IG0yQaqB++NvfSsWcm9yIZbeb5QnGL5CsILHCZqnqujnbbLhJWrEtR6Wik3BiLg5Jg8yOh2i7+/xLVZZ/b5AOWjFZVU0dD6Qr0V3OixeD1e/bq66Ko+j86cdyV0YxvlxzU/IMV9yUjtonxgevijvwpDRTriuqCuimPKNSH4wDyMZRKRofmKfkSt8vg7rp+zVa3x0FZgnWs+ODPo9FQOmpGqgS1SJOpTa1UZNB/6/SVAlUaqpcNF+UzKraiAUpTVJV5yQ3YEp8LdZkm+GS2YppwUWSsq8jWyQP2Fgul6pqMMCSBBFIqaZQJBtl2FcVlds1CqjUVXMw7BjnVAOoR7Lw7sFMvHMwHW/vT8drhyswaoUjFkwegdVrVsPe3v6bqax//sufJf2OT9fQxnuYkVAns+rK9FasSlPLvGw/VIXl/NqKTZktMr9SqOaTkCBlhZWnYl47bjTfR+fdD74H65ecW7mczzm1uOMxfmPsphKw3x5A1UNAGWAUWMsefQjn/A7419wVoCoiiamEKj9JWQitnUkqQ0lv0SigGlGiAlTDL27cqRHm19imEclP5lQzaNCnVLOVJv1cLdOowqBkGjPWWuZUXVHZ/pL9bZZFcwKVr3lJTZib3CSyzeSYWqxneklGK6acKRrcVWX7KycxSkC30nhtK+RmDXVVf67CGXKNGCAKBt1K1FRZUY+xqmaLXKOqKoGagbc90vD2vnS8frgKw9fsx5zxQ7F8+XLY2tp+E2BVESAEat2zn2N+UiNmJzcKs0brFi1cq9LVQK8AS+cIV5NaRPdSFVa3w2Tw1L1Maq3NA++jWlbZBqvHv3cV/eKxgHNrgfkBPvjlJ9KSstP5toGqfv0X/ADI7xnf8xQ78zuF9T1RRfsg41hUJAtDuT0reJ1cmfKVPGNUVL2bWqwCz6T1lZuq3MAa9P2q0xdG66tTCnONezUyo6rzjWqhnLGiNOm3WoDKLS9xKsms2owl6Yr9lfY3uRHzU5qFZ6EnmBrrxFv12JLfDue0Fsn6lX1VPafKviqdSqr9pVNJeYAHN2vY/qrNGq7BFWDkCVVRh/tkY6h3DoZ5Zav293CmUVUz8Pb+NLy1Jw1vHC7HuzY+mP7eMCxZvBibN23+e8E6KIj/9k+fyomLabF1mJ/chCViiG6yOEO4fU9da21Gs1gO+cTTgN3KllhX2DyK2Ew37EJh9xPxB3MD5XuQfj5QK/ofyZYPmd++Zz8X0NCKIomR3wGxpIMEgBcSzs3r83LionIQpNxH5WVyMTvITqqaT/W5C96mUTMqwUodtQtuRT3q8pupw7JJ40R5hlZCo6Iy+3d7Tgds5fMzaNJXq2+G8UEcStxTbZXVN2qqJJXY/pL9pUxDfmW+tL/NmJNcj9kJdZgZX4/xt+okLcIhpQnj/PPF/zs9ZNAAwds1OgWCEaPjggrUrmqAJpVyLYb9kb55GHmcUk0uRhzLxVCjqg7Rs+rBDJlV39p7G2+538brB0vx1qYATH1vBBYumA+bDTZ/L1iVQ4mfkJSeZ5geV4cZCfUyqC++reYBDu+cDTgnrDIAy7hH0ufcJeQXlk9CzRCL4ZorTLlmXGu+hw5JNRyUJL4HrRVo+59I51HY/gj1A88to4jWPr+LyvrihfJ+k1xyNXXKTEqjg76d6s3o0HIjkNswO+i2l3lb+ynNFPeKlVCxvoaNkHMqlzuY+asXybn2ZurADlZTkpJ8CVnJ9pfGB66+0fjAzxeND1x9o51QjWMEKT+L1FTZ/i5OabLMqSwwc5MbMDuxHrPj6zErvgHjb9XCsagTtnH1GHs6X3RVtr+TRFNVCftaquEKnCUFQlbgjKpK9leqKtfgcpW18KgilQSohzMxxJhV39mfjrf3pOEt91S8tr8Qr9uex8T3xmD+nFlYu3bt1wcrZxVNYrz/m99gY2YrJsc1YJ70/g1YzOpKwKY1CdvGLxLviPALxxe/iAQsWWJS60yYE6eJWMNaxZrIM341fc/RdOe5kRZh9UH9krPcvzS4+5+gtIunRB7jN39UmzTfBUA/+3sosKb2PZM8Xt8aHRl6B56VffDkkeMyLo4rQ76suZV1f8ZC6M6sX6OiMoRAbV+pZEInE6WZLmUjNLWrKFEJPVP7qXTE6bU3vUyuTPrkStTnjYVipVTUZtlTXSxzKkklJdPMT24GCdHZSfXiB54V3yjvE27VyqnIDTdqMM7fZKTrq/QHdWRK76pyBU4lFo4WqSZf7asaBoiRJ4zNGiGVlAd4iGeGwQAbpBJn1b0E6m28uTsFr+8z4TXbSIwbOxpzZk7DqlWrvj5Y5RtmWNgutt3HxJgaTItvAP/g1KlEukluliwbDvLqqcb5VUVnsCWWp1+mWdxNBCwtYdIO56ocV1bXmy330H3/A0h6wvcAfWkceCzGh+cfqzn1syD6LlhgNat++uJTMOOZbK5P5R0jhoWbM0YYtxHHIoeOjfmUx6O46uZeyqzfLrgz5aGoR1reXYVGLEuBESNKHdXUCZ1OyKoqAd25qqJuyVISzYZsbtOoiBaqD6sl+UH5fpWm2gwCdYnINI1YlKLaXwKVnoDZCaqizkpoxIz4ekyKrZc92eUXqyRJX/y/+hqclaVQQrvJ/pJUIliNrRpxKxntL0klIZa8czHUUxFLNEC845GJtz3IAKfh7T238aZ7Kt5wS8Xrewrw2raLGDN2HGZNm4QVK1Z8XbByVlUM4MNffYIVt5swPqZWnkxk0uj+oF2L7NqSFGXjsgA2nUu+1LpYXduwVgwTZjm1xxlWAbYdm3K4c9iK/SVdqOh7+v3s+vKDinpq+320P1abNBxFvkuwKqZZfQZKHn4g8tux6jvwLldtrwo303dTuTnTi/1lXWrNrVgzvirKR0K5GR/KnF8ekWLag76jykUPOSSlYkTFoG/d+orpQX1WFPOreBF2b/ycMfVBLZQPrr6x61uU0oAF0vo2Ym5yPWYl1mFWfD1mJjRgZgKBWodZSU1wK+jAnPBSOddITXWyHJjiCQwjAzhQAXRwV5UGCBXXMlKkGra+arl8uJj1SSplYcgRRSq97ZGBtw+k4629Blh3J+P1Xal4zS0Hr9jfxKhxEzF90jgsXbr064J1cFblCb+xN2owKaZe+n32/fOSmrEguVmeXMoc0WKww5xf1aC/2miJydbRWG0jFbZN2mkFWAJY2RTD6wdExqllmNn3ZBMq+5+guIs5TU/xxxe8YfvdVFH9MCB7pUcg7rFyKZwHxPRZCwXUvs+Em8kuKl1JAtTPmh30mhvB6iRANYz5Es2itrMIUjumEzJJn8xvLndT1cqb7KdK5q8y4HA/VZjfdH7e6FJi+6sIJeqp/EyKnppE9rcJc4w5dWZCo4B1enw9xt2ow7KMNrhlmzEx0IRJklSozjZq84OKaimUpXKpqsL+5imwcrFc4lpyFbFEUslL2Qq1VPOuUVXf2atm1Td3p+JN11S87pKKV12z8YrdLYwcMwHTJo7F4sWLvw5YB6vqs08+AUE35mYNZsY3YnZ8HWYn1kkcBvUqqa5SYfmFsp5f1aDPGI3VmYoEYNvCFobVVLfEZIV51Wt7fjtS2x+i657OZPp3nV0VK17R+0RcSj/79W+E/f3uZBo+FAzt1ojp4VYV2XxvPZtasb28xEYSidm+6robzQ4qNZ/RoWR8FVBV2yvZSfnK6yuLHXQmceGDIOWcamF9B8kkavayRSNKA+dUw6FkOJPE+JDWKMYHVlTRU9n+GkClRMPP7cx4VtRGTEuow9S4Boy6UYtN+e1wvN0iOUnKpK9kGgZ1U09V7S9zlbhRw7RCVlRtKdT+3xyMOKakGhogaNYfcpguJbbAGXiLUo27IpXedEvFG7tS8frOZLzimoufbI7GyJGjMHXiOCxatOirg1VEcGNWvdXxGKOv1+C9W7UykJMJJpPGQX1uUr2qsGTckjjDcvuelLmaXznDMvKRM6yaX9UXXfmICdg2dYYv24x1Wa1iPSvrfYpOpvPz5o2Efv97scTsKqr7nqLA/AjdT5VMo6rqd9sCs8Lyr/5f/Ar2OWYcKO2StTYeEVPxK2q9jSYHFcNCkDIxX5nxJRivqBtuhT0qjFszvgUkkzrgwBQResU1kWSkPYhSQB2eWzSZqvXdwBlV+A8Vesbxitq+vASwhkMpRVdU5ftlMZGKKnMqK6qaUwnUKXENGH6jBk5kgmPrMcI3DxMteqpxtpHtr+T/GiFohqYqAWhsf40QNJUAwYqqt2roVMpSBogDbH3T8LZ7GqSq7rqNN3am4FWnRPzENR8/2XgOw4cNwZQJ47Bw4cKvBlZilG4l/vXLP/xeHEijrtVgSqySbDiUs++fFV8nXwgO7TRE6/mVgCVDTDGauaxsUVaQcEpX9DpbYso6DFzmkrCeYdnmrMtqg09lryyltww8R0XvvxdQhdXuf4wStr89z8A4V/6lW9Nv/11VVN3+/vbTT+FR0iOhAUcskkyfpBweKO207KASrKymBKq6Q9MDtYuqcrdUGqEy5HMfVSJZ8tqxPUc52rblmWUTiwvk0voat2koz6zPUkD9jDk/3QCr0fpykZxbNJaKmtyMecnNmJPUIIQS9VQBakI9phGosWpeHXurVtI2l12swGi/PMOlZJIrcGNFptFgLQAzlV42P6itGiZAEKTaqZSFIYcyIe3vwXS8tY8GCKWrvuGagtddUvDaziS84pSEH7vm40frQjBsyFuYPGEcFixY8FXByjZIfUh4n3PszRqMvF6DqTGqdZjBdkIE5UbMSVBUOJk2BVj1BePMsJiitG5TSKsL6WTtclLGf35DtHFCWuQcMwKq76Bt4H20DXyAcoZr/xvNsBV9T5Bnvo/3DZfSd2d80DOxIpT4kDjbMCBmhCMVrKYkkCjHdAlINdPL9TaaHFRafjcY5s62d6cRGSpRLBIbqjJ+CVReeZPZNK/TiGQxcn5lgVwtgqgMJQKVxgdlZ6WGryoqTQ/s3qw9v8qgTy2Vn0VhfhMp06jWl5/Z6XENmBbTgMlxdRh3qxZzUprgXtCJKcGq3Z0QVCyMMA8hU08VQklygLmjyvAz9WJFFdbXJxsjGNUi62+ZhlPJqKoklYT9JVhTIe2vC2fVZLzqlIRXHJLwI9ci/HjFcQx/68eYNHEC5s+f/1XAqp6s8jTHn4RMGH6tCuNiajE5rh5TY+oxNa5eTBFk1KhV0QnCGXYeZwSjwgrhlMLoDDXDkiW2kE6sspw9tPHfME4QsGx7xPWU247QugG03X0fusL+OwC2qu8JTOaHaH1A9tdqdvxOXEoklNj6qvY3tusxNmW2STK+RzlBqg34KnlQnV7sEUlGBXAPzqc04vM0CiNo6Uga3JzpwPa8NjE7EKz0iovXlxU1m2SSukmzPrMFNmJ4oJLAz4tSFpSNkJ8ldm2UDBnN0oRFSUqZoKRI4lMqqjC/ivUl80vJcWpsPabG1mFiXC1GXK+GTZ4ZLhktGHYyT0LPxgeYjOxf2glNKvv3NKsqw88Y06IIpZE+yvgwuP5mZSmUOTVd2N/B9jfFMqe+RqA6JeEnDkn44a4S/HjhAQx//T8xceLErwZWmVWNWeXeL38tjNqwa1Xyh+MfkH0+/8BsJTi7cheQLhBqV7Rw8YkmGmyy0mAXasBatcQUr0k6iWnCYvyn04nfKAVYarMbc8wIqVMV1mxU2G/yvMY/o5GC3t+i9kf41e/UASnZcvrOgDpYUTPuPMOW7DapoIPkESNCWUWNjCQaHOROqtJOGRMqUaGFRl4SZZk8le4gYdz5ZnU0iiClhiqRoYysZbKIIpP4wN5gPLA5o9K2Sq6Dnxd2ZjJSpTUJUAlWcSclUaJpFIlGDPpsfVlRDTKJFXVaAkHagMmxtZgUV4dJsbUYfr0KLiVd2BzbgHd9csGDUu/xqJRO1GeekrXvly4lX669UaLRLqVcI/2BUS1ZyqXEikpNdW+6+H/pVHpT2t9UvOachFcdCdRE/Ng+AT90KcZPZttj+Kv/CxMnTvpqYNWkAitrcu9TjLpejRHXqzAxthYTY2vkDzo5tg5TYhswTeYANQsowJIhbgB3BOelcIZtwoIk5XJSLLF6GuoZVkBr8RKTeFKA1RWWP9+Y0y7Bag39z9V2Tu+/sKzT/0Q01W69o2pINd/FUrn19z174H1JXWBbu9/I8N1naKbC8lptyuwWk4O6Pk7boE7KF3+vEWymw83o8VU7zR3qwHFuKzbnEqhtYLoIyUZ2VRYd1Th3MQjUJuE+lqa3SNjZX8+obH0bMIsOJQEqq2odKNFIRY2pl8/vxNg6jI+pwYS4OjFsMM2Q4WYq9cEw6NNKyDZYV1S6lHwLRJ4hUGnS5+obkwolU8kzUxbKOae+Q6DuU4QSgfqWWwpe36XmVAKV7S+B+iO7OPzAyYRXJq/C8Nf+NyZNnPTVZlZFLKj260h5N4Zfq8a4mBoLWAlaPpk4oJNwImBZYTnAz4pTojN3BOfKgN+EBVJhOUsYpJM8FbU1USXOsSWWXVixJqpLX5xX+IRdl96G9dlmIZ3Ke8gSvy+ZTf9qLTHnVN6QJbH0mz9+m1lKei5V7/x+azKRD+ik3ifYmNkC1yJjLhWQqgPGe4qV+Z4srz4OxUrKiFBLTpIRv0K2V0gkkWVUugOByraXu6hKQ20Ht7HYTXH/mZ2VDjljRbV2JlnrqMrv24yFSQ1i0GdhIJlEoEpF5YwaT+aXQK2Tijolpk7mVHaH/AyPuFGFFVmtcMtplwRCzqhSUcWdZESKSpwozzUy+IxAZVVVsyoJJQKVSYUWPfVgJt6WPdVBQulNN9X+vrEzGa85JeIVx0T8ZEcifrQ9Af+1PQn/aZeKV0ZOwci3/guTJn0tsAKPf6201eHXqw2gqj+kgDVWza8ELFsLqbCssvRaUtJJrMccSjrcckhuxgJjO1+xxCSdVMSGqrAGYCXcSpmyxUucQXuiBqySe5h+l9nxWI4uN9x5KsTTP2Mr+3X/mzir9jz5BTEj62jfPvP7FyugvsBV80N5QBKMKg7UYHiN8xVcDmcldStULiSaG2jA59Vxiwmf1dR4MeBdRYXSjN8uUT6souLxNYgkPpDlwLEAld9ndTuVIxI7LwVSdeZCVdRBYz7trkImcTeVNkLd+kpVVUVEJJrYOtX6xtVZPstDr1XDuaQb2+Ib8I5PnlXrO1hRyfzq4DO19qa2aZj9O8RIKRwmLiXF/spC+QFlfOCsKt7fXQb765RkkEqq/f2RXTz+yz4d/2lzBa++9RZGDnkDkydPxoIFX0m6UXMLF4xpcGZlVS3wIFjZDqsKy+qqXhze9QzLKkvSifqW2BKlJVYzLIknejYZBbk0vVExeoZexhgOVtiXiSe1XUFCqk2Csy423UPTwDO0y01Xwzgheuz/YyYKS/aUYrtNnQ/x8W+/faM+eQkVJKAY/1/98Y8IqOsXMsndsmvaJWcQmYlE8oj3iXhmcVehmkvFMihpDjoelPunaq1tB9MHmQYit1IZF6qjQo20fMawZGsiSY0+so8qjK8mktTyOHV6SSSUnF9qqNTzaSEcXHebm9gg+r/IM8bncLqYHlT3R2J0ogWoNZYWmJtAc8+XYbhvvrC+ozmjGq0vgTqSpxpFS+V8qiqqML+SUKiTH6x2VD3SDDthGt50TzFcSoZM45iIVzinbo/Hf7Gq2sbhhw55+MHSk3jtJ/8LI0cMxZTJU7Bo0VdwMKnHOnDN/BAjrlVj1A3dAluDtRYTZIZlS8wvCEmnBkw3vlBk3mbFkSVuwOykOswzdFjuEhKsNE8sTlGyDgFLZm+F6GZWWqwI4GqOFQMFNVhW33Ru6pjhW9UHU9cTdN/7UC6ml/c9AlvJr1vV/tH/XlHXQzTdf99gYj/bqn4bFVYzvt0/+5Xcz+XXVCSYYoZrD176I0hZSV2lmqp2l7dmyPJKNKgR3s5caN41YkaSrqYEqy3JIyNDWm6lSlwo9XUFUtX6KmWAgFXzKQ9HtWIFo0P5UJekB8X6UkcVoBqsLyvqLKmoyu9LmYYzKonQKTH1mBxP5rcOE2PU51cTSwz1ds8xY8iJPGV6sMyoyqFkqagklOTsBQ362UZIN1tgxolyk0Zt07wj2zTG6pvINH/d/nJO/TGBui0eP9wSix84luAH0+3xxg//B0aNHoWpU6diyZIlX1664TfxBf5sSDbV4lrSlfSvK2ytfBHUDKtIJ36hCFbLHBtfK6QTt/I5VyjActYgYA1pR7ydyt/JtocrdpYqK3Mss50Y38FvsLItssruLOzAlaZ7qLnzHB33n6Ou/5mVieKff5Fd5m6pro9R0P4AD37+sdEBf9NgHTQ66MUMfp+z734g7CyJH5XawLu5nXA1dFJ1sNiqkkrQtjoGJdlIOh8p3yyplXZMHjQsg3o2VS2vypHeJHq6ciSRPJQr5ML4tsr3Wxny+eCmKV/tSct8qscoWlqN7CSL4SGR86nWUXXrq7o964o6wegG+Vkedr0K7uU9sLleize9szFWV1TN/JJMknRCw+8rmzRZGHKUIGX2b6YY9LmfKnlKHjQ+KNMDzQ90KVFL5Ytz6quOyYr9ZVW1i8N/bY3DDzbH4v9uz8YPh8/E2z/6/zB27FhMnz79qxn5+WnhlWsSACOlBWaf//nVVYOXTyuKzLrCsiUmYDngq53BBsxJbBAztcXplNKIxckNAlhu8nOjX+JhmJpuMVAYjieRd9TcaiMHh5SRm1V2Q7ZZDlzdbn+EljtkjN9HjWUR4J8fsCJF9T5BWecTfGxcffs2Kql2JPH7+/5vfidpDzYZrRJKpuUXgnQXI0Dlyp9xotOYSR2NSFCGbMv5CsOFZJ/PqwtqSXx7bqfkJLGS6mqqJJk2EKjqYasIRIvPl7KMMZ+q77/SUC3V1LAPcj5VIWfcSWXHpriRmXGGGpHQKJ0dO7wp7PYoz1ha38GucPTNGsxNacKB4i68d7oQI/0KjHU37fml6cGEUSeMtAdKNMxRMgK6VZo+JRplJRTml8YH7qiyotKkL77fFLzmnIxXKNPsIPubBJlTt8bih5tj8QO7dPzHuov40SuvYsibr+C9997DrFmzvsqKnGqC7370ayxNbRIdSgPyi9/ZYtRIhSVg+TTjHMsKK9VVmGLOFJR1OMMaFdZiT2wwEidasCRd6WeSOiHkApMn1FNXzbIKsGyHyRazlVIHcluFwDhV3Y+MzodoHXiO9rvvy0V1xRoTtP+8wC3tfoza/mf484s/fUOVdbCSKo/3oH5adP+ncC3skNQOtrh0G+2UezKD4NSkEYkjR2OFTUgjennlHmqHLF3Y0dxgbMmoSqoytuTkIrdljLmUJnwLicROSXgJI4VQXyA3vt/UTqWa8ryFbM5wcZz70yrgbE5yo3yOqOtbV1TV+uoZVZke9GdWjWyUHWsx5FoVnEq6YZ/UhNe8sjGGEaIWeUZnKPHkhZJndOurmF+2virzl+b8tw8qfR7XwwAAIABJREFUg/7be9LF90uZRtkJk/Gq6KmsqEn4kSHTyJxKoG66hf90KMJ/zN6LV/7P/8TQoUMxYcIEzJ49GytXrvwqbTDQ+sFHMrCzXdB/4C/zzgrLLwglnakxDbLVMCOhFjMTDaY4jk9DVlhlTRSm2JhjSRzwpAGZYqmy4nhSRm1ZBDBiO1TyhDqPIOt2Msu2yD1YPq3tCzoRVHMHWR2Pxa5Iqaf2jnFh/J90pi3sfIg2cSyph+XfX1l5MEwfDVO/5r2PP0Fw/YCwvdvzOlQFpeRi2AIZWMZUQb64FaP3TAWkcqOoHSSOdjAPSVpdtSFjl21cGqdmKvOpNjhw7bFZQMpuyKKdMoKFUp1UU51AqPKSeIVctb1W86mYHZple4aSIDkQXn1TQG2QzxbVCKmosfWYLNIMu8FB5ld9dmsw7lYNJsXXy1WAGWGlGHI813KZnDdUtTuJQKUzydqdJK2vZyaGMvPXEiVKg3662qYx1t7ecEnB687J+AlN+oZMI6TStjiZU3+4OQY/3HgL/9cuH/8xYg5e/4//geHDR4hsM3fuXKxZs+bLgVWn15U/+ikmxdRg+I2vBlYLoFlhKesY1kSGKNPpNDOhSfRYJe1Qi2U8jFoAWJCiNDPOsTRQ8JumomKoyer0xBaxnVkY4wyVGECSgjrdOoa0yd4sU//bBbRp7Y9klu2694HYFiv7B33GrLr/WFJKVXxmAPdYtmv+ftO+ynZW1fSTP/4RiT3P4FTQLp0IySFqovrWqZgY/v/2rgO8qjLb5r03772Z0VGBVEoMCZAQei+ioKIy6CA1pFAFpQQsNBvoYB2dsY8NSG8kISQQeickhDQCoZcoXawIilJ01vvW3v9/7yEGhyjWp993vDc3N+Hm3rPO3nvttdc2skBGUTK6VsQgUVR2oJI4Ikh1q4KL5TXm7SK8Z/90oVsu6LZese04Mv3lsnZRWjKMqMa3i58vuwPUkvOCTTWSEEnimM+090LfJAKV5xOtcHsYUT5TX2Z2DBau89CQoPyaQ+bNYjZg2PIKRGdvRmNGVeP0oEDlBA1tWXSAvJUhk2xEDTURNZSGZ7QS5SA5fZRMi0Yjapakvqr7nYuAUeynpsLfALXekCSNqsOy4dP/Tfj5+6FJkD/atmmLbt26iSAiPPwSDdOMJBRL97+P9vH50jiu7g+/lMf4pkkdm1Qs0kQCllriHqlueSLrDidTTJbPjtndPo9scQn6sJa1UdaM27mmd8gYC2usqhdbE7H1IxF4AbcAbMXjebuRsvkA1uxSF8Utlcd+Vgucl291OxYyDtYssjLl/Rpff32huOGrr7/GmgMfYNqaHRiUXYbRS6ku0nlS7o7RCMqN9Nzsp9pdWU/hAusWjOZ+3SUVmuoKy6tRVNZWiNWKEkditG3EDSJwcE3KUIRv014tZzgqSfafAOXnys9XomlWKW4XA25Ne60JtwyN04lw7kbj8KCD4wQrJa8MCCy7qqtPnecpxzs7JW/Cg3m7ZJ9NyPSFaPuMEeZT72tYX0l/uZeGZmePqI+Sih7ook9CiZpfW6PORzAjqsynZsp8atAY1qkKVDK//iNShVBiRK0bmYi64fHwG7UaPl3uQgPP/0DT0FAXuUQmOCoqqmaRdcU776NDQgFaxVfXY63+yuV8Y0hISZ0gNSyJJ6pIWMfqFVEm9UVPrIoTShQZYUVXbNJi7s0UtljSYjVqdoLW1rJMqeTIKRV2Udo8VkxhXO/IHLM18cCqHXh10z4s2HZI3Owr9h/HVpMmuyOuO/L+KO0cuutz4P6QnVutKViVObatGIK95L1PMHPDbhlDHLZoKzj1MpaCejP5InWoiaIc/h5t98iQNGILRmSBtFfZJsPgXKtIHa+ojly+verdq8J7bl9Qtw+b7kqbjX1TtmMcLRkOcyhY2Wcv02jKz5z63owi9JrH/mmpDIUw8yLPIS6EZnikx1yVD95AIola3xQC1Z6T1RGhWquGxuRhxIptuG/BFjR6dCHamE1vah2qel+mva4FUqJOWiAKJe6l0YiajaZG9MBBcvooUfPL1DeIg+Rj09wKJalTU6Wf2oBAjUpEvYgE+EWkwDsqE76BzRBU9xo0a9YcHTt1knq1RibfNg1WsH6/yOoEb9dUlScqYLW1ox44pN151TSuExawjLBMi8WQjYoVkxZnF4uAm1dl1rHS4pEZWev1pMBlS4DOd0yPVRTOSMsozAH3cty1tAKPrd+NWSWVWLjtoLDHXOGxtZIOi0dl8PtHASpJL1q3bDuIssrjoCcvQXcpkbVqTUqQlh4/ISwvHSQJHqazFpi62MkMfQtQKQckUHUVJxeG3bVYmV1n+8UNUDrgK0A5HaMG2yT6+D6re2WYWK5wSka3MlgVkn5WbjWSLIhiROXEjACVTK+SSALUjBIzNaNz0yJ2kLRXiUtVzm0CNepusYMFbJXblI3okJiPzikb8UjeHtz80ioEz1gozvkXan3p9LDY3UdlfSpev5r2itvDlCxjIWrcCWnNIppfM/J2z1xcOzpNpYRMfYcno/7QJNSPSkLd8ET4hcXB967l8O4xCXVr/yeaNGmCVq1aiXKJo3GsVy95fYYF69LK4987DXa1e0wdIUwxr4ZJ7okdtnaEKGBqzKkdKp44CGBAy54a02IRUZCAEo9i9YMVqaKIKQhcNc0amKMMI0eq9ITRWUgC17LHtq4lORWWuwWjl23DjPW78GZRJbK2HMDanUdRupfAPYrNlUdRtO+IazO71reXk1nW37Vu5yHk7TqKL85x0oZgVTZXQeu87x5fU9oIOP3VeRQe+QgvbNqHqFy2tDZjFPufcmzVNNcQRPcYZwapRZdsk9WJ2nZhLaqEEVnd4RwEl/YLXSjNMDitY8WvV5VHchFcqOOMLEXU1F3LEo2kKiN1ywU5xFEsDiJ3zC9D73m8CLM23SSmBbeZjW4iGzQkktvYzHgm2fpUiCQGAO3zW7bXGSCc90Nj8jF61XZEzy9D4MMLVOcrDg8UPJBIygUlhDqTSr2vAjX0QV0eZWWEOkCeLalvY4rzx2ei8Vgyv9T8pqPhaDK/tpeqQK0bleBOf8OT4TMkB16BLdDA63/RNLQZ2rVrhxtuuEG8l1ivjhkzpmZp8NqDH0g7hiNEzj/6u97vmkTFU4FcBW1rh6mxS0DBvqzxcKUaRSZ3yBinc9zODgOoXJEuijojyw/fUc+aFoBO8uigMtNfGkCrFSqjLV0p3NEgLNt6GnNYoFw229E1nis94soqkVNxEGt3HcamvUdNO+iYLNEq3ncMNHWzaxc1Cn+31hAvACS6llW8i6OfnhIMWrDKtA0oCXS3XviEc19/hV0fn8L8PUcxI2+3bu4jSBdzqLsCdy/X1RMipGdaa6KnJYkIUNbyPDTFVaURoygXYBOg0n5ZpO0XBelmEfiTF+C6CjVwN2sr5OKoDK8amOn6CpYtzIKkHWMNt+fpXlQq2cQilK28TDoPGpvQ9ELxSnIBdS55Ds5Qq7sDBflSn6aQNKoSRav5um18Pm5MLwZNyLv8bTlCpi9CG2NwJsokC1SXyZmOuhGobM04+6i0EJUalakvNb/jNKKS+b12NKWEnKRh6qtAJaEkdWpYAvzCYuA7cjm8uk+F7zUeCAwMQPPmLS7or+rKxwmXBlZeyflf+fETkp7KHGs1b8B3Bq1h5YR4cg0BKOmkaTEHAdyGbNriKTUD7caygz5P6drm4RWazXOCViWLah/DtEsUUGKDaqVsmpqxvaN1rYJWwLuArSAeW9RChAPQixh1K8Sk+pn8PXi7qBIZ5QewZPthrNt5VBjmkv1HsHn/EWzZfwyb9x9F2b6jKN53BIV7j0i7qECc9A+DA+XVH4ckahfsPYzV29/F9kMfyPtf9X/n/vUVjn72BTYd+wRpO4/IRnGqjggMpqMjl5II2oq7F5eLiJ41KNdq8jFZkSgsrjrbsy86TET1W8STVyOoaneHLeK2+q0yBB5lbFXI6jKKiuDeJba3F0F3G4avhRdKDoe798yQICSrrwx/bxE46OdIe1DtnXKVBWtTGhho2ivjbXNpIeQeb2Pqyw4D61OC1V2nXhywDBDNYvPwQN5ucdsPmJajQGUP9a+56vQgrvl2esbOpBrvpGnzlUyif5I46GeaPmqmeCg1HJsuLRpGVEoJrTqpAXupQxJRTwilBPgNiodveCq8I+bDy78J/L1+j+DgpmjTpo0rBaYT/1133YVJkybVDKzvnPgMfSiKcCmYLv6G1AS4ciU043asYy1oyepxONiKKNTjST88yhSVgFLhNtMl1rPqRGFAK+mxEVSYSQ2ClyeNRlolOaS/ZwgppouMDqxrNU1W8ApRYmowiSK55QjLLUcET+QlWzF2RYXsJn0ibzdeKtyL2cX7kVb+rkThpdsPY9XOw5LSFuw+isK9R1G0lyCm28V7omEu3XdMbu3XxXsV+DRIW7XtECo/PoUDJ0+j+NjHWFJ5HDFbD+LJ/L2IXl4hkW1AdokAh+mqOAGy77lEa81vtFYYOZfolnlJb7nFT+pOSxaZdZyLCNByDDUuDbwAaC2q7w3fH753fL9YXgwU4s6IVVy7ZViTqlRQHBwobsjWz0fqUtngYHW9xnZFalOWPzQvUD9fXqypfqMQX72STEStRo30zXPPTTARzC1iNqBf7mY8snoHQmfkotn0XNX5GiKpuaiSFgqJJKkvN5JTmSTD4/MRPDlLlEkaUbPQ2FWjqtMDhfkBrFEdZJL0UdmiiUxEvcGMqHHwGTgbPsNXw7PTSPhcxagahGahzdChQwf06NFD9MARERGSAj/44IM1A+vJs2fkytwqjqzuv5cbfvNNu0Rw2/YOoywBS8aP/k4yRcEIq2sOlIBiPasuFKT12YeToQAxctZ6li0Anig2/VLnOzoM6LgVr/4kmtin5SH6VEmVtWlPlY2QUsYmVYkapn/6uPZzyxFOJ0a6wvOkNjUdoxkd5sk4P0LH+vW78fSGPfhb/h68WLhXLGpoU8P7cmzSx+g1xedxr+lDa3ZiwjKtJUnacI0mD4KFUyoyqM0dt+IGaDyMzH1LCg3jhMsS3X+rLRZNay1RRJKIDLHIAI2NipJFalxn3wMh6WirskAJI2mHSUtML3xk40Wskk1Bg4oa+L7LIigTSaVnam1BjQDfsv7MmtR1sBA308dXQMpevGZatA7qllwsbK/yHZd4TplMsH1CPjomb8TjhfvQ+7V1aDg5x72DhvLBR816C7M3tTm3kYvW165jNNFUtL4aUUXwIP5JVvCgwnxNfVPQgOJ8kkmMqALUePgMjIFvZDY875yFOp5XoYHfVQgODkHr1q0lqlIIMWDAAIwYMQL33nsvHnvssZqBlTXSE/m70SKWQn731eo7g7LaVJq/V3+3Rlh3i0cdKGybh31ZjtzZWtYhphBBhUmPM4pwR6YFrbVCZbRVdwFnpHWu9mBdy6ih/VpLmFhwulNlekMRvC4A5/J7WxCeS0EG02eV1Emvl/dzWdupHtbeEghiAibfJ+jLRdvMdRDUOEcuYouJ98vBNJSD2UxNGQ0FgGYmlFGSQOTjXC9hgShkkLRW3KSQLgLTfijlfzz0b1CjdTv9wguCtF3Imkv5oCmuRFLR7yrjbkGqLRjtlRKkNpqSBKSDg4yysRVjVleIN5KNpDIkTh9f7QYIQJlZpRbjepcaSTOvS0l33eelPacK0XTOBoxftwPRWWW4dtJ8SXlFkfSYivFDKcbnLCoXRskmclOfsjVD13zj8RvMHqpYsmQgaNxcnUkVva8VPLCPSr2vYX2jEuFngOo7KBY+AxPgPWQF6jS5Dr5/8kBgUGM0a6a9VUZVmnpbYmnKlCl48sknawJWrVszdh0G7UdbVzN87n5zana1u9jPqUzRrSsWjyejLdbpHWUDOf5EAurmjEK3ZNHMyjLS2mjL2khmZsWszRJRTNM4euVOj11klLWWkZYDT1bWZHoMztGoK7aphpyikwJrOR4S8SSFpIJHfYQIMoKNwItaROApCHnrOvg4iRwDILHgNMAj+NjX1MPWk+U6vC2R3A5ws5XCOtOwtkxxaZAtdSddGAhMFdEzO9BeqLoyWHDyVkX1/Hs13dVyQbMP2ydldqIMvL6PtJiVSGpH2ETUUCYglYzHeCLZFYuMqCxppC6VlFfN9qTnbmtT8fdi2qs1qZwX35ANfvs51zW5AM1j6AJRjsfX7ZJFxsEPLwANzlrMoFu+Ywu52Zeq8kE6EapvUsh9lBBmocnEDDU5oyMhtb7i9JChwnxDJvkP14hKsEqNOjgBdcPiIUDtPxs+Q1egdrf74XWlB/wb1EMwB81btxZzNEZVaoGHDRuGCRMm4JFHHsHzzz9/6WC10xlcRc9o1kLA+kNFV/PGc9aQjW0jomD/jFpPt5BC1U+8ApN8YJtHJIskJkSyaGxQSVpITct2D+taLtFVGRtNx3n1dzHIRhklhIgxcOtv9Mc8QWXHrKijjBoqR/XI4nds6lyNSmrwxhpPyJiFpW4gL9xswGikeEY769LQimEY99Qa8FH8TgaWz+P3xALFfF8eM9+jywJ/RryL2FLRaGmjvvu1uDMDpvA0UWf01D40U1w7CKED/3YbG1sv/XL0omZtPxWomqn0oQeSyANZk6pfr5YkLE1UPqoLiykTJOdgyCN+fpLy6lQWVUgUymhtqpkVp2VoanaxC/u/e7xtQj46pW7EzKJ9uO3lNfCflCVTM3R2oFM+e6cX2LA8mC3mZsGTVD6oRJJG08ZiG8rpmbkQR0JHRG1A1ndYMhqwjypATYDf4HjtpQ6Kg0+/2fCJXIg6fd5GndpXwM/nDwhq1BgtmjdHh44dL6hV77nnHjCqzpw5E6+88sqlg9XOO545fw7RKyqEZOIyKutd8+/erO/7fUl7hO1T9o+aT36YrsF2zssaEoKRlqClbFHmZVnTZpbKKJWta1VYoe0CMR4XhwoHaB0jeZIqC3B1qZaA1g4QWGLKRiKTLtq6V0BA+0zDnArLbJhURjSJarkKaEY5CyipFyXFVqGBREJGxAUEoFt8IFHcEEBy3+y8tW6A/H3aVtH0WyOnzozqa3NnCwJS8/do5DRLxGQ0UWt8VxTNZutF2y+Uf5IXkPdRWjClks1oVmPdG6g+KpG2m42kXFshDK+MTmorpjuBSmtb4zRCptcKHC6lJVP1POPP0ASteewGTN24B3elFaH+/fMkstpoKiTSQ7RgsWstFKhibnZ/lqa+9zqAytbM2HTtoZJMGkVLlrk6PO5IfetFaI3qOzgePgRq/xh4h6XDMzwXtRqECKl0bWAgQkKCXQzwrbfeKrXq8OHDpVZ99NFH8be//Q1vvvlmTcCqaTDbB/SNbRObLwbfNasdvvuV0TUkLJHWzsmSbNApHjt6J4MBUvOYSJtG+t9GWmUb2R6g3lg0xzI7yyt/qTbkXcMCtA1hv9bds2V6JyeraUewTqO5NNtBPAblbDHb3TUiaYTiEIEOyUtaKTtp3WyqtIYIKMM0s44loIS0srdm7I8D9pqemkhoiC87ZsafIQAlWppa0w1IM+trpJayaJh9ULHMYSTl36GOHNJqMbPDFpy6iU09jzTNNZMwTHNFZE+OwDh+iNLMsPTGIE+0vOm09NHpGDdImR0ZqaCA1MgFq9X12trzUs8jzfxC5qzHqNU78NCyCgRxt8xDOQ73wRypT7l7Rp3yVYyvc6g6ixp8L4kkDo5zckbTXrENdfRQqfWly4NEUyshHBwP3zAFqnf/OfDunwjPIStRK7QXav/RAw38G6BJ42C0bNkSnTp1krlVbouLjIwUBtjWqi+99BJiY2NrBlbTbsXBk6fQJ7NEiKbvcrWrevWr+df6IWhfTQXbZI3JFKqgwpBQMhxgFuTScJwqKGOipXpjRlutaV21LckoOi7OM9FC+oHa/lFGWd0KeBILeEV0YRlQBa0FL1sZ0s6QaGWJGdPfNQwqAc2aUAUabjLHgkxuuXyJI3+W7LFRXPqbbuc/V23pMsHWWpO/m/WmMLeulF5fKy82TPP72b/DrDXRnqgV1uvfajeGSxSl0ohRVABqQJrJDEatZrn2U/bJsCZlymv9kNJMz5S7ZaQVQ5PtTaCmV6KpZE+XIBe8hJSYgSSUdWruFjyZvwetpuei4aQstDA2oc3o5+vU91qrULPSQnx97bIo12oL1fmqbWiqTM80GOGoTzmTGpGAuuHanvEdqBHVq18svIauRu0OI1HnDx6oX88HjRo3kplVtmroBsF9NuyrUlp43333YcaMGfj73/8uUTU1NbWmYLWytn/h70X7QEf+NvH5YPFec8Bd6tXx4s9z+z1xVpbpsXo+8cO30zwiqrCRVthjNWxzqqEEuKamstFWyRAymKXozWibpfUYWxA8WONKnWsWbbFdYaOQal5Z2ymIRWbHelcisFH0MMIRQOZxCyQdmre1ot5amaSrTcKN3jKozchYqjWmfM2Lg5pf2/qaQOShr0FvyXoLGF3RUzOGO7PL1TrFrJ+QFRSW0eXFixFUrFTUoIw7Tv8szK6tRx190gx1slTiSDkF91A416zohVXnTbVnquL7SxM2/LvzjUBtEZuHmzJL8EzxfnR/biXqTcxEi+nqkUS2VwkkeiVR5MDeqcN8W+ZQ1ddXFEljacOiqS8tQ11iBxqcDU1xRFSmvqxRSSYRqLHwvjMGXlHLUPv6aah1hQfq+lyNoKBGCA0NRdu2bdH1uq5g+ktSaejQoYiOjgb7qk899RReffVVxMXFISsrq+ZgtbXr3o9PoVd6sUTXf/fG/VDfd4HVeBYz0hK0eihBoTOzbiKKJ4m0fFI3oScJKaM5Zn9PF0GzZ6tWIb24xl4OJUgYcZnyCTkl4GX/UJU4jDpMFSX6GuDKXKb1kTIAscSVpNCiXdbIJtHYQWi5Aa7g1jpZAa/1pE2/mbqaHqcB5kDTP9aLhvsiYlN4jZp2ybCOo9lFYbzl4jDXeJpJcXnxkraLDFE4wCneRyTyio3iSK16SEKS8JN9MuK/pQPhjKYyFC4yQTrhc950E7qk8qJcdTD84hfqbzunCFSa0HP07amSSvR9Yz38otOVQKLA4UEabvMwbRkHidRE2F4jG2TaO86d9lKRJEC18sFhjKgpIsi3qiQB6qA4+A6MhU+/GHj1mwPPIatQ++anBah+nlegYWCQi/2lgfdNN9+EPn36SPprSaXHH38c//jHPzBr1iykpaUhNze3pmDVMS0re/tnWaXsBWnFZcqXkJZ82xv8vb4nKhb9oPk6yBozypLqJ3BFCSUtH72i21E8XumFQRYW2WwNMKAlGcIeoKZ1VEfxZFVjLjc5pfWagtc9GG/nbaXmNeyyzGmKUIAklgWKAkkAbCaG+jMaO1JR1/eMXM/1tUPCZ59PJ0j7fY3yblGCzomadNZES74+IYcMOO/IMtGT4hI5HCUCN4WbNFcnYLg7Roe/ZVxtLkUMVetRFTN0F4mgfg4XRFIHefS9Pn/HuSdATcgHPZUeK67EsMRC+I1PN31TRzSV5VCmJSPD4tT30iZU3QfF1GxsumF754oNi7rl6yxq/WEaTZ2tGdan2kONhTeB2nc2vCKXo3bPp1H7mt/Dt/b/IiAgUIBq69Qbb7xReqqDBw8WWaFNf0kqvfHGG0hKSkJ2djZWrlxZU7C6x7QI2OOnT8vCKDJttMawYobL9cbX/Peo55O8DlfLRxdmsR7iiaI+xlrTSn/WMJGMttr6MYSUkTOKa0Wme65WT1gDWkZgTv+IyRuN3nRsTyZHXKkz02cequJhBBYW1bj0sb+rJFYJ+uRYlRUFG0pssS6uethWE9dlys/zd5rna3rOf0N/Tplat23nBRGT7SuZctE63bK3tn7n38qygFpdl8KIwnrTGpNFxGTdpXVmLFWs7SyF9jQrI2kkh148XamuRNHLE0n1POF8agE6JDD9zce0TfswNqME9cZnIGRKDpo9mCv2oLJrhgKHSbQHVeuVEImmushY1EjjMtGQaa/Z6GajqWh8hzuIJKfO16S9vgMI1Dnw6svUdyVq3fQUrrnyP+Bb678QEBCExo0bo0WLFiIptHXqgAEDQPbXpr9PP/20tGqY/s6bNw9LlizB+vXrvztYrbh/9bvvy0gSDadqDq7vluZc0r9jBo8ZaSU9TtGUi5GWwNW2j7WVYZpMaZsqZ6wySuSMMlOrLSCSU3LSStQtkVYEIy/BynRZIy/vG2aU9S5VOzzmFStpJWk0Bewa1Shmdx4CatNGcj5e3X2mq1JDGzMxASJ/H1N0uVhwNlTJMr4GBSbbKk7mVpc38bUz7Wc/Wi5IZlUn152IfYq5eIkU0DK6aQpQ7XFToELSqFCkoWypCelnLpJ836VPekla3pqcFxokGFHbJeRL/3/yxr14YGE5/KMz0PiB+aYlk4OmdHLgTlTWplQiUTI4UU23ZeM4bULtgihjvs3RNu6eUelgqkgHGU1lFjWSPdQE+FKQT1XSgBh4M5r2ixOg1u7+GGpf9V/wqf3fuLZhIBo3buIilOgFzFlVApV16vjx4zFt2jTpqZL9nT17tiv9Xb16NTZt2vT9wco5y38U7RPTb67K+6nIposBuDMHBEy7R9njC+va61O0bUBbGWuTekH7xwBYooipcdWN0bSD7KoGE300GjGFVg9kN5CLZPSL419yiOOFul6QxOIgvdwaEoeiAkr0xHfKArzaWwWhEGG2vjQXEAGoaKQ1ndW607asSiXVFSWR428gMLXVpdv/pFdNQb2JoNbdXog7M2RhWd3ulAWaSGrdGlQySgJQDeA7G1Pti31eNX+cJViBAJXbyicV7MGk3C0ImJiFhvdmIfQho+kVFZKdkqGHbyY4e6ojbfPQaJyKHGi9QqZXo6mZQWVbZlgy6lHjOyRR3B3qRlA+GKetmQGsT2Ph1XcWvAakwCtiJWp1nohaV3rAz/N/EdCwkQDVRlTOqVpCieN3gkygAAAfF0lEQVRvnFWdPHkyWKeS/X377beRnJyMnJwcSX/z8/OxefPm7wdWq2o6deYcJq7YhuYxeWgbXyBTMzV/02tyNa35cyXCWvd1q4iimZapazXaKvnhElrYZbsUWzBNTuVMpRJUPXnf7O6RwXhpCXG3ikZfklTSvjDrHGT+1qSV2uO1vV71FhIHDCONZL0o5mAW2DZ6GxWWBbxeCNwpuftrBSTbUnqogovAZOTka7Gprc6LGjtPyv7MEicSRC6SyOwqUoCqxJP3GUWl7WLaZhI9xaCsSDYy8OJIJwZ57x115eU8NySixueDQH2waB8eyC5HA6ax984TtleWFnNzm6S8NNx2eCMJgaQ+vioZ1EHxAE7LGId8Gm9TiO/qn0batoxhexlN+8XA+85Z8BqUCc/wZajVchBq/8EDfl5XSkRt0qSxRFQadjOiEqi0aqGvEgmlBx54QNo0rFP/+c9/IiEhQdjfpUuXIi8vD6Wlpdi+ffv3AytTYZsOv3viMxGC0ymO0i5aP/JDupwfzGX5XWYUT34XUzKHH5SYQJt+n0z7sAXkcszT5r3K4jbhxhQjcaRnlPGNUuWU+iDLSU8FVQangjhAbYBs7FZ1m56yqEyte2WUurymLJgVVBQX2DFAPk+fa28FgPxZo7klK2t/F+/rwVSWbC39mZkR2KjJCw6JIVN3cm6U96V+18F/zTiKQI8jlQFukjqUk1ASPYV9Z4mhw982e/kxPnueY63i89AuaSMeLd6P6KxS+Edn4tqJGTocLsL7bDSRvmmmRNMmE7Q2ZTuG/kiB0pIhgeTe4iYpL+1XDIlEP19he+mVRDE+2V62ZQSoc+BFoEYsRp3+Gagd1BV1/ugBP99r0LBhEIKbBLtqVDoVEqh9+/YFR9/uvvtu3H///Zg+fTqee+45ASrFD5mZmVi8eDHWrl2LoqIiVFRUYO/evZcDrGSI1bGg/P0T6DOvWBrR7RMYYX+GYK3mAiJXfgI3VU84G21tfSvElBFc8OTlSauHHeEikLV+41iXjUg2OukyLjX50rWX6pEsABbCRt0QJMqJjYn5WkDO+3y+HpTqSfSeqztH+TN0gtQLgk4e9XRF+WLcMpfRUkUJOnqmQw+WBWd9ru0s47vrWovIv1EvVrxgdTejiiJckGxEbWUtOJ1tlx8yktoLNiMqTRC6zi3CX8sqcXdqEfzoyTsxA6FMeWmwbcQN4obvYnmNkwOZXrMTtaHpmypI6ehga1MdbZMZVBE5MJrGa1uG/dO+qkryilqF2re8iFo+/vC5wgP169dFw6BABIeoOomiB5v6MqISqBQ+EKiUEz7zzDN47bXXEBMTg7lz52LRokVgnVpYWIgtW7Zg9+7dePfddy8HWLnC3m0xsuHQh+ibVYJmc7i8ijXsLwOwGmlV60wvWQtgjbasc7l+QZv3NuoKsyzgVfcCTQ0ZkVTnyigs5ItpEUnPUfq8Gs0IGJkWmrtR2h4S5RjpvnGoedxNJHbmbkRPPl+eo4MLct+I4l3tE9vnlH9bW1R8fTLEbfue5qKjtboOdqsLg84Qk4TjhUoBqv1rkkTK6LJF9tN9tk1j1qFnVimeLnsHEXM2wHtUKhpOyBSWl+SRMLz3ZphWDAE6TyJpEH2RjNG2bG8bbZZCjUzWDW4iwk/W3qlRI+loW5VoSiJp8Hx4DV6CWh3GoNbV/wPfqzzg799QBA9NmzaVKRquvyBQSSYRqBx7Gz16tCiUOE1D5vfll1/GnDlzQJXSggULsGrVKtg6defOnaisrMThw4cvD1jd6bBG2MKjH2FQdqmYJwtgfyER1l613bdGmcWUPpUnp9a4EnlJpNjheNqpsi3E4QJGIYKVi5HMwDTnMV3iABk4sIIBGsOxBub3HcBmim0EBSrgoGOCfYwpK6OgAk8uBlxWLdJKN5stP2/qawtGtlKEsZULjCNqUu5ngcn01iUu0dlRkkSMoCKoN2Sd3b7mfq9+eOAymnZKLETonHwMXLoFzxbvw5//sRqew1LQaGIWmorFivVDMumu1KW0A9U9qKJCErsVhzcS5YK2No1Sw22Jpnb+lO6DZHv7MZrOhne/BHhGLUedO2ajVlBneP7RA/V9rkZAQ23NNGvWTIT5Xbp0kSkaygj79+8vNapNfRlRn332WWnRWOaXQGU/taCgAGVlZdixY4cA9dChQzh+/PjlBetXkg6r4H/rBycwYlG5SL5axOVJ7fqLirJkLy1zaS42mt7xpOWJaVJmulqYuo1pMw/RubrAbLSvUv8Wii2JtDeYNkvqrNJISasFyDYqqzMCJ4kk9RZWWtNvCz778xLJJUra6KhWOJalvSGVjLdOsygo3VMtKlIw9ad47aoxNoHxY01UVQd41+CGkbLy9XCGmj3U8fm78UTeHnR8JBeew5NlxlTmTF2iBrdnb5BMxxjfXu5B5XZxrlhkO4ZG2665UxNNSSARpM6xtgEx8KEQn9E0PAee4UtQp/ME1K59Fbz/5IF69f3EkoUzqRx1ozMhgUrBQ+/evV3tGZJJTH0ZUSkl5NgbgZqSkiIRdcWKFS5Cadu2bdi3bx8OHjyIY8eO4aOPPrq8YHVHWNU4Hfj0c0xavR1tzZtM93M5CX4iLXF1J8WlPuYCrrx22troIT8vUUcngTRNLNSNZQRvSqGrnWFTSkbg69mHlGisskhhVRnhOMcp0blYbumQYKO1fk8fVxbW9os1qlOAIL9boqN1/rOprKbwytiy3jRR09SfVHtpi8tE0QtS3J9G+62liDpghs7Jww0ZJXi0pBL355TLQmKfkakIMRvaOBWjvVLdKcN0N9COsVmZIHumsl7R1qXU9TKSGm8ksV1RXa9oe41kUKLpoLnwjFqJ2re9iFpBHeB9pQfqeV6BawMC0aiR6nzp9cv6lIwvl0nRSZ/CfPZRx44dK6ZnJJNYozpTXyqUCNQNGzagpKTERSgdOHAAR48exYcffogTJ078MGBVhlgj7Kmz5/BKSSW6p2yUmUK38P+nOQEuFZz//nnf/vrticb616aRQsaIFNKdTmtU1sime1ncoCKACH5LdGnktn1i3WYgP5NqW1B6kbjOIQDh77f/rrMW18eUsee/4cx6JOW9AKw/fIpb3fvN18TOAgU3ESsq8FTxfgx+az182fe8O03qUumTMtWloGGcygMDx6RpXXp3mvZLbSuGO1BNJNX9MuqIz56pjaa+YbEXChwGJGnKe2eCtGTqUDbI2rRBPQQFNUZIcIi0ZRhNufGNliy9evVyMb4jR44UwcPUqVOlj8r2DMkk1qjU/LKXaoHKFg0j6p49e2CB+sEHH+CTTz7BqVOnfjiwCmDtTB2AZZXvITKnDC1jCySVoRv6LzXKVndiVX3MDhnI4yaNtuIMV3pJ8bppcQmgBZyG3DIg5+MW7Hqr2mcCykZHvSAQcPqztrYU0Nl01kT/qq+TX1/wWn8GIOV7Inahczaga9omTN64DzNW70DXGYtRKyIRgeMyEGznSwnUsVxOnI5AChrEVDsNdMCnX6/bs9fIBE3PlAokK74XFZKtSweybzobXv0T4BW5DHUGZqJ252jU9qkLzys8UM/3GgQGNnJFU1qxMJqyLcM9qkx7bX1KIom2LFQm/fWvf5X2DIHK9gyByhrVpr42olrm98iRI3j//fcFqCdPnsTnn3/+w4KVgOViJPvf/hOf4cn83RItqCfmAEBna878czhJfqTXQFC5AJt84RCEO8I5n2PqR1MrOwFHo3Tn17+G+63j89E8Nl+i6RMl+zA8tgANRqXBe1gKGkdnuXbIsB5VkKaL6kgtQNX93qa79dmGsYuKHeSRzJwKgWRY3oExYrniPSARnpFLUScsG3W6TUKdBk3g8ycP1PdmyhsgFixkeinEt7UpNb7sn3JwnGkvvZOoSmJ9+vDDD4vZ2QsvvCDCfOp909PTXawvU9/i4mJXRGWLxgL1448/hgXqF1988cOD1dax/xIHeYoTv8bS/ccxctEWtIvXKMsPh+J794n66zsBfw0gutx/gzOiM8uitrfpnPW4LacMDxfvw9QlFeg6fZFEU//RaWgSTSGDmYShyN70SenRS1sV7jv1H5km9iqyoNharMhKRWcktZ5IsaDw3qffHHgPTIZ31Ap4DsyEZ7dJ8GzYEt5Xe6Cu538hoGEAGjcKRtOQpiJw4AwqU162ZHr27ClTM9xHQ4cH9k8ZTenywOFxW59y1I0TNBQ82D4qWV+b+lL0wNT3YkA9c+bMjwVWfGOJ77HPv8DsLQdERNEqbgO4oLlNgmFZf6QId7lPvt9+X80vsgQpBTTN5mzADelFmLhxD6av240Br65FveEp8IpMkjS3kZiTMc2ldlcVR8rsKmnkVB2JT6/R8co2cRprh9uhcG3D+NK3l55IgzPhSUvQfomo0yUadQKawedqD9Sv8zsEBPgjqFEjhISwLm0h7ZhOnTqKry9TXlubcryNUzOMphxx4+A40146EnJ43DK+8+fPlwmaNWvWuNozlBFaoJJMYurLiPrpp59K6suISqCeO3fuxwKre7TOST4xPd710Sm8XPwOeqUXoVXsBqlnW8dv0B04v4H2V5fi2guagDQxH2R5u6YVYkzeLswo2IvRCZsQMn4erh4YJ3UnU13xO7rbgJRR1HofGWa3Pt0aGEWlHqXqKFGXE0cmCEjZhqENKGWClAj6DEyEd2QuvJju3v4aPDsOg3eDIPhe7YF6XpyQ8RfhPdPdFs1biJsDPZJsXUqQcljcMr02mpJEIttLocOLL77oSnupSiKRtGzZMqxbt04maNhHpeBh//79ElHZnrFkkjP1tUA9f/78TwNWqWWNRNHWsxUfnMDzm/bJBjEyxi3j8kHn/45Jv6XH9gT/tdyS4aU30nVpRbh7/S7MKNyLManFaDspB7UGxqHusBSx+ZTlw8LoktU1e2OsSwOFDAJS9xC4iu2TIOxueALqCUB1fE28kCLmwXvoCngOSkedmx+HV8te8PXzRL2rPXCtH61WgtAkOFjsVmxNWhWkrEuZ8lKET5COGzfOVZvSMpQaX0ZTm/ZyHpUuDxQ7sD6l1pcSQqtMouCBQGV7hqwvgfrZZ5/BGVEJ1K+++uqnA6urlnUIKQjcnR+exOtl72BgdpksbubGuuZxHA5gtNXZVCc589MPvNc89fu1gO6bf0fVdpZ+LVxE0kaw3Gkem4cbs4owPn8XHs3fg7uTi9Bh6gLUGpQA78hEBJoIKtGT4gWCkxMwFDGw7UI5IAX2dhKGA+BRiahvlj2xBUPrT9l5yj5peDq8hi6DV8RCeN7+Cjw7Dod3UEv4ef4eDer8BwL8vSWKBjPVbdZc9qKSOBKQXt9NhA2UChKkZHmp6+VKC5vykum1tSlJpNdff13YXgod6JvEwXHqfFmfkvHdunWraH0pIbRAZUStSiY5IyqBSqLWww2aC1PVn+JxG2VJQx349DPM3XkY0cu34wbjqcO2T8u4ArRLdAgSfkuVf76pclKBXGSbxeSjXWIhBi7dismFezFt9U4MjymQSMp01zM8QXaYKlFk2y1mTSIj6IhU+LvSXJpnm5E11qLGSdDukPELS4BvZCa8hy6H15DF8OrzBryuGwef0BvgV9cH9Wp7oKHflWhEoX1wCEJDm6Flq5aS6lLH27VrV3EapKiBMkGmu5Y8Ys+U4gbWpUx5uX+GKS+9kjjaxt4p51AZTRcuXChtGTo8UJBfXl4u8kHWp5bxpYSQyiQKHthHPX36dLURlUD92YHVnR67PYpPnT2LvEMf4oWiSvHf7ZRYALLHjLgkpQS4Sbapzyu5vbrb298i3zcj4OV4T+z7e+EtlV4kjJgN8XPqlVOKezbswpQNe3Avl2q9vBbBYzPwp/5x8IxIhMyOGmWRJYlUBqgRtJ442+vQt/RGxZPXYffJSBqeBO8h2fAevgw+XJ/4l1fhff0E+La4BfX8G8Df83cI8Pk9ggLqonFwY4Q0bSqEEXuknDEls8t6lIIGrq7gnhmOsbEmZbprIykXRBGk1PVy94wlkN566y2ZQWVtSjUS51AZTSnGZzS1aa+tTy2RVBWoX375pZBJZ8+ehU19bVQlNn5WkdVGc/zLGrO5Qctoe+jU51i8/z08kb8HA+ZvRudE1YtSM8oat3XCBqlx3YC1J6U9oezXv91ePgArr0BSkL3z9okb0SunDCPX7cTk/N2YvGIbRsQW4PpHF8EnMglX3hkL36gkk96qE4NLo2vF9MLk2skXFdZzAxsZXVmXGJ4E38h58Bm6BN5DFsErLAnevZ+Fb9dRqBvaDfX868Hf+78R4PvfaBRQ1xVBSRa1btVa+qNMc6+77jppv5DZZapLeSDtQMnu0sGBe1EZSZ0gfeKJJ6QupVyQLvnsm9qUl7UpRQ42mpJEIttLocM777wjkzNViSTWp4yoBCpBStbXCVQLVmadP0uwWtDqpu+vpe3jTpEJ269A3fGSyvfwdMFeWTlxQ0qhjOQRtIy6PNokFEBWfEiqbAFb9dZG5d8AfCkA5ioKmuO1ildRfev4AlyfUYT+y7ZizIadmLxhNx5YWoGRcRtx48wlaDgqDVfcGYNrBsZLK4a9UJpiu+pPWnmy/pQaVOtPl3VKuLoy1I1Ihc+QLHgPWwKvoYvhFZ4Onztfg9/NU1G3/Z3wD26Fhg18EeT7ezSqfxWaBDVASNMQhDYLRYuWLdC6TRuJoE6AMs0lQJ1RlH1StmAouKd5GR0c2IYhw2sjKcX3jKRUIRGkzpSXw+LO2pQkEsX4tn/KtNdJJFGVRCKpOqDa1Je3Fg8/c7B+s45m1CVc3f/9C0c/O40Nhz/ErPKDuG/ldln4zBGudvH5aBXLk4opcx5aS9qcj05JKsLQCOxkmy+n294vBfz24sXXS4dAfd1MZwnKNgn5Bpgb0Mosd7plfhnCVmzDWAIzf7fsnh2bWYrBr6+XCNpwZCqu6hsrh29konu6RWZFU1DPVX/a6GlbLUnwi0qF7xDWnAvhOXQpvIbkwntwKnz7vIT6t0xB/S5hCGjRBYGNAtHI/xo0rv9HBDf0RtNgrkxsjhYtWgpJROGCTXEZQakyYgRlmktJIGtRmpVxvtRGUZJGEydOFD+khx56yFWTMt21kZQD4qxLMzIypB3jTHnJ9NIridGU+t7qSCTWp1VbMzaiMoraSEqAOoHKr39xYLVXGfF/cmiPLXg/O3cWez45ieXvHMebm9+VqZ8B80txQ3Kh2FSyLSRRQWpevd8uQU9MRg2nqsadTtsT2t6qdvVSItEP/xz7muxt1YtEdY/r30kzuQ5JJH/yxTuLG+1J4rVOKEBnekxllaAvt9at2YGxG3ZhIo/V2xG9cAtGpxVh8Ovr0HPmYjSLzoRXWDyu+MtsXN03Fr4RidL3FO+ioUmwG9Xqm/6nChVS4BOVBu8h8+A1ZCFqD10Ez6gceIenom7/1+F/+0wE9JyAwOv6o3HbrmgaGozmQb5o3rAWmjfyRfOmXD3RDC1btkLr1m2EILIsLkkiTr6wBmUEpRSQEbQqQEkYcb6UzoKWNOL4GlswVB6ROGIbxkZSJ0jJ8nJInB5JJJCY8lKEv2vXLlfvlGokSyKxLUOhgyWSbDS1QLWpb3UR1Z7zv1iw2j/A3qIa4BLAZ786h8MnP0f+kY+QuuMwninch/HLt4EA5hxoh/gCSZ9Zc7WKy3Ol0NLnjVc/KUYY9nvtmJx71rIqMH7Krw0ok1SY3ymZJYCmrO0SSMqRSdfygBertokF6JRSiBvnFeN2Lnhmbbl2J8as340J63Zi4qrtiF68BWPnlWJEwkYMenUtbn1iGdo/kI3AEamoMyAOV/SehSv/Mhueg+JRL4prDpnOKltbN4pRMhm+kanwikxH7cj5qBWZg9pROagTmQ2f8LmoGxYD/wGvILDPTAT3ug/Nbx6KVt16oU37dmjbMgjtQv3QlkfzhmjTKhRt27RF27bt0L5dexHPM63l3KitPW30JDgZPdlusUQRWy7U7LIOdaa5bL0QoHQWJLNLd0FGUbZgqDxKTEwU0T3bMGR4bSRlz5QgZSSlR5Iz5aWrg7N3SpA6o6kFKgFqD2dUrRpR7Tn+qwGr/YOctzbaXnj7NU6e/RIHPj2FkmMfI2fvUbxW9g6m5+3C6KVbwT0wXKtBgTzTaJJXPJhOc7cP7Va5m5aCDVsfE+hkPtnsp761fWK+RCwLcoKGYLeRm9H7m4e7HWWfz5/hwd/DKaX2iWq5yX+njfybHIZQVpyvi1kDQck2SWfOwdKcPLsMf1lUjrAVFRi6dgdGrduJcXm7MHH9Tty7egfuXboN0TnlGJ1ajKFz8tHvxdW4+bHFaHtfFhqNSBWrzav6xOCPf56FK++YjWv6xcKTPdGIZPhEpKJOeCquGZyGq8LScWVYJq4My8KfBmfimvAMeIWnwi8iAdeGv43Gg19Bs0FPoU3/aejQ5x506T0Y1/fshe7du6BH1xa4qWMIerQPwXXtQ9G1Y1t07tQBnTp1FqaWbG2XLjy6CjAZNanL5XA3IydTW6qKbPQkSUQmlzUoZ0kZQQlQRlCSRbT9ZJrL/ihrUY6tsUfKiRiSRkx1qeMlu2tBunz5clAmyEhKD19GUvZM6ebAdgxTXg6KW6aXfVOnyKEqiWSJJGdEdZ671d3/VYPV+Qd/LZGXE0DuKSAniJlWf/LlGRw8eRpb3/8Uaw5+gPRdR/BG2bt4auMeTFmzA6OXbpH20R2ZJaCPcDeOciUVoD3XNRA8cQSz3rJOlkgmEso8qZuZZmr9rABj6+mCgz/j+Dne5/O5CqI9AZ5aiOszNuFWrrtYXI5+S7cibHkFolZvxwi+vjU7MGbtDoxZuQNjlm3DmEVbMHp+GUbOLcGQ+I0IezMPvZ9fhW7TF6HdpGw0HZsB34hkXNEnFr+7bTY8erwNj+5vwaP72/C4aQ48esXjP+9IxO/6JON/+qbgD/1ScEX/FNQalAKvcCqFkhAYFYeQobPRcvjr6Dj8RVw//Fn0HP4Yeg+bgjuHRqN/5EgMChuEsAG3Y9CdN2FA727oe1sn3HFLJ9zWsxt63nQDbrzpRvTocaPUlYyOPbr3QPfuPSSNZSpLUNp6k1GTxJAzclKsEBYW5qo/CU6Op5HJpaie0y9suXACxglQprkkjAhQ9kjj4+NdpBHlgUx1qTwiSNmGsSC1kdSC1M6eMuW1ksGqKS9FDk6hgxOkNvXl+cr/nOet8/7/G7A6/2i9b9pDF0mf3UDmG3geZ74+hxNnvsShk59h78cnUfbeCeQf/hAr3n0fWbuPInH7YbxdfgCvlr6DZzfuw+N5uzFj/S7cu3K7kF6TVhNAFbKVfPjiLaj2MFvLxy+vwKRV2+VnJ6/ZiSkrtmHi4q2YuLAc47JKERm/EQNfX4++r63F7S+sRK9nl6PHzMW47pFcdJycjZbRmWh0VxrqRybBs38c/nTHHPzPrW/Do8fr+P0tb+Ga29/G1bfPQq0+sxEQEY+mIxIRMjIJHccno0t0Mm68LxG3PpCE26fEo++0GAx+cA6GPPwWRjzyT4x+5CWMf/R5THz0adz/8AxMfuhBTJ32AKZOHodp94/ClOihmDQmAhPvGoR7hg7AiIgBiBjUH4MG9kP/vn2lbvzLHXdIFOz9597o1evPuO22XgJAgpARkgcFCQQkoyXTWdabjJgkhRg1SQyxB8rISQbXgpMsLutPRk8yueyJMsWljYqNoAQo98gwghKgthZlj5TtF0ZRW49u3LhRRtgoarAgJcPLVoyNpE6W1wocrGTQprxVI6klki6W8n7zfP0FE0zV/TGX7zHS5YzAdG0kWJ3ssxvG336PTPbXOH3+HL48fx5nvjqPk2fP4qMvvsQnX5yp9vj4iy/x0ekz+OzMOZw5fx6nz56Vmvvk56dx/OOTOPbBp3j3yEco2XYY6zbtx+qCvViWtwu5a3ZgwaoK5KyswPzl5XJkr9yM7FVlyF5ViuyVJchasQkZSwqwaHUhVqwrwKKVechavBpLlq/EihXLsSB3EZYuWYBFCzKxKDsVi+YnIid9DuanvIl5Ca8idc7fEffGs3j75Zl45fnpeO6ph/HkY1Mx/eFJmDblPtx33wRER4/DmDH3YNSo0SIkIJDItLJeZOSjEohgYyTs17efuP2xpuRB5z/eEpD8Pp/H59uIyZSWv4vApCaXxBAjJ8FJBnfSpEkXRE+SRKxBqdVlikuAsg6lZpe9UWeayyFw+vSyR8r2i61HKWggSC1xZCOpBel7770nrRimvJbltX1Tq+2tSiBVBakF67dFVHte/z+OrN9sC9k35WK3QmIZ7NrnKLH1XcD87VC/+Hed/xYvKOdIowH4Ajh/Ejh7Al+d/hBnTx7H6Y+P4NQHB/HJsUq8f3A3jlVuR+WucuwoL0ZFaQE2F67HxvWrsHblUqxYshC5OVnIypiL1OQkxMfFYfasWXjj9TfkRH/xhRfx3N+ew1NPPY2Zf52JGdNn4OGHH8HUqdMEKIxmEydMFGE760NGOpI5VP8QYBa4jIY8CD6CmLf2MYLRRkr+HH+ev4e/j4J5ApM1J/ufnBdl3cnISdkfxQpOcJIkogSQqygYQelyzwjKwW+OqjkBamtRG0UtacR61LZgmOpa4shGUidI2TO1csGq0dSSRxao9typ6e3/AWBrvq4t89Q6AAAAAElFTkSuQmCC;aspect=fixed;" parent="26" vertex="1">
                    <mxGeometry x="85" y="85" width="80" height="80" as="geometry"/>
                </mxCell>
                <mxCell id="39" value="" style="sketch=0;outlineConnect=0;fontColor=#232F3E;gradientColor=none;fillColor=#D45B07;strokeColor=none;dashed=0;verticalLabelPosition=bottom;verticalAlign=top;align=center;html=1;fontSize=12;fontStyle=0;aspect=fixed;pointerEvents=1;shape=mxgraph.aws4.auto_scaling2;" parent="26" vertex="1">
                    <mxGeometry x="44" y="37" width="48" height="48" as="geometry"/>
                </mxCell>
                <mxCell id="40" value="" style="outlineConnect=0;dashed=0;verticalLabelPosition=bottom;verticalAlign=top;align=center;html=1;shape=mxgraph.aws3.elastic_ip;fillColor=#F58534;gradientColor=none;rotation=90;" parent="26" vertex="1">
                    <mxGeometry x="49" y="117" width="45" height="16" as="geometry"/>
                </mxCell>
                <mxCell id="27" value="Private subnet" style="points=[[0,0],[0.25,0],[0.5,0],[0.75,0],[1,0],[1,0.25],[1,0.5],[1,0.75],[1,1],[0.75,1],[0.5,1],[0.25,1],[0,1],[0,0.75],[0,0.5],[0,0.25]];outlineConnect=0;gradientColor=none;html=1;whiteSpace=wrap;fontSize=12;fontStyle=0;container=1;pointerEvents=0;collapsible=0;recursiveResize=0;shape=mxgraph.aws4.group;grIcon=mxgraph.aws4.group_security_group;grStroke=0;strokeColor=#147EBA;fillColor=#E6F2F8;verticalAlign=top;align=left;spacingLeft=30;fontColor=#147EBA;dashed=0;" parent="2" vertex="1">
                    <mxGeometry x="447" y="75" width="250" height="250" as="geometry"/>
                </mxCell>
                <mxCell id="16" value="Aurora PostgreSQL" style="sketch=0;points=[[0,0,0],[0.25,0,0],[0.5,0,0],[0.75,0,0],[1,0,0],[0,1,0],[0.25,1,0],[0.5,1,0],[0.75,1,0],[1,1,0],[0,0.25,0],[0,0.5,0],[0,0.75,0],[1,0.25,0],[1,0.5,0],[1,0.75,0]];outlineConnect=0;fontColor=#232F3E;gradientColor=#4D72F3;gradientDirection=north;fillColor=#3334B9;strokeColor=#ffffff;dashed=0;verticalLabelPosition=bottom;verticalAlign=top;align=center;html=1;fontSize=12;fontStyle=0;aspect=fixed;shape=mxgraph.aws4.resourceIcon;resIcon=mxgraph.aws4.aurora;" parent="27" vertex="1">
                    <mxGeometry x="85" y="85" width="80" height="80" as="geometry"/>
                </mxCell>
                <mxCell id="34" value="" style="edgeStyle=elbowEdgeStyle;elbow=horizontal;endArrow=classic;html=1;strokeWidth=3;fillColor=#dae8fc;gradientColor=#7ea6e0;strokeColor=#6c8ebf;" parent="27" edge="1">
                    <mxGeometry width="50" height="50" relative="1" as="geometry">
                        <mxPoint x="-148" y="123" as="sourcePoint"/>
                        <mxPoint x="76" y="123" as="targetPoint"/>
                    </mxGeometry>
                </mxCell>
                <mxCell id="31" value="" style="edgeStyle=elbowEdgeStyle;elbow=horizontal;endArrow=classic;html=1;strokeWidth=2;fillColor=#dae8fc;gradientColor=#7ea6e0;strokeColor=#6c8ebf;" parent="2" edge="1">
                    <mxGeometry width="50" height="50" relative="1" as="geometry">
                        <mxPoint x="-61" y="62" as="sourcePoint"/>
                        <mxPoint x="120" y="199" as="targetPoint"/>
                    </mxGeometry>
                </mxCell>
                <mxCell id="38" value="&lt;span style=&quot;font-size: 13px&quot;&gt;&lt;b&gt;Inbound Filter on Security Group ID&lt;/b&gt;&lt;/span&gt;" style="rounded=0;whiteSpace=wrap;html=1;strokeColor=none;" parent="2" vertex="1">
                    <mxGeometry x="335" y="204" width="113" height="28" as="geometry"/>
                </mxCell>
                <mxCell id="19" value="SoftEther&lt;br&gt;VPN Client" style="points=[];html=1;align=center;shadow=0;dashed=0;image;image=img/lib/allied_telesis/wireless/Laptop_Wireless.svg;aspect=fixed;" parent="1" vertex="1">
                    <mxGeometry x="241" y="135" width="80" height="80" as="geometry"/>
                </mxCell>
                <mxCell id="20" value="SoftEther&lt;br&gt;VPN Client" style="points=[];html=1;align=center;shadow=0;dashed=0;image;image=img/lib/allied_telesis/wireless/Laptop_Wireless.svg;aspect=fixed;" parent="1" vertex="1">
                    <mxGeometry x="237" y="270" width="80" height="80" as="geometry"/>
                </mxCell>
                <mxCell id="21" value="SoftEther&lt;br&gt;VPN Client" style="points=[];html=1;align=center;shadow=0;dashed=0;image;image=img/lib/allied_telesis/wireless/Laptop_Wireless.svg;aspect=fixed;" parent="1" vertex="1">
                    <mxGeometry x="237" y="405" width="80" height="80" as="geometry"/>
                </mxCell>
                <mxCell id="33" value="" style="edgeStyle=elbowEdgeStyle;elbow=horizontal;endArrow=classic;html=1;strokeWidth=2;fillColor=#dae8fc;gradientColor=#7ea6e0;strokeColor=#6c8ebf;" parent="1" edge="1">
                    <mxGeometry width="50" height="50" relative="1" as="geometry">
                        <mxPoint x="341" y="450" as="sourcePoint"/>
                        <mxPoint x="525" y="321" as="targetPoint"/>
                    </mxGeometry>
                </mxCell>
                <mxCell id="32" value="" style="edgeStyle=elbowEdgeStyle;elbow=horizontal;endArrow=classic;html=1;strokeWidth=2;fillColor=#dae8fc;gradientColor=#7ea6e0;strokeColor=#6c8ebf;" parent="1" edge="1">
                    <mxGeometry width="50" height="50" relative="1" as="geometry">
                        <mxPoint x="343" y="320.5" as="sourcePoint"/>
                        <mxPoint x="524" y="320.5" as="targetPoint"/>
                    </mxGeometry>
                </mxCell>
            </root>
        </mxGraphModel>
    </diagram>
</mxfile>